<svg width="1060" height="970" viewBox="0 0 1060 970" fill="none" xmlns="http://www.w3.org/2000/svg">
<rect width="1060" height="970" fill="white"/>
<path d="M183.005 669.808L186.005 644.308H190.505L183.005 669.808Z" fill="black"/>
<path d="M601.005 265.308C559.499 262.514 531.339 283.141 522.005 289.808L656.005 371.308C655.005 335.974 653.005 268.808 601.005 265.308Z" fill="black"/>
<path d="M511.505 301.308C499.005 323.308 517.58 334.097 520.005 345.308L637.323 277.695C604.483 264.621 537.252 255.994 511.505 301.308Z" fill="black"/>
<path d="M279.889 250.475C384.069 346.982 458.951 388.639 504.536 375.444C538.403 365.641 653.383 343.901 650.006 474.31C649.532 492.637 600.981 612.541 588.329 628.118C577.792 641.091 540.246 634.573 535.233 662.758C506.673 671.921 420.943 668.581 338.884 511.06C307.041 449.935 285.785 389.511 276.998 327.061C273.902 305.054 274.865 279.525 279.889 250.475Z" fill="black"/>
<path fill-rule="evenodd" clip-rule="evenodd" d="M596.122 674.984L613.792 711.075C613.792 711.075 623.372 706.755 632.809 712.267C642.764 707.556 657.129 709.719 665.428 717.781C673.728 725.842 677.262 738.883 677.262 738.883C677.262 738.883 681.862 770.892 668.178 781.666C664.781 784.342 664.277 787.748 658.132 775.226C651.986 762.703 598.967 757.296 598.967 757.296C598.967 757.296 574.12 769.174 566.145 754.369C561.823 743.741 565.386 732.175 565.386 732.175C565.386 732.175 568.753 717.781 576.651 714.928C572.856 697.259 567.323 681.173 575.233 675.699C580.63 671.964 593.072 663.558 596.122 674.984Z" fill="black"/>
<path fill-rule="evenodd" clip-rule="evenodd" d="M563.092 650.36L483.264 627.604C441.413 616.922 416.587 607.664 408.787 599.828C397.085 588.074 389.748 575.66 395.37 571.606C404.743 564.849 418.264 558.961 435.933 553.944C426.575 554.422 422.452 553.94 423.564 552.497C426.086 549.224 439.509 539.539 463.834 523.442C473.301 513.996 479.111 507.779 481.264 504.791C483.999 500.994 466.384 502.405 455.804 502.405C468.914 484.291 483.264 476.42 500.008 472.432C503.833 469.33 507.89 464.932 512.179 459.239C505.12 457.618 499.895 456.808 496.505 456.808C501.119 448.78 513.464 437.925 533.539 424.242L519.297 428.279C524.201 419.22 529.205 412.23 534.31 407.307C539.414 402.385 544.335 399.107 549.072 397.472C558.328 376.433 564.11 362.364 566.416 355.266C568.722 348.167 568.907 343.875 566.969 342.388L533.15 302.466L637.116 312.721L645.505 340.808L665.185 459.702L670.51 666.089L614.937 692.761C608.654 698.093 602.237 696.892 600.026 693.797L563.092 650.36Z" fill="#CECDC4"/>
<path fill-rule="evenodd" clip-rule="evenodd" d="M511.224 312.428C519.624 285.4 582.495 264.807 610.459 273.893C629.102 279.951 639.498 301.646 641.646 338.979C643.97 349.701 640.685 398.537 633.952 427.335C635.999 431.731 643.503 444.507 642.744 450.356C638.966 444.327 634.216 442.51 634.216 442.51L630.966 462.106C630.966 462.106 641.512 484.727 640.34 488.941C636.69 486.007 631.145 483.252 630.54 482.954L630.486 482.928C630.486 482.928 629.637 507.488 629.074 513.324C635.078 521.113 643.772 546.802 643.772 546.802C643.772 546.802 627.454 529.079 627.593 537.364C627.734 545.639 630.827 576.38 630.827 576.38C630.827 576.38 640.408 593.725 644.869 615.562C639.872 609.431 634.442 603.369 631.067 599.681C629.842 598.341 627.597 599.093 627.461 600.908C625.298 629.829 615.382 673.144 608.039 686.405C600.274 700.425 569.541 699.763 567.169 692.231C565.424 686.69 558.594 661.176 537.866 645.31C555.289 667.769 557.18 702.093 557.18 702.093C549.453 701.7 541.977 700.934 534.785 699.876L521.592 668.948L527.652 698.719C515.256 696.517 503.786 693.489 493.422 690.097L504.664 660.655L487.251 687.99C477.419 684.496 468.713 680.735 461.311 677.158L482.671 654.166L454.926 673.96C440.875 666.666 432.993 660.834 432.993 660.834C432.993 660.834 456.169 636.636 483.891 628.77C465.68 627.856 403.171 610.476 403.488 600.908C403.584 597.993 395.388 577.445 403.488 572.39C421.004 561.458 441.649 556.473 454.25 550.401C455.754 549.677 454.373 546.51 452.366 546.929C447.445 547.955 440.402 549.507 433.603 551.307C450.047 536.263 467.992 527.862 467.992 527.862C467.992 527.862 488.563 504.81 493.543 498.198C498.524 491.577 474.906 496.323 474.906 496.323C474.906 496.323 497.04 480.651 506.475 477.878C509.45 472.827 523.2 452.458 523.2 452.458C523.2 452.458 516.646 451.288 511.691 451.53C513.22 447.433 535.049 435.33 535.049 435.33L543.939 417.566C543.939 417.566 539.026 416.244 532.427 418.901C535.25 413.722 553.072 405.445 553.072 405.445C553.072 405.445 560.026 392.625 563.367 384.6C566.48 377.124 570.004 363.332 570.47 361.487L570.477 361.457L570.448 361.491C569.04 362.884 550.227 365.49 537.114 356.838L536.698 356.558C519.782 344.973 509.06 319.363 511.224 312.428Z" fill="black"/>
<path d="M525.005 438.809C531.944 433.951 536.698 421.5 536.698 421.5L540 418.5C540 418.5 534 422 529 419.5C531.823 414.322 551 404 551 404C551 404 557.659 391.025 561 383C564.113 375.524 570.004 363.332 570.47 361.487L566.477 361.457L570.448 361.491C569.04 362.884 550.227 365.49 537.114 356.838L536.698 356.558C519.782 344.973 509.06 319.363 511.224 312.428C519.624 285.4 582.495 264.807 610.459 273.893C629.102 279.951 643.357 299.976 645.505 337.309C647.318 368.809 652.505 402.309 638.952 430.335C638.541 431.185 642.754 432.364 643.465 433.743C644.306 435.373 645.06 438.232 646.646 439.809C652.686 445.813 644.505 451.309 644.505 451.309C644.037 461.097 631.005 462.309 631.005 462.309C627.005 447.309 609.505 438.809 609.505 438.809C609.505 438.809 598.751 451.323 600.005 461.309C593.886 457.078 586.698 447.486 583.005 438.809C575.526 445.081 572.717 449.161 570.005 457.309C563.591 452.097 560.171 448.947 556.005 440.809C550.08 447.209 545.725 449.676 536.698 452.707C539.392 447.764 547.892 433.601 547.505 429.309C547.505 429.309 527.916 440.18 525.005 438.809Z" fill="#CECDC4"/>
<path fill-rule="evenodd" clip-rule="evenodd" d="M559.005 348.438C570.675 348.438 580.136 338.978 580.136 327.308C580.136 315.638 570.675 306.177 559.005 306.177C547.335 306.177 537.875 315.638 537.875 327.308C537.875 338.978 547.335 348.438 559.005 348.438ZM559.005 354.308C573.917 354.308 586.005 342.22 586.005 327.308C586.005 312.396 573.917 300.308 559.005 300.308C544.094 300.308 532.005 312.396 532.005 327.308C532.005 342.22 544.094 354.308 559.005 354.308Z" fill="#B5B4AC"/>
<path fill-rule="evenodd" clip-rule="evenodd" d="M823.506 720.285C817.678 702.031 773.12 562.244 774.404 559.998C779.627 550.867 788.221 542.574 792.618 532.465L809.904 588.868C823.869 634.429 858.814 670.433 903.788 685.738C904.595 686.011 905.386 685.238 905.139 684.423L772.576 247.226C770.789 241.411 763.586 239.414 759.059 243.479C759.059 243.479 728.985 268.917 733.926 301.311C742.846 359.79 716.798 400.567 693.098 397.3C677.296 395.122 661.77 378.01 646.521 345.964C647.082 355.129 648.044 365.292 647.545 374.479C646.593 391.973 643.969 409.557 640.629 427.42C650.894 442.066 654.313 462.761 655.348 477.697C651.261 468.589 642.675 461.13 639.123 455.691C638.957 458.02 638.77 460.436 638.595 462.855C650.222 483.341 653.79 504.139 654.989 521.45C650.142 510.655 640.574 500.966 636.536 495.207C636.36 498.329 636.189 501.512 636.031 504.725C645.485 528.594 655.879 558.899 657.499 582.218C650.347 566.314 639.445 554.76 634.382 549.002C634.331 550.948 634.282 552.886 634.227 554.846C643.776 582.515 659.531 630.621 661.776 662.899C652.118 641.408 640.408 623.834 634.182 617.518C634.675 640.96 624.301 674.905 615.439 693.526C615.147 694.142 615.562 694.816 616.243 694.842C622.057 695.056 644.992 695.19 667.369 685.533C690.721 711.085 715.681 725.9 735.2 734.999C736.022 735.382 736.891 734.602 736.617 733.737C732.186 719.776 708.662 645.315 710.44 643.683C715.763 638.796 728.303 624.729 728.303 624.729C742.264 670.276 777.195 706.274 822.151 721.584C822.963 721.862 823.768 721.105 823.506 720.285Z" fill="black"/>
<path fill-rule="evenodd" clip-rule="evenodd" d="M545.121 314.174C547.421 307.096 555.046 303.205 562.119 305.503C565.324 306.544 567.163 310.213 568.785 312.896C570.743 316.137 572.057 318.645 570.799 322.518C568.499 329.597 560.862 333.484 553.776 331.182C546.702 328.883 542.82 321.254 545.121 314.174Z" fill="white"/>
<path fill-rule="evenodd" clip-rule="evenodd" d="M542.34 353.261C552.808 350.802 573.248 353.172 575.316 361.926C575.791 363.937 574.458 365.956 572.494 366.601C570.024 367.412 567.202 368.512 564.183 369.802C564.236 369.631 564.261 369.545 564.261 369.545C564.261 369.545 515.669 386.124 505.735 398.031C495.798 409.936 493.092 427.044 490.744 429.517L464.561 378.821C459.572 369.056 456.902 350.975 466.556 345.572L504.055 323.522L504.199 323.516C504.199 323.516 526.019 308.076 542.34 353.261Z" fill="#CC7910"/>
<path fill-rule="evenodd" clip-rule="evenodd" d="M521.279 350.726C517.496 353.582 508.198 340.744 505.485 336.815C505.181 336.376 505.572 335.613 506.12 335.565C509.65 335.247 518.889 334.645 521.815 336.715C525.472 339.289 525.737 347.37 521.279 350.726Z" fill="#854605"/>
<path fill-rule="evenodd" clip-rule="evenodd" d="M520.052 347.255C517.04 349.578 508.734 337.786 509.027 337.027C509.321 336.268 518.061 335.899 520.493 337.65C522.934 339.396 523.064 344.938 520.052 347.255Z" fill="black"/>
<path fill-rule="evenodd" clip-rule="evenodd" d="M574.943 360.141C574.943 360.141 570.591 362.25 528.379 377.534C520.96 380.219 511.091 393.019 511.091 393.019L575.042 365.807C575.426 365.644 575.733 365.361 575.901 364.981C576.625 363.339 576.384 361.663 574.943 360.141Z" fill="#854205"/>
<path d="M574.505 359.81C572.505 361.81 568.38 364.402 564.182 363.933C557.883 363.23 557.071 367.951 552.187 370.038C547.303 372.125 546.062 370.275 543.251 371.164C540.441 372.053 537.431 374.77 533.767 376.848C530.103 378.927 525.873 377.905 523.268 380.236C520.663 382.566 521.804 384.741 516.377 387.571C512.758 389.457 510.196 392.658 508.69 397.173" stroke="black" stroke-width="3"/>
<path fill-rule="evenodd" clip-rule="evenodd" d="M609.405 721.271C609.405 721.271 596.996 713.38 588.02 715.598C579.044 717.815 574.481 724.814 571.616 732.393C568.751 739.974 576.662 758.969 580.955 760.868C585.248 762.767 588.02 756.685 588.02 741.235C588.02 732.393 611.005 731.976 611.005 731.976L609.405 721.271Z" fill="#CC7910"/>
<path fill-rule="evenodd" clip-rule="evenodd" d="M624.805 721.271C624.805 721.271 638.765 713.38 648.864 715.598C658.961 717.815 664.095 724.814 667.318 732.393C670.542 739.974 661.641 758.969 656.812 760.868C651.982 762.767 648.864 756.685 648.864 741.235C648.864 732.393 623.005 731.976 623.005 731.976L624.805 721.271Z" fill="#CC7910"/>
<path fill-rule="evenodd" clip-rule="evenodd" d="M294.005 880.146C294.005 882.445 296.896 884.308 300.462 884.308H824.548C828.114 884.308 831.005 882.445 831.005 880.146V738.47C831.005 736.172 828.114 734.308 824.548 734.308H300.462C296.896 734.308 294.005 736.172 294.005 738.47V880.146Z" fill="black"/>
<path d="M357.815 859.628C349.015 859.628 342.745 856.951 339.005 851.598C335.265 846.245 333.395 838.655 333.395 828.828V798.908C333.395 788.861 335.412 781.198 339.445 775.918C343.552 770.638 350.445 767.998 360.125 767.998C369.439 767.998 376.112 770.271 380.145 774.818C384.179 779.365 386.195 785.781 386.195 794.068V799.788H366.945V792.528C366.945 789.008 366.542 786.368 365.735 784.608C364.929 782.775 363.132 781.858 360.345 781.858C357.485 781.858 355.615 782.848 354.735 784.828C353.929 786.808 353.525 789.558 353.525 793.078V834.328C353.525 837.848 354.039 840.635 355.065 842.688C356.165 844.668 358.109 845.658 360.895 845.658C366.029 845.658 368.595 841.808 368.595 834.108V823.658H360.565V812.108H386.305V858.308H373.325L372.225 850.938C369.439 856.731 364.635 859.628 357.815 859.628ZM398.629 769.208H423.159C432.912 769.208 440.282 770.931 445.269 774.378C450.255 777.825 452.749 783.948 452.749 792.748C452.749 798.688 451.979 803.418 450.439 806.938C448.899 810.458 446.039 813.208 441.859 815.188L454.069 858.308H433.719L423.929 818.378H418.319V858.308H398.629V769.208ZM423.819 807.048C427.779 807.048 430.529 806.021 432.069 803.968C433.682 801.841 434.489 798.688 434.489 794.508C434.489 790.475 433.755 787.468 432.289 785.488C430.822 783.435 428.292 782.408 424.699 782.408H418.319V807.048H423.819ZM477.126 769.208H499.566L516.176 858.308H498.026L495.056 839.498H481.966L478.886 858.308H460.296L477.126 769.208ZM493.186 827.728L488.456 792.968L483.726 827.728H493.186ZM525.172 769.208H547.722C555.422 769.208 561.435 770.161 565.762 772.068C570.088 773.975 573.132 776.981 574.892 781.088C576.725 785.121 577.642 790.548 577.642 797.368V829.708C577.642 836.601 576.725 842.101 574.892 846.208C573.132 850.315 570.088 853.358 565.762 855.338C561.508 857.318 555.568 858.308 547.942 858.308H525.172V769.208ZM547.942 844.668C550.802 844.668 552.892 844.265 554.212 843.458C555.605 842.578 556.485 841.368 556.852 839.828C557.218 838.215 557.402 835.868 557.402 832.788V793.958C557.402 791.098 557.182 788.935 556.742 787.468C556.375 785.928 555.495 784.791 554.102 784.058C552.782 783.325 550.692 782.958 547.832 782.958H544.862V844.668H547.942Z" fill="#CC7910"/>
<path d="M615.145 859.628C605.465 859.628 598.572 857.098 594.465 852.038C590.432 846.905 588.415 839.535 588.415 829.928V797.808C588.415 787.981 590.432 780.575 594.465 775.588C598.498 770.528 605.392 767.998 615.145 767.998C624.458 767.998 631.058 770.235 634.945 774.708C638.832 779.181 640.775 785.525 640.775 793.738V801.438H621.525V792.528C621.525 789.081 621.158 786.441 620.425 784.608C619.692 782.775 617.932 781.858 615.145 781.858C612.358 781.858 610.525 782.848 609.645 784.828C608.765 786.735 608.325 789.411 608.325 792.858V834.768C608.325 838.288 608.765 841.001 609.645 842.908C610.598 844.741 612.432 845.658 615.145 845.658C617.858 845.658 619.582 844.741 620.315 842.908C621.122 841.001 621.525 838.288 621.525 834.768V825.418H640.775V833.118C640.775 841.478 638.832 848.005 634.945 852.698C631.058 857.318 624.458 859.628 615.145 859.628ZM651.717 769.208H671.407V858.308H651.717V769.208ZM680.513 769.208H697.343L706.913 829.708L715.823 769.208H733.643L717.363 858.308H696.573L680.513 769.208ZM765.814 859.628C757.307 859.628 750.964 857.391 746.784 852.918C742.677 848.371 740.477 841.185 740.184 831.358L757.014 828.828C757.087 834.475 757.747 838.545 758.994 841.038C760.314 843.458 762.257 844.668 764.824 844.668C768.124 844.668 769.774 842.505 769.774 838.178C769.774 834.731 768.967 831.761 767.354 829.268C765.814 826.775 763.357 824.098 759.984 821.238L752.284 814.528C748.471 811.301 745.501 807.891 743.374 804.298C741.321 800.631 740.294 796.305 740.294 791.318C740.294 783.838 742.494 778.081 746.894 774.048C751.367 770.015 757.491 767.998 765.264 767.998C773.697 767.998 779.417 770.455 782.424 775.368C785.504 780.281 787.154 786.258 787.374 793.298L770.434 795.388C770.287 790.768 769.847 787.468 769.114 785.488C768.454 783.435 766.951 782.408 764.604 782.408C762.917 782.408 761.597 783.141 760.644 784.608C759.764 786.001 759.324 787.578 759.324 789.338C759.324 792.345 759.984 794.875 761.304 796.928C762.697 798.981 764.897 801.328 767.904 803.968L775.274 810.458C779.674 814.198 783.084 818.158 785.504 822.338C787.924 826.518 789.134 831.468 789.134 837.188C789.134 841.368 788.144 845.181 786.164 848.628C784.257 852.001 781.544 854.678 778.024 856.658C774.504 858.638 770.434 859.628 765.814 859.628Z" fill="white"/>
<path fill-rule="evenodd" clip-rule="evenodd" d="M659.463 726.069C655.836 722.555 649.538 724.169 653.022 729.558C656.508 734.947 657.726 734.786 663.997 742.205C666.858 737.209 663.089 729.584 659.463 726.069Z" fill="black"/>
<path fill-rule="evenodd" clip-rule="evenodd" d="M593.531 681.167C593.531 681.167 609.092 717.491 618.005 724.736C611.081 731.98 591.636 733.2 581.515 728.092C583.064 714.454 579.783 697.615 577.299 687.511C575.734 681.141 580.624 674.637 587.108 675.244C590.05 675.521 592.612 677.066 593.531 681.167Z" fill="#CC7910"/>
<path fill-rule="evenodd" clip-rule="evenodd" d="M603.027 721.271C603.027 721.271 616.915 713.38 626.963 715.598C637.009 717.815 642.116 724.814 645.322 732.393C648.529 739.974 639.675 758.969 634.87 760.868C630.065 762.767 626.963 756.685 626.963 741.235C626.963 732.922 596.006 734.006 596.006 734.006L603.027 721.271Z" fill="#CC7910"/>
<path fill-rule="evenodd" clip-rule="evenodd" d="M641.005 740.876C641.005 735.644 634.358 733.531 632.814 736.684C631.271 739.837 633.118 745.668 632.005 756.205C637.959 754.518 641.005 746.108 641.005 740.876Z" fill="black"/>
<path opacity="0.2" fill-rule="evenodd" clip-rule="evenodd" d="M645.612 734.28C645.612 734.28 643.327 724.617 634.005 719.907C638.131 718.992 642.317 720.667 642.317 720.667C655.014 723.46 658.005 736.204 658.005 736.204L645.612 734.28Z" fill="black"/>
<path fill-rule="evenodd" clip-rule="evenodd" d="M584.005 734.303L621.005 736.205C621.005 736.205 594.828 715.032 584.005 734.303Z" fill="black"/>
<g opacity="0.3">
<path opacity="0.3" fill-rule="evenodd" clip-rule="evenodd" d="M574.422 686.914C575.468 684.912 576.758 683.319 578.416 681.893C580.046 680.488 582.026 679.347 584.226 678.786C586.423 678.281 588.792 678.35 590.859 679.035C591.95 679.256 592.864 679.82 593.858 680.217C594.772 680.746 595.611 681.367 596.475 681.936C597.159 682.389 597.349 683.31 596.897 683.993C596.478 684.627 595.657 684.836 594.996 684.505L594.813 684.413C593.193 683.606 591.603 682.817 589.961 682.457C588.325 681.991 586.683 682.125 585.145 682.499C583.587 682.846 582.093 683.625 580.77 684.702C579.488 685.778 578.213 687.152 577.292 688.478L577.207 688.6C576.693 689.34 575.677 689.522 574.937 689.009C574.254 688.534 574.046 687.632 574.422 686.914Z" fill="black"/>
<path opacity="0.3" fill-rule="evenodd" clip-rule="evenodd" d="M575.483 693.682C576.762 691.589 578.293 689.974 580.186 688.573C582.048 687.19 584.229 686.099 586.597 685.583C588.962 685.132 591.466 685.202 593.712 685.868C594.884 686.081 595.899 686.637 596.986 687.021C598 687.542 598.946 688.159 599.913 688.723C600.615 689.142 600.845 690.051 600.425 690.753C600.036 691.408 599.22 691.653 598.542 691.344L598.368 691.263C596.541 690.453 594.738 689.669 592.884 689.305C591.036 688.84 589.176 688.966 587.412 689.316C585.63 689.645 583.914 690.417 582.366 691.495C580.86 692.573 579.361 693.979 578.265 695.375L578.171 695.497C577.625 696.211 576.605 696.347 575.891 695.802C575.231 695.295 575.067 694.38 575.483 693.682Z" fill="black"/>
<path opacity="0.3" fill-rule="evenodd" clip-rule="evenodd" d="M576.543 700.452C578.057 698.267 579.828 696.63 581.956 695.252C584.052 693.892 586.433 692.853 588.969 692.382C591.501 691.984 594.142 692.055 596.564 692.701C597.817 692.908 598.934 693.454 600.113 693.827C601.228 694.341 602.279 694.952 603.352 695.51C604.071 695.896 604.342 696.794 603.955 697.514C603.593 698.189 602.782 698.47 602.088 698.184L601.923 698.114C599.888 697.303 597.873 696.523 595.808 696.153C593.746 695.69 591.67 695.809 589.68 696.134C587.673 696.444 585.734 697.211 583.961 698.289C582.231 699.368 580.508 700.807 579.238 702.273L579.134 702.396C578.557 703.083 577.533 703.173 576.846 702.597C576.207 702.058 576.089 701.13 576.543 700.452Z" fill="black"/>
<path opacity="0.3" fill-rule="evenodd" clip-rule="evenodd" d="M577.602 707.22C579.35 704.945 581.362 703.284 583.724 701.93C586.053 700.594 588.636 699.606 591.338 699.179C594.039 698.835 596.816 698.907 599.415 699.533C600.749 699.734 601.968 700.271 603.24 700.631C604.454 701.137 605.613 701.743 606.789 702.295C607.527 702.65 607.838 703.535 607.483 704.274C607.149 704.969 606.343 705.286 605.633 705.024L605.476 704.964C603.234 704.151 601.008 703.375 598.73 703.001C596.456 702.539 594.164 702.652 591.946 702.95C589.715 703.243 587.554 704.003 585.556 705.082C583.602 706.163 581.655 707.634 580.21 709.17L580.096 709.294C579.489 709.954 578.46 709.997 577.799 709.39C577.182 708.821 577.109 707.878 577.602 707.22Z" fill="black"/>
<path opacity="0.3" fill-rule="evenodd" clip-rule="evenodd" d="M578.662 713.99C580.644 711.622 582.897 709.94 585.494 708.609C588.056 707.297 590.84 706.36 593.71 705.977C596.578 705.687 599.491 705.76 602.267 706.367C603.683 706.559 605.003 707.088 606.367 707.437C607.682 707.935 608.947 708.537 610.226 709.082C610.982 709.404 611.335 710.278 611.012 711.034C610.707 711.751 609.906 712.104 609.179 711.864L609.031 711.815C606.581 710.999 604.143 710.229 601.652 709.85C599.166 709.389 596.657 709.494 594.213 709.768C591.758 710.043 589.375 710.797 587.152 711.877C584.974 712.959 582.803 714.462 581.184 716.068L581.058 716.192C580.421 716.827 579.389 716.823 578.755 716.184C578.158 715.583 578.131 714.628 578.662 713.99Z" fill="black"/>
</g>
<path fill-rule="evenodd" clip-rule="evenodd" d="M640.72 739.639C639.815 734.869 634.2 732.895 634.016 739.123C633.831 745.353 636.181 742.203 635.702 755.205C640.485 752.615 641.626 744.408 640.72 739.639Z" fill="black"/>
<path fill-rule="evenodd" clip-rule="evenodd" d="M579.006 677.205C579.006 677.205 577.954 678.393 578.441 684.178C578.929 689.964 585.005 715.991 585.005 715.991L580.168 718.205L574.005 684.178C574.005 684.178 577.046 677.875 579.006 677.205Z" fill="black"/>
<path fill-rule="evenodd" clip-rule="evenodd" d="M326.093 574.363C313.118 574.363 304.394 582.36 299.26 589.671C296.846 593.107 296.679 600.103 298.122 607.242C299.809 615.588 303.519 623.647 306.442 625.732C307.784 626.69 308.953 627.007 309.959 626.984C311.194 626.955 312.344 626.456 313.398 625.278C314.709 623.812 315.936 620.78 317.546 616.39C318.681 613.295 320.079 609.479 322.031 605.095C323.217 602.431 324.627 600.679 326.269 599.725C328.006 598.716 329.944 598.673 331.902 599.125C341.064 601.241 350.791 613.281 350.791 613.281C350.791 613.281 354.922 618.394 357.839 624.558L351.123 591.879C351.123 591.879 339.068 574.363 326.093 574.363Z" fill="#CC7910" stroke="black" stroke-width="5" stroke-linejoin="round"/>
<path fill-rule="evenodd" clip-rule="evenodd" d="M303.637 602.393C305.194 597.534 311.869 597.151 311.409 603.924C310.949 610.696 309.736 610.927 307.734 620.733C302.507 616.454 302.08 607.253 303.637 602.393Z" fill="black"/>
<path fill-rule="evenodd" clip-rule="evenodd" d="M364.159 579.798C364.159 579.798 363.304 569.341 353.915 563.778C305.151 547.426 300.9 594.984 312.947 595.791C314.79 595.915 331.63 590.819 333.308 591.002C351.599 593.003 347.95 603.484 349.062 606.829C352.044 615.793 331.69 623.439 329.801 629.872C327.653 637.189 338.078 639.429 348.062 639.429C359.899 639.429 371.363 631.345 371.363 631.345C371.363 631.345 380.082 622.362 378.757 614.084C396.054 608.827 412.808 605.854 413.77 596.294C414.428 589.773 415.764 574.836 404.289 577.714L364.159 579.798Z" fill="black"/>
<path fill-rule="evenodd" clip-rule="evenodd" d="M357.822 589.352C357.822 589.352 370.74 596.38 373.152 605.305C375.564 614.232 371.655 621.615 366.415 627.796C361.173 633.977 340.725 636.266 336.983 633.433C333.241 630.599 337.216 625.225 350.728 617.735C358.462 613.448 347.683 593.143 347.683 593.143L357.822 589.352Z" fill="#CC7910"/>
<path fill-rule="evenodd" clip-rule="evenodd" d="M400.594 583.795C400.594 583.795 361.28 587.793 350.622 583.51C347.643 593.078 356.003 610.677 365.378 617.054C376.554 609.086 392.873 603.793 402.914 601.066C409.245 599.347 412.563 591.917 408.888 586.54C407.219 584.1 404.626 582.609 400.594 583.795Z" fill="#CC7910"/>
<path fill-rule="evenodd" clip-rule="evenodd" d="M360.855 594.826C360.855 594.826 361.043 578.886 354.246 571.2C347.45 563.513 338.86 562.452 330.68 563.33C322.5 564.208 310.167 581.139 310.829 586.251C311.491 591.361 318.31 591.119 331.823 583.629C339.556 579.342 353.163 607.256 353.163 607.256L360.855 594.826Z" fill="#CC7910"/>
<path fill-rule="evenodd" clip-rule="evenodd" d="M326.575 564.686C334.114 561.976 341.194 563.052 347.817 567.915C347.785 563.724 346.412 562.686 346.412 562.686C336.633 557.162 327.464 557.829 318.904 564.686L326.575 564.686Z" fill="black"/>
<path fill-rule="evenodd" clip-rule="evenodd" d="M359.296 618.719L339.137 586.446C339.137 586.446 370.872 600.151 359.296 618.719Z" fill="black"/>
<path opacity="0.5" fill-rule="evenodd" clip-rule="evenodd" d="M326.491 587.58C337.207 587.701 360.156 598.716 348.58 617.284C345.471 607.484 343.149 602.499 341.614 602.329C322.119 600.171 326.491 587.58 326.491 587.58Z" fill="black"/>
<g opacity="0.3">
<path opacity="0.3" fill-rule="evenodd" clip-rule="evenodd" d="M402.852 601.284C403.382 599.907 403.759 598.188 403.903 596.583C404.026 594.939 403.828 593.261 403.262 591.699C402.73 590.143 401.954 588.59 400.722 587.286C399.568 585.933 398.11 584.801 396.623 583.649L396.457 583.519C395.782 582.997 395.536 582.062 395.906 581.432C396.248 580.848 396.999 580.73 397.643 581.13C398.543 581.688 399.47 582.203 400.366 582.823C401.202 583.569 402.125 584.175 402.878 585.083C404.511 586.692 405.829 588.827 406.613 591.036C407.358 593.271 407.535 595.539 407.323 597.594C407.112 599.686 406.573 601.507 405.59 603.271C405.198 603.974 404.274 604.091 403.526 603.53C402.836 603.013 402.538 602.101 402.803 601.41L402.852 601.284Z" fill="black"/>
<path opacity="0.3" fill-rule="evenodd" clip-rule="evenodd" d="M396.409 603.784C396.896 602.225 397.177 600.294 397.202 598.49C397.205 596.648 396.885 594.776 396.191 593.022C395.521 591.276 394.63 589.535 393.292 588.04C392.028 586.501 390.471 585.178 388.879 583.842L388.727 583.718C388.07 583.177 387.855 582.245 388.248 581.636C388.611 581.069 389.373 580.982 390.004 581.413C390.952 582.062 391.925 582.678 392.863 583.39C393.734 584.224 394.699 584.923 395.486 585.904C397.188 587.676 398.572 589.927 399.483 592.26C400.345 594.622 400.669 597.044 400.599 599.295C400.531 601.583 400.107 603.626 399.184 605.633C398.836 606.36 397.938 606.529 397.178 606.012C396.473 605.533 396.133 604.631 396.365 603.921L396.409 603.784Z" fill="black"/>
<path opacity="0.3" fill-rule="evenodd" clip-rule="evenodd" d="M389.959 606.283C390.405 604.542 390.591 602.401 390.499 600.398C390.383 598.357 389.943 596.291 389.12 594.346C388.314 592.411 387.308 590.48 385.865 588.797C384.491 587.072 382.833 585.558 381.139 584.039L381 583.92C380.362 583.359 380.178 582.428 380.59 581.841C380.976 581.29 381.751 581.236 382.369 581.697C383.363 582.439 384.382 583.153 385.362 583.957C386.27 584.877 387.276 585.67 388.097 586.724C389.87 588.661 391.319 591.027 392.355 593.484C393.336 595.973 393.802 598.55 393.874 600.997C393.949 603.481 393.637 605.745 392.772 607.996C392.468 608.746 391.594 608.969 390.822 608.494C390.102 608.052 389.722 607.159 389.919 606.43L389.959 606.283Z" fill="black"/>
<path opacity="0.3" fill-rule="evenodd" clip-rule="evenodd" d="M383.505 608.779C383.91 606.858 384.002 604.507 383.794 602.306C383.561 600.066 383 597.806 382.049 595.671C381.109 593.545 379.987 591.426 378.44 589.554C376.958 587.643 375.198 585.94 373.401 584.237L373.276 584.123C372.655 583.543 372.501 582.613 372.934 582.046C373.341 581.513 374.129 581.493 374.735 581.981C375.775 582.819 376.843 583.629 377.865 584.524C378.808 585.531 379.857 586.417 380.711 587.544C382.554 589.644 384.069 592.127 385.229 594.708C386.328 597.325 386.937 600.057 387.149 602.699C387.365 605.379 387.164 607.865 386.357 610.358C386.095 611.133 385.248 611.408 384.462 610.975C383.727 610.57 383.306 609.685 383.47 608.938L383.505 608.779Z" fill="black"/>
<path opacity="0.3" fill-rule="evenodd" clip-rule="evenodd" d="M377.046 611.276C377.411 609.172 377.409 606.611 377.085 604.213C376.736 601.774 376.057 599.322 374.978 596.995C373.904 594.68 372.669 592.373 371.017 590.312C369.425 588.216 367.566 586.324 365.664 584.437L365.554 584.328C364.95 583.729 364.827 582.8 365.279 582.254C365.709 581.736 366.507 581.752 367.104 582.267C368.186 583.203 369.304 584.104 370.369 585.091C371.348 586.184 372.439 587.163 373.327 588.365C375.241 590.628 376.822 593.228 378.106 595.933C379.321 598.677 380.072 601.565 380.424 604.402C380.779 607.279 380.689 609.985 379.938 612.721C379.72 613.519 378.895 613.848 378.097 613.455C377.345 613.087 376.885 612.212 377.016 611.445L377.046 611.276Z" fill="black"/>
</g>
<path fill-rule="evenodd" clip-rule="evenodd" d="M327.878 568.407C333.279 566.172 338.908 570.366 332.741 574.622C326.574 578.876 324.811 574.86 313.576 584.454C313.092 578.086 322.478 570.642 327.878 568.407Z" fill="black"/>
<path opacity="0.4" fill-rule="evenodd" clip-rule="evenodd" d="M410.131 592.827C410.131 592.827 409.602 594.323 404.306 596.702C399.01 599.08 373.3 606.384 373.3 606.384L373.708 611.687L406.457 600.581C406.457 600.581 410.495 594.866 410.131 592.827Z" fill="black"/>
<circle cx="558.005" cy="318.308" r="7" fill="black"/>
<path d="M527.005 321.808C502.081 323.755 519.505 299.308 522.006 297.808L589.006 271.308L609.006 272.808L626.006 283.308L598.505 275.808C574.505 315.808 559.005 319.308 527.005 321.808Z" fill="black" fill-opacity="0.2"/>
<path d="M571.636 326.308C571.636 337.149 562.847 345.938 552.005 345.938C541.164 345.938 532.375 337.149 532.375 326.308C532.375 315.466 541.164 306.677 552.005 306.677C562.847 306.677 571.636 315.466 571.636 326.308ZM552.005 354.808C567.745 354.808 580.505 342.048 580.505 326.308C580.505 310.568 567.745 297.808 552.005 297.808C536.265 297.808 523.505 310.568 523.505 326.308C523.505 342.048 536.265 354.808 552.005 354.808Z" fill="#FFE288" stroke="black" stroke-width="3"/>
<circle r="3" transform="matrix(1 0 0 -1 558.005 318.308)" fill="white"/>
<path d="M645.998 222.443C645.411 225.704 642.291 227.872 639.03 227.284C635.769 226.697 593.346 212.958 593.346 212.958C593.346 212.958 637.896 214.887 641.157 215.474C644.418 216.062 646.586 219.182 645.998 222.443Z" fill="#E02828"/>
<circle cx="594.35" cy="212.913" r="6" fill="#E02828"/>
<path d="M540.201 203.384C540.789 200.123 543.909 197.956 547.17 198.543C550.431 199.131 592.854 212.869 592.854 212.869C592.854 212.869 548.304 210.94 545.042 210.353C541.781 209.766 539.614 206.646 540.201 203.384Z" fill="#E02828"/>
<path d="M634.006 425.308C650.006 349.308 633.672 306.975 626.506 294.308C622.505 301.808 632.005 322.808 634.006 352.308C636.326 386.526 626.506 412.808 634.006 425.308Z" fill="white"/>
<path fill-rule="evenodd" clip-rule="evenodd" d="M596.435 211.954L588.935 245.958L586.005 245.312L593.505 211.308L596.435 211.954Z" fill="#E02828"/>
<path fill-rule="evenodd" clip-rule="evenodd" d="M560.005 307.197C560.005 307.234 560.005 307.271 560.005 307.308C560.005 307.308 594.005 295.808 607.005 297.808C634.505 305.308 642.005 309.308 642.005 309.308C642.005 309.308 645.005 302.488 645.005 288.742C645.005 257.497 620.616 231.482 591.005 225.865C590.646 225.797 590.328 225.796 590.044 225.85C590.018 225.822 590.005 225.808 590.005 225.808C589.616 225.808 589.228 225.811 588.841 225.818C586.255 225.111 583.018 224.742 579.005 224.742C546.024 224.742 518.87 249.689 515.384 281.742C515.258 281.742 515.132 281.742 515.005 281.742C500.878 289.529 490.563 291.925 467.505 292.308C472.505 299.374 483.005 311.308 526.505 311.308C542.374 311.308 552.853 309.711 560.005 307.197Z" fill="black"/>
<path fill-rule="evenodd" clip-rule="evenodd" d="M307.793 278.508C295.349 295.314 276.771 298.545 252.059 288.201C266.158 278.341 273.118 272.973 272.94 272.095C272.64 270.619 236.747 280.304 230.884 280.747C212.328 282.165 162.51 240.112 162.51 240.112C197.768 227.469 225.45 221.924 245.558 223.475C276.354 225.851 308.43 279.859 307.793 278.508Z" fill="black"/>
<path fill-rule="evenodd" clip-rule="evenodd" d="M183.587 642.36L238.983 283.895L235.005 266.308L280.505 267.308L295.005 300.808C293.424 310.139 285.005 310.808 285.005 310.808C285.005 310.808 286.005 308.308 277.505 300.308C269.005 292.308 259.505 287.311 259.505 287.311L193.359 644.486C189.048 645.869 186.841 645.71 183.587 642.36Z" fill="#CC7910" stroke="black" stroke-width="5"/>
<path fill-rule="evenodd" clip-rule="evenodd" d="M583.005 364.308C586.871 364.308 590.005 361.174 590.005 357.308C590.005 353.442 586.871 350.308 583.005 350.308C579.139 350.308 576.005 353.442 576.005 357.308C576.005 361.174 579.139 364.308 583.005 364.308ZM595.005 376.308C595.005 380.174 591.871 383.308 588.005 383.308C584.139 383.308 581.005 380.174 581.005 376.308C581.005 372.442 584.139 369.308 588.005 369.308C591.871 369.308 595.005 372.442 595.005 376.308ZM595.005 401.308C598.871 401.308 602.005 398.174 602.005 394.308C602.005 390.442 598.871 387.308 595.005 387.308C591.139 387.308 588.005 390.442 588.005 394.308C588.005 398.174 591.139 401.308 595.005 401.308ZM609.005 410.308C609.005 414.174 605.871 417.308 602.005 417.308C598.139 417.308 595.005 414.174 595.005 410.308C595.005 406.442 598.139 403.308 602.005 403.308C605.871 403.308 609.005 406.442 609.005 410.308ZM617.005 425.308C617.005 429.174 613.871 432.308 610.005 432.308C606.139 432.308 603.005 429.174 603.005 425.308C603.005 421.442 606.139 418.308 610.005 418.308C613.871 418.308 617.005 421.442 617.005 425.308Z" fill="#B5B4AC"/>
<mask id="path-63-inside-1" fill="white">
<path fill-rule="evenodd" clip-rule="evenodd" d="M582.005 361.308C585.871 361.308 589.005 358.174 589.005 354.308C589.005 350.442 585.871 347.308 582.005 347.308C578.139 347.308 575.005 350.442 575.005 354.308C575.005 358.174 578.139 361.308 582.005 361.308ZM593.005 372.308C593.005 376.174 589.871 379.308 586.005 379.308C582.139 379.308 579.005 376.174 579.005 372.308C579.005 368.442 582.139 365.308 586.005 365.308C589.871 365.308 593.005 368.442 593.005 372.308ZM592.005 397.308C595.871 397.308 599.005 394.174 599.005 390.308C599.005 386.442 595.871 383.308 592.005 383.308C588.139 383.308 585.005 386.442 585.005 390.308C585.005 394.174 588.139 397.308 592.005 397.308ZM606.005 406.308C606.005 410.174 602.871 413.308 599.005 413.308C595.139 413.308 592.005 410.174 592.005 406.308C592.005 402.442 595.139 399.308 599.005 399.308C602.871 399.308 606.005 402.442 606.005 406.308ZM607.005 429.308C610.871 429.308 614.005 426.174 614.005 422.308C614.005 418.442 610.871 415.308 607.005 415.308C603.139 415.308 600.005 418.442 600.005 422.308C600.005 426.174 603.139 429.308 607.005 429.308ZM647.005 422.308C647.005 426.174 643.871 429.308 640.005 429.308C636.139 429.308 633.005 426.174 633.005 422.308C633.005 418.442 636.139 415.308 640.005 415.308C643.871 415.308 647.005 418.442 647.005 422.308ZM630.005 429.308C630.005 433.174 626.871 436.308 623.005 436.308C619.139 436.308 616.005 433.174 616.005 429.308C616.005 425.442 619.139 422.308 623.005 422.308C626.871 422.308 630.005 425.442 630.005 429.308Z"/>
</mask>
<path fill-rule="evenodd" clip-rule="evenodd" d="M582.005 361.308C585.871 361.308 589.005 358.174 589.005 354.308C589.005 350.442 585.871 347.308 582.005 347.308C578.139 347.308 575.005 350.442 575.005 354.308C575.005 358.174 578.139 361.308 582.005 361.308ZM593.005 372.308C593.005 376.174 589.871 379.308 586.005 379.308C582.139 379.308 579.005 376.174 579.005 372.308C579.005 368.442 582.139 365.308 586.005 365.308C589.871 365.308 593.005 368.442 593.005 372.308ZM592.005 397.308C595.871 397.308 599.005 394.174 599.005 390.308C599.005 386.442 595.871 383.308 592.005 383.308C588.139 383.308 585.005 386.442 585.005 390.308C585.005 394.174 588.139 397.308 592.005 397.308ZM606.005 406.308C606.005 410.174 602.871 413.308 599.005 413.308C595.139 413.308 592.005 410.174 592.005 406.308C592.005 402.442 595.139 399.308 599.005 399.308C602.871 399.308 606.005 402.442 606.005 406.308ZM607.005 429.308C610.871 429.308 614.005 426.174 614.005 422.308C614.005 418.442 610.871 415.308 607.005 415.308C603.139 415.308 600.005 418.442 600.005 422.308C600.005 426.174 603.139 429.308 607.005 429.308ZM647.005 422.308C647.005 426.174 643.871 429.308 640.005 429.308C636.139 429.308 633.005 426.174 633.005 422.308C633.005 418.442 636.139 415.308 640.005 415.308C643.871 415.308 647.005 418.442 647.005 422.308ZM630.005 429.308C630.005 433.174 626.871 436.308 623.005 436.308C619.139 436.308 616.005 433.174 616.005 429.308C616.005 425.442 619.139 422.308 623.005 422.308C626.871 422.308 630.005 425.442 630.005 429.308Z" fill="#FFE288"/>
<path d="M586.005 354.308C586.005 356.517 584.214 358.308 582.005 358.308V364.308C587.528 364.308 592.005 359.831 592.005 354.308H586.005ZM582.005 350.308C584.214 350.308 586.005 352.099 586.005 354.308H592.005C592.005 348.785 587.528 344.308 582.005 344.308V350.308ZM578.005 354.308C578.005 352.099 579.796 350.308 582.005 350.308V344.308C576.482 344.308 572.005 348.785 572.005 354.308H578.005ZM582.005 358.308C579.796 358.308 578.005 356.517 578.005 354.308H572.005C572.005 359.831 576.482 364.308 582.005 364.308V358.308ZM586.005 382.308C591.528 382.308 596.005 377.831 596.005 372.308H590.005C590.005 374.517 588.214 376.308 586.005 376.308V382.308ZM576.005 372.308C576.005 377.831 580.482 382.308 586.005 382.308V376.308C583.796 376.308 582.005 374.517 582.005 372.308H576.005ZM586.005 362.308C580.482 362.308 576.005 366.785 576.005 372.308H582.005C582.005 370.099 583.796 368.308 586.005 368.308V362.308ZM596.005 372.308C596.005 366.785 591.528 362.308 586.005 362.308V368.308C588.214 368.308 590.005 370.099 590.005 372.308H596.005ZM596.005 390.308C596.005 392.517 594.214 394.308 592.005 394.308V400.308C597.528 400.308 602.005 395.831 602.005 390.308H596.005ZM592.005 386.308C594.214 386.308 596.005 388.099 596.005 390.308H602.005C602.005 384.785 597.528 380.308 592.005 380.308V386.308ZM588.005 390.308C588.005 388.099 589.796 386.308 592.005 386.308V380.308C586.482 380.308 582.005 384.785 582.005 390.308H588.005ZM592.005 394.308C589.796 394.308 588.005 392.517 588.005 390.308H582.005C582.005 395.831 586.482 400.308 592.005 400.308V394.308ZM599.005 416.308C604.528 416.308 609.005 411.831 609.005 406.308H603.005C603.005 408.517 601.214 410.308 599.005 410.308V416.308ZM589.005 406.308C589.005 411.831 593.482 416.308 599.005 416.308V410.308C596.796 410.308 595.005 408.517 595.005 406.308H589.005ZM599.005 396.308C593.482 396.308 589.005 400.785 589.005 406.308H595.005C595.005 404.099 596.796 402.308 599.005 402.308V396.308ZM609.005 406.308C609.005 400.785 604.528 396.308 599.005 396.308V402.308C601.214 402.308 603.005 404.099 603.005 406.308H609.005ZM611.005 422.308C611.005 424.517 609.214 426.308 607.005 426.308V432.308C612.528 432.308 617.005 427.831 617.005 422.308H611.005ZM607.005 418.308C609.214 418.308 611.005 420.099 611.005 422.308H617.005C617.005 416.785 612.528 412.308 607.005 412.308V418.308ZM603.005 422.308C603.005 420.099 604.796 418.308 607.005 418.308V412.308C601.482 412.308 597.005 416.785 597.005 422.308H603.005ZM607.005 426.308C604.796 426.308 603.005 424.517 603.005 422.308H597.005C597.005 427.831 601.482 432.308 607.005 432.308V426.308ZM640.005 432.308C645.528 432.308 650.005 427.831 650.005 422.308H644.005C644.005 424.517 642.214 426.308 640.005 426.308V432.308ZM630.005 422.308C630.005 427.831 634.482 432.308 640.005 432.308V426.308C637.796 426.308 636.005 424.517 636.005 422.308H630.005ZM640.005 412.308C634.482 412.308 630.005 416.785 630.005 422.308H636.005C636.005 420.099 637.796 418.308 640.005 418.308V412.308ZM650.005 422.308C650.005 416.785 645.528 412.308 640.005 412.308V418.308C642.214 418.308 644.005 420.099 644.005 422.308H650.005ZM623.005 439.308C628.528 439.308 633.005 434.831 633.005 429.308H627.005C627.005 431.517 625.214 433.308 623.005 433.308V439.308ZM613.005 429.308C613.005 434.831 617.482 439.308 623.005 439.308V433.308C620.796 433.308 619.005 431.517 619.005 429.308H613.005ZM623.005 419.308C617.482 419.308 613.005 423.785 613.005 429.308H619.005C619.005 427.099 620.796 425.308 623.005 425.308V419.308ZM633.005 429.308C633.005 423.785 628.528 419.308 623.005 419.308V425.308C625.214 425.308 627.005 427.099 627.005 429.308H633.005Z" fill="black" mask="url(#path-63-inside-1)"/>
</svg>
