<svg width="1193" height="1024" viewBox="0 0 1193 1024" fill="none" xmlns="http://www.w3.org/2000/svg">
<g clip-path="url(#clip0_1075_98)">
<path d="M29.8618 704.273L34.34 666.209H41.0572L29.8618 704.273Z" fill="black"/>
<path d="M653.815 100.471C591.859 96.3008 549.823 127.091 535.891 137.042L735.914 258.698C734.422 205.956 731.436 105.696 653.815 100.471Z" fill="black"/>
<path d="M520.217 154.209C501.559 187.048 529.285 203.154 532.905 219.888L708.028 118.962C659.006 99.4463 558.649 86.5677 520.217 154.209Z" fill="black"/>
<path d="M174.48 78.3298C329.992 222.388 441.769 284.569 509.813 264.873C560.368 250.24 731.999 217.788 726.959 412.451C726.251 439.808 653.779 618.79 634.892 642.043C619.164 661.407 563.118 651.678 555.636 693.75C513.005 707.428 385.034 702.442 262.543 467.308C215.011 376.066 183.281 285.871 170.165 192.651C165.543 159.801 166.982 121.694 174.48 78.3298Z" fill="black"/>
<path fill-rule="evenodd" clip-rule="evenodd" d="M597.221 675.242L478.061 641.274C415.59 625.33 378.532 611.51 366.888 599.813C349.421 582.268 338.469 563.737 346.861 557.687C360.851 547.599 381.034 538.811 407.409 531.322C393.441 532.036 387.287 531.316 388.946 529.162C392.711 524.276 412.748 509.819 449.058 485.791C463.19 471.691 471.862 462.411 475.075 457.95C479.158 452.282 452.864 454.389 437.071 454.389C456.64 427.35 478.061 415.601 503.055 409.648C508.765 405.017 514.821 398.452 521.222 389.954C510.685 387.535 502.887 386.326 497.826 386.326C504.714 374.343 523.141 358.139 553.107 337.714L531.848 343.74C539.168 330.218 546.638 319.783 554.257 312.436C561.877 305.088 569.222 300.194 576.293 297.754C590.11 266.348 598.74 245.348 602.183 234.752C605.626 224.157 605.901 217.749 603.009 215.53L552.527 155.937L707.717 171.246L720.241 213.171L749.616 390.646L757.565 698.722L674.611 738.535C665.232 746.495 655.654 744.702 652.352 740.081L597.221 675.242Z" fill="#CECDC4"/>
<path fill-rule="evenodd" clip-rule="evenodd" d="M519.797 170.808C532.336 130.463 626.184 99.7236 667.926 113.287C695.755 122.329 711.273 154.713 714.48 210.441C717.949 226.446 713.045 299.344 702.994 342.331C706.05 348.893 717.252 367.963 716.119 376.694C710.48 367.695 703.389 364.982 703.389 364.982L698.537 394.234C698.537 394.234 714.279 428.001 712.53 434.291C707.082 429.911 698.804 425.798 697.901 425.355L697.821 425.315C697.821 425.315 696.554 461.976 695.714 470.687C704.675 482.314 717.654 520.66 717.654 520.66C717.654 520.66 693.295 494.206 693.503 506.572C693.713 518.925 698.329 564.812 698.329 564.812C698.329 564.812 712.631 590.703 719.29 623.299C711.832 614.148 703.726 605.1 698.689 599.594C696.859 597.593 693.508 598.717 693.305 601.426C690.076 644.596 675.275 709.253 664.313 729.048C652.723 749.976 606.848 748.987 603.307 737.744C600.702 729.473 590.507 691.389 559.566 667.704C585.574 701.23 588.396 752.465 588.396 752.465C576.861 751.879 565.702 750.735 554.967 749.157L535.274 702.99L544.319 747.428C525.815 744.141 508.694 739.622 493.225 734.558L510.004 690.61L484.013 731.414C469.335 726.198 456.34 720.584 445.291 715.245L477.176 680.924L435.76 710.471C414.787 699.583 403.02 690.878 403.02 690.878C403.02 690.878 437.617 654.757 478.997 643.016C451.813 641.651 358.505 615.708 358.978 601.426C359.122 597.074 346.887 566.402 358.978 558.856C385.125 542.538 415.942 535.096 434.751 526.033C436.996 524.952 434.935 520.225 431.939 520.85C424.594 522.381 414.081 524.698 403.932 527.385C428.478 504.929 455.265 492.389 455.265 492.389C455.265 492.389 485.971 457.979 493.404 448.109C500.84 438.225 465.585 445.31 465.585 445.31C465.585 445.31 498.625 421.916 512.708 417.777C517.149 410.237 537.674 379.832 537.674 379.832C537.674 379.832 527.89 378.086 520.495 378.448C522.777 372.331 555.361 354.265 555.361 354.265L568.631 327.748C568.631 327.748 561.298 325.776 551.447 329.741C555.661 322.011 582.264 309.655 582.264 309.655C582.264 309.655 592.645 290.519 597.631 278.539C602.278 267.38 607.538 246.794 608.234 244.038L608.245 243.994L608.202 244.044C606.1 246.124 578.017 250.014 558.444 237.099L557.822 236.681C532.571 219.388 516.566 181.159 519.797 170.808Z" fill="black"/>
<path d="M540.369 359.458C550.725 352.207 557.822 333.621 557.822 333.621L562.752 329.143C562.752 329.143 553.795 334.367 546.332 330.635C550.546 322.906 579.171 307.498 579.171 307.498C579.171 307.498 589.112 288.131 594.098 276.152C598.745 264.992 607.538 246.794 608.234 244.038L602.274 243.994L608.202 244.044C606.1 246.124 578.017 250.014 558.444 237.099L557.822 236.681C532.571 219.388 516.567 181.159 519.797 170.808C532.336 130.463 626.184 99.7237 667.926 113.287C695.755 122.329 717.033 152.22 720.241 207.948C722.947 254.968 730.69 304.974 710.458 346.809C709.844 348.078 716.134 349.838 717.195 351.896C718.451 354.329 719.576 358.597 721.944 360.951C730.96 369.913 718.748 378.117 718.748 378.117C718.049 392.727 698.596 394.537 698.596 394.537C692.625 372.146 666.503 359.458 666.503 359.458C666.503 359.458 650.449 378.138 652.322 393.044C643.188 386.729 632.458 372.41 626.946 359.458C615.781 368.82 611.589 374.911 607.541 387.073C597.967 379.293 592.861 374.591 586.643 362.443C577.798 371.996 571.298 375.679 557.822 380.203C561.845 372.826 574.532 351.685 573.955 345.277C573.955 345.277 544.714 361.504 540.369 359.458Z" fill="#CECDC4"/>
<path fill-rule="evenodd" clip-rule="evenodd" d="M591.121 224.561C608.541 224.561 622.663 210.439 622.663 193.019C622.663 175.599 608.541 161.478 591.121 161.478C573.701 161.478 559.579 175.599 559.579 193.019C559.579 210.439 573.701 224.561 591.121 224.561ZM591.121 233.322C613.38 233.322 631.424 215.278 631.424 193.019C631.424 170.76 613.38 152.716 591.121 152.716C568.862 152.716 550.818 170.76 550.818 193.019C550.818 215.278 568.862 233.322 591.121 233.322Z" fill="#B5B4AC"/>
<path fill-rule="evenodd" clip-rule="evenodd" d="M985.944 779.621C977.245 752.372 910.732 543.71 912.649 540.358C920.446 526.729 933.274 514.349 939.836 499.259L965.64 583.452C986.485 651.462 1038.65 705.207 1105.78 728.051C1106.99 728.46 1108.17 727.306 1107.8 726.088L909.92 73.4799C907.252 64.8007 896.5 61.8192 889.743 67.8869C889.743 67.8869 844.851 105.858 852.226 154.213C865.543 241.505 826.66 302.373 791.282 297.497C767.695 294.245 744.519 268.702 721.756 220.867C722.595 234.548 724.03 249.718 723.285 263.432C721.865 289.545 717.947 315.793 712.961 342.458C728.284 364.32 733.388 395.211 734.933 417.507C728.832 403.912 716.016 392.777 710.713 384.658C710.466 388.134 710.186 391.74 709.925 395.351C727.281 425.931 732.608 456.977 734.397 482.817C727.161 466.704 712.88 452.241 706.852 443.645C706.589 448.304 706.334 453.056 706.098 457.852C720.211 493.481 735.725 538.718 738.143 573.527C727.468 549.786 711.194 532.539 703.636 523.944C703.561 526.849 703.488 529.742 703.405 532.668C717.659 573.969 741.177 645.778 744.528 693.96C730.111 661.88 712.631 635.647 703.337 626.219C704.074 661.211 688.588 711.881 675.36 739.678C674.924 740.596 675.544 741.603 676.56 741.641C685.239 741.96 719.474 742.16 752.877 727.746C787.734 765.888 824.993 788.002 854.128 801.584C855.355 802.155 856.653 800.991 856.244 799.7C849.63 778.86 814.515 667.711 817.169 665.275C825.115 657.981 843.834 636.983 843.834 636.983C864.673 704.972 916.815 758.707 983.921 781.56C985.133 781.974 986.335 780.844 985.944 779.621Z" fill="black"/>
<path fill-rule="evenodd" clip-rule="evenodd" d="M570.395 173.414C573.828 162.848 585.21 157.04 595.769 160.471C600.553 162.025 603.298 167.501 605.719 171.507C608.642 176.345 610.604 180.088 608.726 185.869C605.292 196.437 593.892 202.238 583.315 198.802C572.756 195.371 566.961 183.982 570.395 173.414Z" fill="white"/>
<path fill-rule="evenodd" clip-rule="evenodd" d="M566.245 231.76C581.871 228.089 612.382 231.627 615.469 244.694C616.177 247.697 614.187 250.71 611.255 251.673C607.569 252.883 603.357 254.526 598.85 256.451C598.929 256.196 598.966 256.067 598.966 256.067C598.966 256.067 526.432 280.816 511.604 298.589C496.771 316.36 492.731 341.897 489.226 345.587L450.143 269.914C442.695 255.337 438.711 228.347 453.121 220.282L509.096 187.369L509.311 187.359C509.311 187.359 541.882 164.312 566.245 231.76Z" fill="#CC7910"/>
<path fill-rule="evenodd" clip-rule="evenodd" d="M532.002 227.973C525.926 232.774 516.147 213.546 513.342 207.651C513.027 206.992 513.776 205.765 514.562 205.64C519.622 204.828 532.806 203.06 536.393 206.032C540.882 209.726 539.158 222.33 532.002 227.973Z" fill="#854605"/>
<path fill-rule="evenodd" clip-rule="evenodd" d="M531.032 222.788C526.18 226.687 517.526 209.001 518.137 207.789C518.748 206.577 531.173 205.217 534.148 207.736C537.139 210.247 535.882 218.896 531.032 222.788Z" fill="black"/>
<path fill-rule="evenodd" clip-rule="evenodd" d="M614.911 242.029C614.911 242.029 608.414 245.178 545.404 267.992C534.331 272 519.599 291.106 519.599 291.106L615.058 250.487C615.632 250.244 616.091 249.821 616.341 249.254C617.422 246.804 617.062 244.301 614.911 242.029Z" fill="#854205"/>
<path fill-rule="evenodd" clip-rule="evenodd" d="M606.84 243.965C609.288 242.827 611.359 241.268 612.675 239.953L615.841 243.119C614.171 244.789 611.671 246.658 608.727 248.026C605.786 249.393 602.26 250.325 598.599 249.916C596.544 249.686 595.057 249.909 593.872 250.338C592.671 250.774 591.642 251.471 590.549 252.395C590.092 252.781 589.607 253.229 589.086 253.712C587.26 255.402 584.978 257.513 581.823 258.862C577.823 260.571 575.178 260.705 572.954 260.547C572.463 260.512 572.037 260.472 571.654 260.436C570.309 260.308 569.502 260.232 568.28 260.618C566.526 261.173 564.596 262.343 562.253 263.918C561.77 264.243 561.271 264.584 560.757 264.936C558.869 266.226 556.779 267.653 554.552 268.917C551.619 270.581 548.487 271.076 545.939 271.478C545.747 271.508 545.559 271.538 545.374 271.567C542.551 272.021 540.656 272.453 539.268 273.694C538.138 274.705 537.698 275.529 537.08 276.683C536.817 277.175 536.522 277.727 536.128 278.379C534.823 280.537 532.904 282.677 528.524 284.96C523.723 287.462 520.236 291.728 518.138 298.016L513.89 296.599C516.289 289.407 520.452 284.117 526.454 280.989C530.175 279.049 531.454 277.454 532.296 276.062C532.48 275.758 532.667 275.406 532.872 275.021C533.585 273.682 534.513 271.939 536.283 270.357C538.784 268.119 541.991 267.575 544.664 267.146C544.803 267.123 544.942 267.101 545.08 267.079C547.765 266.65 550.141 266.271 552.342 265.022C554.39 263.86 556.276 262.572 558.143 261.297C558.681 260.93 559.217 260.564 559.754 260.202C562.074 258.642 564.488 257.121 566.93 256.349C569.099 255.663 570.934 255.85 572.397 256C572.705 256.031 572.997 256.061 573.272 256.08C574.846 256.192 576.772 256.15 580.063 254.744C582.44 253.728 583.955 252.332 585.672 250.749C586.291 250.179 586.937 249.584 587.658 248.975C588.954 247.879 590.447 246.816 592.346 246.128C594.261 245.434 596.45 245.17 599.096 245.465C601.703 245.757 604.39 245.104 606.84 243.965Z" fill="black"/>
<path fill-rule="evenodd" clip-rule="evenodd" d="M646.594 712.116L672.969 765.99C672.969 765.99 687.27 759.541 701.357 767.769C716.216 760.737 737.659 763.966 750.048 776C762.438 788.032 767.712 807.499 767.712 807.499C767.712 807.499 774.579 855.279 754.153 871.362C749.081 875.356 748.329 880.441 739.156 861.748C729.982 843.055 650.841 834.985 650.841 834.985C650.841 834.985 613.75 852.715 601.846 830.615C595.395 814.75 600.714 797.485 600.714 797.485C600.714 797.485 605.74 776 617.529 771.74C611.865 745.367 603.605 721.354 615.413 713.183C623.468 707.609 642.041 695.061 646.594 712.116Z" fill="#010103"/>
<path fill-rule="evenodd" clip-rule="evenodd" d="M666.421 781.209C666.421 781.209 647.898 769.43 634.5 772.74C621.102 776.05 614.29 786.497 610.013 797.811C605.736 809.127 617.546 837.481 623.954 840.316C630.362 843.151 634.5 834.072 634.5 811.01C634.5 797.811 668.81 797.189 668.81 797.189L666.421 781.209Z" fill="#CC7910"/>
<path fill-rule="evenodd" clip-rule="evenodd" d="M689.409 781.209C689.409 781.209 710.247 769.43 725.322 772.74C740.394 776.05 748.058 786.497 752.869 797.811C757.681 809.127 744.394 837.481 737.186 840.316C729.977 843.151 725.322 834.072 725.322 811.01C725.322 797.811 686.723 797.189 686.723 797.189L689.409 781.209Z" fill="#CC7910"/>
<path fill-rule="evenodd" clip-rule="evenodd" d="M195.553 1018.25C195.553 1021.68 199.868 1024.46 205.191 1024.46H987.5C992.823 1024.46 997.139 1021.68 997.139 1018.25V806.765C997.139 803.335 992.823 800.553 987.5 800.553H205.191C199.868 800.553 195.553 803.335 195.553 806.765V1018.25Z" fill="black"/>
<path fill-rule="evenodd" clip-rule="evenodd" d="M741.143 788.371C735.729 783.126 726.328 785.534 731.529 793.579C736.732 801.623 738.55 801.382 747.911 812.457C752.181 805 746.556 793.618 741.143 788.371Z" fill="#010103"/>
<path fill-rule="evenodd" clip-rule="evenodd" d="M642.725 721.345C642.725 721.345 665.954 775.566 679.259 786.38C668.923 797.194 639.897 799.015 624.79 791.391C627.102 771.034 622.204 745.898 618.497 730.815C616.16 721.306 623.46 711.598 633.139 712.504C637.53 712.917 641.354 715.223 642.725 721.345Z" fill="#CC7910"/>
<path fill-rule="evenodd" clip-rule="evenodd" d="M656.901 781.209C656.901 781.209 677.632 769.43 692.629 772.74C707.626 776.05 715.25 786.497 720.035 797.811C724.821 809.127 711.605 837.481 704.432 840.316C697.26 843.151 692.629 834.072 692.629 811.01C692.629 798.6 646.419 800.218 646.419 800.218L656.901 781.209Z" fill="#CC7910"/>
<path fill-rule="evenodd" clip-rule="evenodd" d="M713.592 810.474C713.592 802.663 703.669 799.51 701.365 804.217C699.06 808.922 701.817 817.627 700.157 833.355C709.044 830.838 713.592 818.284 713.592 810.474Z" fill="#010103" fill-opacity="0.1"/>
<path opacity="0.1" fill-rule="evenodd" clip-rule="evenodd" d="M720.468 800.628C720.468 800.628 717.057 786.204 703.143 779.173C709.301 777.807 715.55 780.307 715.55 780.307C734.503 784.476 738.968 803.501 738.968 803.501L720.468 800.628Z" fill="#010103"/>
<path fill-rule="evenodd" clip-rule="evenodd" d="M628.507 800.661L683.737 803.5C683.737 803.5 644.662 771.896 628.507 800.661Z" fill="#010103" fill-opacity="0.1"/>
<g opacity="0.3">
<path opacity="0.3" fill-rule="evenodd" clip-rule="evenodd" d="M614.202 729.923C615.763 726.935 617.689 724.557 620.164 722.428C622.597 720.331 625.553 718.628 628.837 717.79C632.116 717.037 635.652 717.14 638.738 718.162C640.366 718.492 641.731 719.334 643.214 719.926C644.579 720.716 645.831 721.643 647.121 722.492C648.142 723.169 648.425 724.543 647.751 725.563C647.125 726.509 645.9 726.821 644.913 726.327L644.64 726.19C642.222 724.985 639.848 723.808 637.397 723.27C634.955 722.575 632.504 722.775 630.208 723.333C627.883 723.851 625.653 725.014 623.678 726.621C621.764 728.227 619.861 730.278 618.486 732.258L618.359 732.44C617.592 733.545 616.075 733.816 614.971 733.05C613.951 732.341 613.641 730.995 614.202 729.923Z" fill="#010103"/>
<path opacity="0.3" fill-rule="evenodd" clip-rule="evenodd" d="M615.785 740.027C617.694 736.902 619.979 734.492 622.805 732.4C625.585 730.336 628.84 728.707 632.375 727.937C635.905 727.264 639.643 727.368 642.996 728.362C644.745 728.68 646.26 729.51 647.883 730.084C649.396 730.861 650.808 731.782 652.252 732.624C653.3 733.25 653.643 734.606 653.016 735.654C652.435 736.632 651.217 736.998 650.205 736.537L649.946 736.416C647.218 735.207 644.527 734.036 641.76 733.493C639.001 732.799 636.225 732.987 633.591 733.509C630.931 734 628.37 735.153 626.059 736.762C623.811 738.371 621.574 740.47 619.938 742.554L619.797 742.736C618.982 743.802 617.46 744.005 616.394 743.191C615.409 742.434 615.164 741.068 615.785 740.027Z" fill="#010103"/>
<path opacity="0.3" fill-rule="evenodd" clip-rule="evenodd" d="M617.367 750.132C619.627 746.87 622.27 744.426 625.447 742.37C628.576 740.339 632.13 738.789 635.915 738.085C639.695 737.491 643.637 737.597 647.252 738.562C649.123 738.871 650.79 739.686 652.55 740.242C654.214 741.01 655.783 741.922 657.385 742.755C658.458 743.331 658.863 744.671 658.285 745.746C657.745 746.754 656.534 747.173 655.498 746.746L655.252 746.642C652.214 745.431 649.206 744.267 646.124 743.714C643.046 743.023 639.947 743.201 636.977 743.686C633.981 744.149 631.086 745.294 628.44 746.903C625.857 748.514 623.285 750.662 621.39 752.85L621.234 753.033C620.373 754.059 618.845 754.193 617.819 753.333C616.865 752.529 616.689 751.144 617.367 750.132Z" fill="#010103"/>
<path opacity="0.3" fill-rule="evenodd" clip-rule="evenodd" d="M618.948 760.235C621.558 756.839 624.561 754.36 628.087 752.339C631.563 750.344 635.419 748.869 639.452 748.232C643.484 747.719 647.629 747.826 651.509 748.761C653.5 749.061 655.32 749.862 657.219 750.4C659.031 751.155 660.761 752.059 662.516 752.883C663.618 753.413 664.082 754.734 663.552 755.837C663.054 756.875 661.85 757.348 660.791 756.957L660.556 756.867C657.21 755.654 653.887 754.496 650.486 753.937C647.092 753.248 643.671 753.416 640.36 753.861C637.03 754.298 633.804 755.433 630.821 757.044C627.905 758.657 624.998 760.853 622.841 763.146L622.671 763.331C621.765 764.316 620.229 764.38 619.242 763.474C618.321 762.625 618.212 761.217 618.948 760.235Z" fill="#010103"/>
<path opacity="0.3" fill-rule="evenodd" clip-rule="evenodd" d="M620.53 770.34C623.489 766.805 626.852 764.295 630.728 762.308C634.553 760.349 638.708 758.951 642.992 758.379C647.274 757.946 651.622 758.055 655.766 758.961C657.879 759.248 659.85 760.037 661.886 760.558C663.849 761.302 665.737 762.2 667.646 763.014C668.775 763.495 669.301 764.799 668.819 765.928C668.364 766.998 667.168 767.525 666.083 767.167L665.862 767.093C662.205 765.875 658.566 764.726 654.848 764.16C651.137 763.472 647.391 763.629 643.743 764.038C640.079 764.448 636.522 765.574 633.203 767.186C629.952 768.801 626.711 771.045 624.295 773.442L624.107 773.627C623.156 774.575 621.615 774.569 620.669 773.615C619.778 772.718 619.737 771.292 620.53 770.34Z" fill="#010103"/>
</g>
<path fill-rule="evenodd" clip-rule="evenodd" d="M713.166 808.627C711.814 801.506 703.433 798.559 703.158 807.857C702.882 817.157 706.39 812.454 705.675 831.862C712.815 827.996 714.518 815.745 713.166 808.627Z" fill="#010103"/>
<path fill-rule="evenodd" clip-rule="evenodd" d="M621.044 715.43C621.044 715.43 619.474 717.205 620.201 725.84C620.929 734.476 629.999 773.327 629.999 773.327L622.779 776.632L613.58 725.84C613.58 725.84 618.118 716.432 621.044 715.43Z" fill="#010103" fill-opacity="0.1"/>
<path fill-rule="evenodd" clip-rule="evenodd" d="M243.519 561.918C224.15 561.918 211.127 573.855 203.464 584.767C199.861 589.897 199.612 600.339 201.766 610.996C204.284 623.455 209.822 635.485 214.185 638.597C216.188 640.026 217.932 640.5 219.435 640.465C221.279 640.422 222.995 639.677 224.568 637.919C226.525 635.73 228.357 631.204 230.76 624.651C232.454 620.031 234.54 614.336 237.454 607.792C239.225 603.815 241.33 601.2 243.781 599.775C246.373 598.269 249.266 598.206 252.189 598.88C265.865 602.038 280.385 620.01 280.385 620.01C280.385 620.01 286.551 627.643 290.906 636.844L280.881 588.063C280.881 588.063 262.885 561.918 243.519 561.918Z" fill="#CC7910"/>
<path fill-rule="evenodd" clip-rule="evenodd" d="M283.954 585.946C283.954 585.946 283.955 585.947 280.881 588.063L283.955 585.947C284.238 586.359 284.436 586.823 284.536 587.312L294.562 636.093C294.942 637.943 293.88 639.785 292.089 640.383C290.298 640.982 288.342 640.148 287.534 638.44C285.468 634.075 282.951 630.042 280.93 627.08C279.924 625.605 279.051 624.41 278.434 623.59C278.126 623.18 277.882 622.864 277.718 622.654C277.636 622.549 277.574 622.471 277.534 622.421L277.491 622.367L277.483 622.357L277.482 622.356L277.481 622.354L277.454 622.321C277.442 622.307 277.427 622.288 277.408 622.265C277.39 622.243 277.369 622.218 277.345 622.189C277.246 622.068 277.094 621.887 276.893 621.652C276.492 621.181 275.898 620.496 275.14 619.662C273.621 617.989 271.461 615.73 268.896 613.382C263.626 608.558 257.184 603.864 251.35 602.517C248.984 601.97 247.152 602.133 245.656 603.002C244.134 603.887 242.457 605.73 240.864 609.309C238.012 615.715 235.966 621.295 234.273 625.91L234.264 625.936C233.061 629.216 231.963 632.097 230.899 634.456C229.861 636.757 228.725 638.869 227.35 640.407C225.147 642.87 222.48 644.126 219.523 644.196C217.087 644.253 214.567 643.453 212.018 641.635C210.389 640.473 208.927 638.707 207.652 636.792C206.341 634.822 205.067 632.45 203.885 629.841C201.521 624.625 199.422 618.234 198.108 611.735C196.983 606.171 196.466 600.575 196.73 595.611C196.988 590.752 198.018 586.029 200.41 582.623C208.416 571.222 222.425 558.186 243.519 558.186C254.731 558.186 264.994 565.636 272.025 572.278C275.636 575.688 278.602 579.086 280.664 581.626C281.697 582.899 282.509 583.964 283.068 584.718C283.347 585.094 283.564 585.394 283.713 585.603C283.787 585.708 283.845 585.79 283.886 585.848L283.933 585.916L283.948 585.937L283.954 585.946ZM280.385 620.01C282.301 618.463 282.953 617.936 283.174 617.758L283.174 617.756C282.953 617.935 282.303 618.461 280.385 620.01ZM283.111 617.449C283.105 617.442 283.099 617.435 283.092 617.427C282.973 617.282 282.799 617.075 282.576 616.813C282.129 616.288 281.482 615.544 280.665 614.644C279.034 612.848 276.71 610.417 273.935 607.877C268.526 602.925 260.87 597.055 253.029 595.244C249.549 594.441 245.595 594.406 241.907 596.549C238.527 598.512 235.993 601.9 234.045 606.274C231.091 612.909 228.973 618.684 227.284 623.292L227.256 623.367C226.056 626.64 225.038 629.298 224.095 631.388C223.127 633.534 222.369 634.78 221.787 635.431C220.844 636.485 220.077 636.717 219.348 636.734C218.778 636.748 217.81 636.599 216.352 635.559C215.799 635.164 214.933 634.26 213.864 632.655C212.832 631.104 211.746 629.106 210.683 626.761C208.557 622.07 206.629 616.217 205.424 610.257C204.394 605.165 203.959 600.211 204.183 596.007C204.412 591.699 205.308 588.635 206.518 586.912C213.838 576.488 225.876 565.65 243.519 565.65C251.673 565.65 260.092 571.273 266.9 577.703C270.209 580.829 272.952 583.968 274.869 586.33C275.826 587.508 276.571 588.486 277.072 589.162C277.19 589.321 277.294 589.463 277.384 589.587L283.111 617.449Z" fill="black"/>
<path fill-rule="evenodd" clip-rule="evenodd" d="M209.997 603.759C212.321 596.506 222.285 595.934 221.599 606.044C220.913 616.152 219.101 616.497 216.112 631.134C208.311 624.747 207.673 611.013 209.997 603.759Z" fill="#010103"/>
<path fill-rule="evenodd" clip-rule="evenodd" d="M210.752 605.273C212.174 597.79 221.994 596.009 222.545 606.127C223.096 616.243 221.34 616.807 220.157 631.699C211.636 626.31 209.329 612.756 210.752 605.273Z" fill="#010103" fill-opacity="0.1"/>
<path fill-rule="evenodd" clip-rule="evenodd" d="M300.339 570.029C300.339 570.029 299.064 554.42 285.049 546.115C222.053 517.342 205.912 592.697 223.895 593.902C226.646 594.086 252.387 582.747 254.892 583.021C262.356 583.837 264.073 594.475 278.029 612.129C282.48 625.51 251.873 635.172 249.053 644.774C245.846 655.697 261.408 659.04 276.312 659.04C293.98 659.04 311.094 646.974 311.094 646.974C311.094 646.974 324.107 633.564 322.13 621.208C347.95 613.361 372.958 608.923 374.395 594.652C375.376 584.919 377.37 562.621 360.243 566.918L300.339 570.029Z" fill="#010103"/>
<path fill-rule="evenodd" clip-rule="evenodd" d="M290.88 584.292C290.88 584.292 310.163 594.782 313.763 608.105C317.364 621.43 311.529 632.451 303.707 641.677C295.883 650.904 265.359 654.321 259.774 650.092C254.188 645.862 260.121 637.84 280.292 626.659C291.835 620.26 275.746 589.95 275.746 589.95L290.88 584.292Z" fill="#CC7910"/>
<path fill-rule="evenodd" clip-rule="evenodd" d="M354.727 575.995C354.727 575.995 296.042 581.965 280.133 575.571C275.686 589.853 288.165 616.123 302.158 625.642C318.842 613.749 343.201 605.848 358.19 601.776C367.639 599.211 372.592 588.12 367.107 580.094C364.616 576.452 360.745 574.226 354.727 575.995Z" fill="#CC7910"/>
<path fill-rule="evenodd" clip-rule="evenodd" d="M295.408 592.462C295.408 592.462 295.687 568.669 285.542 557.195C275.397 545.721 262.575 544.137 250.365 545.448C238.154 546.759 219.745 572.032 220.733 579.662C221.721 587.29 231.9 586.929 252.071 575.748C263.614 569.35 283.926 611.016 283.926 611.016L295.408 592.462Z" fill="#CC7910"/>
<g opacity="0.3">
<path opacity="0.3" fill-rule="evenodd" clip-rule="evenodd" d="M356.762 602.177C357.827 600.015 358.698 597.356 359.175 594.903C359.625 592.396 359.561 589.882 358.885 587.597C358.261 585.318 357.246 583.077 355.454 581.279C353.796 579.396 351.615 577.891 349.389 576.36L349.14 576.188C348.13 575.495 347.875 574.114 348.569 573.107C349.21 572.173 350.441 571.884 351.421 572.398C352.788 573.113 354.207 573.76 355.56 574.57C356.796 575.58 358.195 576.364 359.272 577.631C361.664 579.833 363.467 582.876 364.397 586.11C365.259 589.389 365.2 592.799 364.545 595.943C363.884 599.142 362.738 601.977 360.881 604.792C360.141 605.914 358.63 606.224 357.507 605.483C356.473 604.798 356.13 603.46 356.663 602.375L356.762 602.177Z" fill="#010103"/>
<path opacity="0.3" fill-rule="evenodd" clip-rule="evenodd" d="M347.053 605.898C348.083 603.457 348.835 600.482 349.151 597.736C349.438 594.935 349.204 592.136 348.345 589.571C347.524 587.014 346.343 584.496 344.398 582.418C342.581 580.263 340.254 578.477 337.873 576.677L337.645 576.51C336.661 575.784 336.455 574.398 337.185 573.415C337.862 572.5 339.113 572.257 340.071 572.822C341.513 573.67 342.998 574.466 344.412 575.412C345.7 576.553 347.16 577.476 348.288 578.852C350.782 581.3 352.685 584.52 353.807 587.934C354.847 591.399 355.002 595.034 354.545 598.467C354.085 601.955 353.084 605.121 351.277 608.307C350.602 609.461 349.117 609.849 347.962 609.173C346.89 608.547 346.476 607.225 346.961 606.114L347.053 605.898Z" fill="#010103"/>
<path opacity="0.3" fill-rule="evenodd" clip-rule="evenodd" d="M337.344 609.62C338.339 606.901 338.971 603.61 339.127 600.57C339.252 597.475 338.85 594.389 337.804 591.545C336.786 588.711 335.439 585.915 333.343 583.559C331.365 581.129 328.891 579.064 326.358 576.995L326.15 576.833C325.194 576.071 325.037 574.679 325.799 573.724C326.514 572.827 327.787 572.632 328.725 573.245C330.235 574.231 331.788 575.171 333.264 576.254C334.605 577.525 336.125 578.586 337.303 580.074C339.9 582.768 341.902 586.164 343.217 589.758C344.436 593.41 344.803 597.271 344.544 600.991C344.286 604.766 343.429 608.264 341.672 611.822C341.061 613.01 339.601 613.476 338.414 612.865C337.305 612.297 336.824 610.99 337.257 609.85L337.344 609.62Z" fill="#010103"/>
<path opacity="0.3" fill-rule="evenodd" clip-rule="evenodd" d="M327.635 613.341C328.596 610.344 329.107 606.738 329.104 603.405C329.067 600.015 328.495 596.644 327.263 593.519C326.049 590.408 324.536 587.334 322.287 584.699C320.15 581.996 317.528 579.651 314.842 577.311L314.655 577.156C313.726 576.36 313.617 574.961 314.414 574.031C315.164 573.156 316.458 573.01 317.377 573.667C318.953 574.795 320.578 575.877 322.118 577.096C323.508 578.496 325.092 579.697 326.319 581.294C329.019 584.235 331.12 587.807 332.626 591.583C334.024 595.421 334.604 599.508 334.544 603.514C334.487 607.579 333.776 611.407 332.069 615.336C331.521 616.558 330.089 617.103 328.868 616.556C327.724 616.045 327.171 614.754 327.554 613.589L327.635 613.341Z" fill="#010103"/>
<path opacity="0.3" fill-rule="evenodd" clip-rule="evenodd" d="M317.926 617.063C318.851 613.787 319.242 609.865 319.079 606.238C318.88 602.555 318.14 598.898 316.722 595.494C315.311 592.105 313.633 588.753 311.231 585.84C308.934 582.863 306.165 580.237 303.326 577.628L303.161 577.477C302.258 576.648 302.199 575.244 303.027 574.341C303.816 573.484 305.126 573.391 306.03 574.091C307.667 575.367 309.368 576.583 310.969 577.938C312.413 579.467 314.058 580.806 315.334 582.517C318.137 585.702 320.338 589.451 322.036 593.407C323.613 597.431 324.404 601.744 324.545 606.038C324.687 610.392 324.121 614.55 322.464 618.852C321.983 620.105 320.574 620.731 319.32 620.246C318.14 619.793 317.517 618.52 317.85 617.327L317.926 617.063Z" fill="#010103"/>
</g>
<path fill-rule="evenodd" clip-rule="evenodd" d="M246.183 553.027C254.246 549.69 262.647 555.951 253.442 562.303C244.237 568.653 241.605 562.659 224.835 576.98C224.112 567.474 238.123 556.363 246.183 553.027Z" fill="#010103"/>
<path fill-rule="evenodd" clip-rule="evenodd" d="M245.474 554.476C253.143 550.314 262.153 555.663 253.662 562.943C245.171 570.22 241.927 564.534 226.746 580.53C225.033 571.152 237.805 558.636 245.474 554.476Z" fill="#010103" fill-opacity="0.1"/>
<path fill-rule="evenodd" clip-rule="evenodd" d="M368.964 590.971C368.964 590.971 368.173 593.205 360.268 596.755C352.362 600.306 313.984 611.208 313.984 611.208L314.594 619.124L363.478 602.547C363.478 602.547 369.507 594.016 368.964 590.971Z" fill="#010103" fill-opacity="0.1"/>
<path d="M290.803 987.619C277.667 987.619 268.307 983.624 262.725 975.633C257.142 967.642 254.351 956.312 254.351 941.644V896.982C254.351 881.985 257.361 870.546 263.381 862.665C269.512 854.783 279.801 850.842 294.251 850.842C308.153 850.842 318.114 854.236 324.135 861.023C330.155 867.809 333.166 877.388 333.166 889.757V898.296H304.431V887.458C304.431 882.204 303.829 878.263 302.625 875.636C301.421 872.9 298.739 871.531 294.579 871.531C290.31 871.531 287.519 873.009 286.205 875.965C285.001 878.92 284.399 883.025 284.399 888.279V949.854C284.399 955.108 285.165 959.268 286.698 962.333C288.34 965.288 291.24 966.766 295.4 966.766C303.063 966.766 306.894 961.019 306.894 949.525V933.927H294.908V916.686H333.33V985.649H313.955L312.313 974.648C308.153 983.296 300.983 987.619 290.803 987.619Z" fill="#CC7910"/>
<path d="M351.725 852.648H388.341C402.9 852.648 413.902 855.221 421.345 860.366C428.789 865.511 432.511 874.651 432.511 887.787C432.511 896.654 431.361 903.714 429.063 908.968C426.764 914.223 422.495 918.328 416.255 921.283L434.481 985.649H404.105L389.491 926.045H381.117V985.649H351.725V852.648ZM389.327 909.133C395.238 909.133 399.343 907.6 401.642 904.535C404.05 901.361 405.254 896.654 405.254 890.414C405.254 884.393 404.159 879.905 401.97 876.95C399.781 873.885 396.004 872.352 390.64 872.352H381.117V909.133H389.327Z" fill="#CC7910"/>
<path d="M468.899 852.648H502.395L527.189 985.649H500.096L495.663 957.571H476.123L471.526 985.649H443.776L468.899 852.648ZM492.872 940.002L485.811 888.115L478.751 940.002H492.872Z" fill="#CC7910"/>
<path d="M540.617 852.648H574.278C585.772 852.648 594.748 854.072 601.207 856.918C607.665 859.764 612.208 864.252 614.835 870.382C617.572 876.402 618.94 884.503 618.94 894.683V942.958C618.94 953.247 617.572 961.457 614.835 967.587C612.208 973.717 607.665 978.26 601.207 981.216C594.858 984.171 585.991 985.649 574.606 985.649H540.617V852.648ZM574.606 965.288C578.876 965.288 581.995 964.686 583.966 963.482C586.046 962.169 587.359 960.363 587.906 958.064C588.454 955.656 588.727 952.153 588.727 947.555V889.593C588.727 885.324 588.399 882.095 587.742 879.905C587.195 877.607 585.881 875.91 583.802 874.815C581.831 873.721 578.711 873.173 574.442 873.173H570.009V965.288H574.606Z" fill="#CC7910"/>
<path d="M674.922 987.619C660.472 987.619 650.182 983.843 644.052 976.29C638.032 968.627 635.021 957.626 635.021 943.286V895.34C635.021 880.672 638.032 869.616 644.052 862.172C650.073 854.619 660.363 850.842 674.922 850.842C688.824 850.842 698.676 854.181 704.477 860.858C710.279 867.536 713.18 877.005 713.18 889.265V900.759H684.445V887.458C684.445 882.314 683.898 878.373 682.803 875.636C681.709 872.9 679.081 871.531 674.922 871.531C670.762 871.531 668.025 873.009 666.712 875.965C665.398 878.811 664.741 882.806 664.741 887.951V950.511C664.741 955.765 665.398 959.815 666.712 962.661C668.135 965.398 670.871 966.766 674.922 966.766C678.972 966.766 681.544 965.398 682.639 962.661C683.843 959.815 684.445 955.765 684.445 950.511V936.554H713.18V948.048C713.18 960.527 710.279 970.269 704.477 977.275C698.676 984.171 688.824 987.619 674.922 987.619Z" fill="white"/>
<path d="M729.514 852.648H758.905V985.649H729.514V852.648Z" fill="white"/>
<path d="M772.498 852.648H797.62L811.905 942.958L825.205 852.648H851.806L827.504 985.649H796.471L772.498 852.648Z" fill="white"/>
<path d="M899.827 987.619C887.129 987.619 877.66 984.281 871.421 977.603C865.291 970.816 862.007 960.089 861.569 945.42L886.691 941.644C886.801 950.073 887.786 956.148 889.647 959.87C891.617 963.482 894.518 965.288 898.349 965.288C903.275 965.288 905.738 962.059 905.738 955.601C905.738 950.456 904.534 946.023 902.126 942.301C899.827 938.579 896.16 934.583 891.125 930.314L879.631 920.298C873.938 915.482 869.505 910.392 866.331 905.028C863.266 899.554 861.733 893.096 861.733 885.652C861.733 874.487 865.017 865.894 871.585 859.873C878.262 853.853 887.403 850.842 899.006 850.842C911.595 850.842 920.133 854.509 924.621 861.844C929.219 869.178 931.682 878.099 932.01 888.608L906.723 891.728C906.504 884.831 905.848 879.905 904.753 876.95C903.768 873.885 901.524 872.352 898.021 872.352C895.503 872.352 893.533 873.447 892.11 875.636C890.796 877.716 890.139 880.07 890.139 882.697C890.139 887.185 891.125 890.961 893.095 894.026C895.175 897.091 898.459 900.594 902.947 904.535L913.948 914.223C920.516 919.806 925.606 925.717 929.219 931.956C932.831 938.196 934.637 945.585 934.637 954.123C934.637 960.363 933.159 966.055 930.204 971.2C927.358 976.235 923.307 980.231 918.053 983.186C912.799 986.142 906.723 987.619 899.827 987.619Z" fill="white"/>
<path fill-rule="evenodd" clip-rule="evenodd" d="M713.098 808.51C711.746 801.39 703.365 798.443 703.09 807.741C702.814 817.04 706.322 812.337 705.607 831.745C712.747 827.88 714.45 815.629 713.098 808.51Z" fill="black"/>
<ellipse cx="589.629" cy="179.585" rx="10.449" ry="10.449" fill="black"/>
<path d="M543.354 184.809C506.15 187.716 532.159 151.223 535.891 148.984L635.903 109.427L665.757 111.666L691.133 127.34L650.083 116.145C614.258 175.853 591.121 181.078 543.354 184.809Z" fill="black" fill-opacity="0.2"/>
<path fill-rule="evenodd" clip-rule="evenodd" d="M580.672 223.068C598.092 223.068 612.214 208.946 612.214 191.527C612.214 174.107 598.092 159.985 580.672 159.985C563.252 159.985 549.131 174.107 549.131 191.527C549.131 208.946 563.252 223.068 580.672 223.068ZM580.672 231.83C602.931 231.83 620.976 213.785 620.976 191.527C620.976 169.268 602.931 151.223 580.672 151.223C558.413 151.223 540.369 169.268 540.369 191.527C540.369 213.785 558.413 231.83 580.672 231.83Z" fill="#FFE288"/>
<path fill-rule="evenodd" clip-rule="evenodd" d="M580.672 218.59C595.619 218.59 607.736 206.473 607.736 191.527C607.736 176.58 595.619 164.463 580.672 164.463C565.726 164.463 553.609 176.58 553.609 191.527C553.609 206.473 565.726 218.59 580.672 218.59ZM625.454 191.527C625.454 216.259 605.405 236.308 580.672 236.308C555.94 236.308 535.891 216.259 535.891 191.527C535.891 166.795 555.94 146.745 580.672 146.745C605.405 146.745 625.454 166.795 625.454 191.527ZM612.214 191.527C612.214 208.947 598.092 223.068 580.672 223.068C563.252 223.068 549.131 208.947 549.131 191.527C549.131 174.107 563.252 159.985 580.672 159.985C598.092 159.985 612.214 174.107 612.214 191.527ZM620.976 191.527C620.976 213.785 602.931 231.83 580.672 231.83C558.414 231.83 540.369 213.785 540.369 191.527C540.369 169.268 558.414 151.223 580.672 151.223C602.931 151.223 620.976 169.268 620.976 191.527Z" fill="black"/>
<ellipse rx="4.47815" ry="4.47813" transform="matrix(1 0 0 -1 589.629 179.585)" fill="white"/>
<path d="M720.977 36.4858C720.1 41.3539 715.443 44.5893 710.575 43.7124C705.707 42.8354 642.382 22.3276 642.382 22.3276C642.382 22.3276 708.883 25.2067 713.751 26.0836C718.619 26.9605 721.854 31.6178 720.977 36.4858Z" fill="#E02828"/>
<circle cx="643.881" cy="22.2614" r="8.95627" fill="#E02828"/>
<path d="M563.053 8.03714C563.93 3.16909 568.587 -0.0663511 573.455 0.810587C578.323 1.68753 641.648 22.1954 641.648 22.1954C641.648 22.1954 575.147 19.3163 570.279 18.4394C565.411 17.5624 562.176 12.9052 563.053 8.03714Z" fill="#E02828"/>
<path d="M703.075 339.305C726.959 225.859 702.578 162.667 691.88 143.76C685.909 154.955 700.09 186.302 703.075 230.337C706.539 281.415 691.88 320.646 703.075 339.305Z" fill="white"/>
<path fill-rule="evenodd" clip-rule="evenodd" d="M646.993 20.8295L635.797 71.5872L631.424 70.6225L642.62 19.8647L646.993 20.8295Z" fill="#E02828"/>
<path fill-rule="evenodd" clip-rule="evenodd" d="M592.614 162.999C592.614 163.055 592.614 163.11 592.614 163.165C592.614 163.165 643.366 145.999 662.771 148.984C703.821 160.18 715.016 166.15 715.016 166.15C715.016 166.15 719.494 155.971 719.494 135.452C719.494 88.8122 683.088 49.9789 638.888 41.5945C638.352 41.4928 637.878 41.4912 637.454 41.5721C637.415 41.5301 637.395 41.5091 637.395 41.5091C636.814 41.5091 636.235 41.5141 635.658 41.524C631.798 40.4693 626.966 39.918 620.975 39.918C571.745 39.918 531.211 77.1565 526.007 125.003C525.819 125.003 525.631 125.003 525.442 125.003C504.354 136.626 488.957 140.204 454.538 140.774C462.002 151.322 477.675 169.136 542.608 169.136C566.295 169.136 581.937 166.752 592.614 162.999Z" fill="black"/>
<path fill-rule="evenodd" clip-rule="evenodd" d="M216.134 120.175C197.559 145.261 169.827 150.084 132.939 134.644C153.985 119.926 164.375 111.913 164.108 110.603C163.661 108.399 110.082 122.856 101.332 123.517C73.6327 125.633 -0.731934 62.8605 -0.731934 62.8605C51.8978 43.9888 93.22 35.7109 123.234 38.0269C169.205 41.5741 217.085 122.192 216.134 120.175Z" fill="black"/>
<path fill-rule="evenodd" clip-rule="evenodd" d="M30.7305 663.301L113.421 128.216L107.483 101.964L175.401 103.457L197.046 153.462C194.686 167.391 182.119 168.389 182.119 168.389C182.119 168.389 183.611 164.658 170.923 152.716C158.235 140.774 144.053 133.315 144.053 133.315L45.3163 666.474C38.8825 668.539 35.5868 668.302 30.7305 663.301Z" fill="#CC7910"/>
<path fill-rule="evenodd" clip-rule="evenodd" d="M102.789 98.1282L177.875 99.7783L200.909 152.995L200.725 154.086C199.335 162.289 194.83 166.909 190.567 169.378C188.488 170.583 186.508 171.256 185.045 171.631C184.309 171.819 183.691 171.936 183.24 172.006C183.014 172.042 182.828 172.066 182.689 172.082C182.619 172.09 182.561 172.096 182.515 172.101L182.455 172.106L182.432 172.108L182.418 172.109C182.416 172.109 182.414 172.11 182.118 168.389L182.414 172.11L176.42 172.586L178.368 167.718C178.3 167.502 178.174 167.166 177.941 166.7C177.007 164.832 174.559 161.263 168.365 155.433C162.23 149.659 155.703 144.942 150.687 141.66C149.23 140.707 147.906 139.878 146.761 139.183L48.5793 669.346L46.4563 670.028C43.131 671.095 39.9379 671.814 36.7322 671.203C33.4205 670.571 30.7275 668.655 28.053 665.901L26.7583 664.568L109.624 128.348L102.789 98.1282ZM144.053 133.315C145.79 130.012 145.791 130.013 145.791 130.013L145.793 130.014L145.808 130.022L145.846 130.042L145.983 130.115C146.101 130.179 146.27 130.27 146.488 130.39C146.923 130.63 147.55 130.981 148.339 131.439C149.916 132.353 152.144 133.694 154.773 135.415C160.02 138.848 166.928 143.831 173.481 149.999C179.974 156.11 183.125 160.378 184.616 163.362C184.702 163.532 184.782 163.7 184.858 163.864C185.477 163.623 186.146 163.314 186.826 162.92C189.274 161.502 192.026 158.915 193.161 153.882L172.927 107.135L112.176 105.8L117.217 128.085L34.7148 661.951C36.1759 663.229 37.2223 663.698 38.1307 663.872C39.0738 664.052 40.243 663.989 42.0655 663.533L141.306 127.654L145.791 130.013L144.053 133.315Z" fill="black"/>
<path fill-rule="evenodd" clip-rule="evenodd" d="M626.946 248.25C632.717 248.25 637.395 243.571 637.395 237.801C637.395 232.03 632.717 227.352 626.946 227.352C621.175 227.352 616.497 232.03 616.497 237.801C616.497 243.571 621.175 248.25 626.946 248.25ZM644.859 266.162C644.859 271.933 640.18 276.611 634.41 276.611C628.639 276.611 623.961 271.933 623.961 266.162C623.961 260.391 628.639 255.713 634.41 255.713C640.18 255.713 644.859 260.391 644.859 266.162ZM644.859 303.48C650.629 303.48 655.308 298.802 655.308 293.031C655.308 287.26 650.629 282.582 644.859 282.582C639.088 282.582 634.41 287.26 634.41 293.031C634.41 298.802 639.088 303.48 644.859 303.48ZM665.756 316.914C665.756 322.685 661.078 327.363 655.308 327.363C649.537 327.363 644.859 322.685 644.859 316.914C644.859 311.143 649.537 306.465 655.308 306.465C661.078 306.465 665.756 311.143 665.756 316.914ZM677.698 339.305C677.698 345.076 673.02 349.754 667.249 349.754C661.478 349.754 656.8 345.076 656.8 339.305C656.8 333.534 661.478 328.856 667.249 328.856C673.02 328.856 677.698 333.534 677.698 339.305Z" fill="#B5B4AC"/>
<path fill-rule="evenodd" clip-rule="evenodd" d="M625.453 243.771C631.224 243.771 635.902 239.093 635.902 233.322C635.902 227.552 631.224 222.873 625.453 222.873C619.683 222.873 615.004 227.552 615.004 233.322C615.004 239.093 619.683 243.771 625.453 243.771ZM641.873 260.191C641.873 265.962 637.195 270.64 631.424 270.64C625.653 270.64 620.975 265.962 620.975 260.191C620.975 254.42 625.653 249.742 631.424 249.742C637.195 249.742 641.873 254.42 641.873 260.191ZM640.381 297.509C646.151 297.509 650.829 292.831 650.829 287.06C650.829 281.289 646.151 276.611 640.381 276.611C634.61 276.611 629.932 281.289 629.932 287.06C629.932 292.831 634.61 297.509 640.381 297.509ZM661.278 310.943C661.278 316.714 656.6 321.392 650.829 321.392C645.059 321.392 640.381 316.714 640.381 310.943C640.381 305.173 645.059 300.494 650.829 300.494C656.6 300.494 661.278 305.173 661.278 310.943ZM662.771 345.276C668.542 345.276 673.22 340.598 673.22 334.827C673.22 329.056 668.542 324.378 662.771 324.378C657 324.378 652.322 329.056 652.322 334.827C652.322 340.598 657 345.276 662.771 345.276ZM722.48 334.827C722.48 340.598 717.802 345.276 712.031 345.276C706.26 345.276 701.582 340.598 701.582 334.827C701.582 329.056 706.26 324.378 712.031 324.378C717.802 324.378 722.48 329.056 722.48 334.827ZM697.104 345.276C697.104 351.047 692.425 355.725 686.655 355.725C680.884 355.725 676.206 351.047 676.206 345.276C676.206 339.505 680.884 334.827 686.655 334.827C692.425 334.827 697.104 339.505 697.104 345.276Z" fill="#FFE288"/>
<path fill-rule="evenodd" clip-rule="evenodd" d="M625.453 239.293C628.751 239.293 631.424 236.62 631.424 233.322C631.424 230.025 628.751 227.352 625.453 227.352C622.156 227.352 619.483 230.025 619.483 233.322C619.483 236.62 622.156 239.293 625.453 239.293ZM631.424 266.162C634.722 266.162 637.395 263.489 637.395 260.191C637.395 256.894 634.722 254.22 631.424 254.22C628.127 254.22 625.453 256.894 625.453 260.191C625.453 263.489 628.127 266.162 631.424 266.162ZM640.381 293.031C643.678 293.031 646.351 290.358 646.351 287.06C646.351 283.762 643.678 281.089 640.381 281.089C637.083 281.089 634.41 283.762 634.41 287.06C634.41 290.358 637.083 293.031 640.381 293.031ZM650.829 316.914C654.127 316.914 656.8 314.241 656.8 310.943C656.8 307.646 654.127 304.973 650.829 304.973C647.532 304.973 644.859 307.646 644.859 310.943C644.859 314.241 647.532 316.914 650.829 316.914ZM662.771 340.798C666.069 340.798 668.742 338.124 668.742 334.827C668.742 331.529 666.069 328.856 662.771 328.856C659.474 328.856 656.8 331.529 656.8 334.827C656.8 338.124 659.474 340.798 662.771 340.798ZM712.031 340.798C715.328 340.798 718.002 338.124 718.002 334.827C718.002 331.529 715.328 328.856 712.031 328.856C708.733 328.856 706.06 331.529 706.06 334.827C706.06 338.124 708.733 340.798 712.031 340.798ZM686.655 351.247C689.952 351.247 692.625 348.573 692.625 345.276C692.625 341.978 689.952 339.305 686.655 339.305C683.357 339.305 680.684 341.978 680.684 345.276C680.684 348.573 683.357 351.247 686.655 351.247ZM635.902 233.322C635.902 239.093 631.224 243.771 625.453 243.771C619.683 243.771 615.004 239.093 615.004 233.322C615.004 227.552 619.683 222.873 625.453 222.873C631.224 222.873 635.902 227.552 635.902 233.322ZM631.424 270.64C637.195 270.64 641.873 265.962 641.873 260.191C641.873 254.42 637.195 249.742 631.424 249.742C625.653 249.742 620.975 254.42 620.975 260.191C620.975 265.962 625.653 270.64 631.424 270.64ZM650.829 287.06C650.829 292.831 646.151 297.509 640.381 297.509C634.61 297.509 629.932 292.831 629.932 287.06C629.932 281.289 634.61 276.611 640.381 276.611C646.151 276.611 650.829 281.289 650.829 287.06ZM650.829 321.392C656.6 321.392 661.278 316.714 661.278 310.943C661.278 305.173 656.6 300.494 650.829 300.494C645.059 300.494 640.381 305.173 640.381 310.943C640.381 316.714 645.059 321.392 650.829 321.392ZM673.22 334.827C673.22 340.598 668.542 345.276 662.771 345.276C657 345.276 652.322 340.598 652.322 334.827C652.322 329.056 657 324.378 662.771 324.378C668.542 324.378 673.22 329.056 673.22 334.827ZM712.031 345.276C717.802 345.276 722.48 340.598 722.48 334.827C722.48 329.056 717.802 324.378 712.031 324.378C706.26 324.378 701.582 329.056 701.582 334.827C701.582 340.598 706.26 345.276 712.031 345.276ZM686.655 355.725C692.425 355.725 697.104 351.047 697.104 345.276C697.104 339.505 692.425 334.827 686.655 334.827C680.884 334.827 676.206 339.505 676.206 345.276C676.206 351.047 680.884 355.725 686.655 355.725Z" fill="black"/>
</g>
<defs>
<clipPath id="clip0_1075_98">
<rect width="1192.68" height="1024" fill="white"/>
</clipPath>
</defs>
</svg>
