<svg width="956" height="814" viewBox="0 0 956 814" fill="none" xmlns="http://www.w3.org/2000/svg">
<path d="M116.005 592.808L119.005 567.308H123.505L116.005 592.808Z" fill="black"/>
<path d="M534.005 188.308C492.499 185.514 464.339 206.141 455.005 212.808L589.005 294.308C588.005 258.974 586.005 191.808 534.005 188.308Z" fill="black"/>
<path d="M444.505 224.308C432.005 246.308 450.58 257.097 453.005 268.308L570.323 200.695C537.483 187.621 470.252 178.994 444.505 224.308Z" fill="black"/>
<path d="M212.889 173.475C317.069 269.982 391.951 311.639 437.536 298.444C471.403 288.641 586.383 266.901 583.006 397.31C582.532 415.637 533.981 535.541 521.329 551.118C510.792 564.091 473.246 557.573 468.233 585.758C439.673 594.921 353.943 591.581 271.884 434.06C240.041 372.935 218.785 312.511 209.998 250.061C206.902 228.054 207.865 202.525 212.889 173.475Z" fill="black"/>
<path fill-rule="evenodd" clip-rule="evenodd" d="M529.122 597.984L546.792 634.075C546.792 634.075 556.372 629.755 565.809 635.267C575.764 630.556 590.129 632.719 598.428 640.781C606.728 648.842 610.262 661.883 610.262 661.883C610.262 661.883 614.862 693.892 601.178 704.666C597.781 707.342 597.277 710.748 591.132 698.226C584.986 685.703 531.967 680.296 531.967 680.296C531.967 680.296 507.12 692.174 499.145 677.369C494.823 666.741 498.386 655.175 498.386 655.175C498.386 655.175 501.753 640.781 509.651 637.928C505.856 620.259 500.323 604.173 508.233 598.699C513.63 594.964 526.072 586.558 529.122 597.984Z" fill="black"/>
<path fill-rule="evenodd" clip-rule="evenodd" d="M496.092 573.36L416.264 550.604C374.413 539.922 349.587 530.664 341.787 522.828C330.085 511.074 322.748 498.66 328.37 494.606C337.743 487.849 351.264 481.961 368.933 476.944C359.575 477.422 355.452 476.94 356.564 475.497C359.086 472.224 372.509 462.539 396.834 446.442C406.301 436.996 412.111 430.779 414.264 427.791C416.999 423.994 399.384 425.405 388.804 425.405C401.913 407.291 416.264 399.42 433.008 395.432C436.833 392.329 440.89 387.932 445.179 382.239C438.12 380.618 432.895 379.808 429.505 379.808C434.119 371.78 446.464 360.925 466.539 347.242L452.297 351.279C457.201 342.22 462.205 335.23 467.31 330.307C472.414 325.385 477.335 322.107 482.072 320.472C491.328 299.433 497.11 285.364 499.416 278.266C501.722 271.167 501.907 266.875 499.969 265.388L466.15 225.466L570.116 235.721L578.505 263.808L598.185 382.702L603.51 589.089L547.937 615.761C541.654 621.093 535.237 619.892 533.026 616.796L496.092 573.36Z" fill="#CECDC4"/>
<path fill-rule="evenodd" clip-rule="evenodd" d="M444.224 235.428C452.624 208.4 515.495 187.807 543.459 196.893C562.102 202.951 572.498 224.646 574.646 261.979C576.97 272.701 573.685 321.537 566.952 350.335C568.999 354.731 576.503 367.507 575.744 373.356C571.966 367.327 567.216 365.51 567.216 365.51L563.966 385.106C563.966 385.106 574.512 407.727 573.34 411.941C569.69 409.007 564.145 406.252 563.54 405.954L563.486 405.928C563.486 405.928 562.637 430.488 562.074 436.324C568.077 444.113 576.772 469.802 576.772 469.802C576.772 469.802 560.454 452.079 560.593 460.364C560.734 468.639 563.827 499.38 563.827 499.38C563.827 499.38 573.408 516.725 577.869 538.562C572.872 532.431 567.442 526.37 564.067 522.681C562.842 521.341 560.597 522.093 560.461 523.908C558.298 552.829 548.382 596.144 541.039 609.405C533.274 623.425 502.541 622.763 500.169 615.231C498.424 609.69 491.594 584.176 470.866 568.31C488.289 590.769 490.18 625.093 490.18 625.093C482.453 624.7 474.977 623.934 467.785 622.876L454.592 591.948L460.652 621.719C448.256 619.517 436.786 616.489 426.422 613.097L437.664 583.655L420.251 610.99C410.419 607.496 401.713 603.735 394.311 600.158L415.671 577.166L387.926 596.96C373.875 589.666 365.993 583.834 365.993 583.834C365.993 583.834 389.169 559.636 416.891 551.77C398.68 550.856 336.171 533.477 336.488 523.908C336.584 520.993 328.388 500.445 336.488 495.39C354.004 484.458 374.649 479.473 387.25 473.401C388.754 472.677 387.373 469.51 385.366 469.929C380.445 470.955 373.402 472.507 366.603 474.307C383.047 459.263 400.992 450.862 400.992 450.862C400.992 450.862 421.563 427.81 426.543 421.198C431.524 414.577 407.906 419.323 407.906 419.323C407.906 419.323 430.04 403.651 439.475 400.878C442.45 395.827 456.2 375.458 456.2 375.458C456.2 375.458 449.646 374.288 444.691 374.53C446.22 370.433 468.049 358.33 468.049 358.33L476.939 340.566C476.939 340.566 472.026 339.244 465.427 341.901C468.25 336.722 486.072 328.445 486.072 328.445C486.072 328.445 493.026 315.625 496.367 307.6C499.48 300.124 503.004 286.332 503.47 284.487L503.477 284.457L503.448 284.491C502.04 285.884 483.227 288.49 470.114 279.838L469.698 279.558C452.782 267.973 442.06 242.363 444.224 235.428Z" fill="black"/>
<path d="M458.005 361.809C464.944 356.951 469.698 344.5 469.698 344.5L473 341.5C473 341.5 467 345 462 342.5C464.823 337.322 484 327 484 327C484 327 490.659 314.025 494 306C497.113 298.524 503.004 286.332 503.47 284.487L499.477 284.457L503.448 284.491C502.04 285.884 483.227 288.49 470.114 279.838L469.698 279.558C452.782 267.973 442.06 242.363 444.224 235.428C452.624 208.4 515.495 187.807 543.459 196.893C562.102 202.951 576.357 222.976 578.505 260.309C580.318 291.809 585.505 325.309 571.952 353.335C571.541 354.185 575.754 355.364 576.465 356.743C577.306 358.373 578.06 361.232 579.646 362.809C585.686 368.813 577.505 374.309 577.505 374.309C577.037 384.097 564.005 385.309 564.005 385.309C560.005 370.309 542.505 361.809 542.505 361.809C542.505 361.809 531.751 374.323 533.005 384.309C526.886 380.078 519.698 370.486 516.005 361.809C508.526 368.081 505.717 372.161 503.005 380.309C496.591 375.097 493.171 371.947 489.005 363.809C483.08 370.209 478.725 372.676 469.698 375.707C472.392 370.764 480.892 356.601 480.505 352.309C480.505 352.309 460.916 363.18 458.005 361.809Z" fill="#CECDC4"/>
<path fill-rule="evenodd" clip-rule="evenodd" d="M492.005 271.438C503.675 271.438 513.136 261.978 513.136 250.308C513.136 238.638 503.675 229.177 492.005 229.177C480.335 229.177 470.875 238.638 470.875 250.308C470.875 261.978 480.335 271.438 492.005 271.438ZM492.005 277.308C506.917 277.308 519.005 265.22 519.005 250.308C519.005 235.396 506.917 223.308 492.005 223.308C477.094 223.308 465.005 235.396 465.005 250.308C465.005 265.22 477.094 277.308 492.005 277.308Z" fill="#B5B4AC"/>
<path fill-rule="evenodd" clip-rule="evenodd" d="M756.506 643.285C750.678 625.031 706.12 485.244 707.404 482.998C712.627 473.868 721.221 465.574 725.618 455.465L742.904 511.868C756.869 557.429 791.814 593.433 836.788 608.738C837.595 609.011 838.386 608.238 838.139 607.423L705.576 170.226C703.789 164.411 696.586 162.414 692.059 166.479C692.059 166.479 661.985 191.917 666.926 224.311C675.846 282.79 649.798 323.566 626.098 320.3C610.296 318.122 594.77 301.01 579.521 268.964C580.082 278.129 581.044 288.292 580.545 297.479C579.593 314.973 576.969 332.557 573.629 350.42C583.894 365.066 587.313 385.761 588.348 400.697C584.261 391.589 575.675 384.13 572.123 378.691C571.957 381.02 571.77 383.436 571.595 385.855C583.222 406.341 586.79 427.139 587.989 444.45C583.142 433.655 573.574 423.966 569.536 418.207C569.36 421.329 569.189 424.512 569.031 427.725C578.485 451.594 588.879 481.899 590.499 505.218C583.347 489.314 572.445 477.76 567.382 472.002C567.331 473.948 567.282 475.886 567.227 477.846C576.776 505.515 592.531 553.621 594.776 585.899C585.118 564.408 573.408 546.834 567.182 540.518C567.675 563.96 557.301 597.905 548.439 616.526C548.147 617.142 548.562 617.816 549.243 617.842C555.057 618.056 577.992 618.19 600.369 608.533C623.721 634.085 648.681 648.9 668.2 657.999C669.022 658.382 669.891 657.602 669.617 656.737C665.186 642.776 641.662 568.315 643.44 566.683C648.763 561.796 661.303 547.729 661.303 547.729C675.264 593.276 710.195 629.274 755.151 644.584C755.963 644.862 756.768 644.105 756.506 643.285Z" fill="black"/>
<path fill-rule="evenodd" clip-rule="evenodd" d="M478.121 237.174C480.421 230.096 488.046 226.205 495.119 228.503C498.324 229.544 500.163 233.213 501.785 235.896C503.743 239.137 505.057 241.645 503.799 245.518C501.499 252.597 493.862 256.484 486.776 254.182C479.702 251.883 475.82 244.254 478.121 237.174Z" fill="white"/>
<path fill-rule="evenodd" clip-rule="evenodd" d="M475.34 276.261C485.808 273.802 506.248 276.172 508.316 284.926C508.791 286.937 507.458 288.956 505.494 289.601C503.024 290.412 500.202 291.512 497.183 292.802C497.236 292.631 497.261 292.545 497.261 292.545C497.261 292.545 448.669 309.124 438.735 321.031C428.798 332.936 426.092 350.044 423.744 352.517L397.561 301.821C392.571 292.056 389.902 273.975 399.556 268.572L437.055 246.522L437.199 246.516C437.199 246.516 459.019 231.076 475.34 276.261Z" fill="#CC7910"/>
<path fill-rule="evenodd" clip-rule="evenodd" d="M452.4 273.724C448.33 276.94 441.778 264.059 439.899 260.11C439.688 259.668 440.19 258.846 440.717 258.763C444.107 258.219 452.939 257.034 455.342 259.025C458.349 261.5 457.194 269.944 452.4 273.724Z" fill="#854605"/>
<path fill-rule="evenodd" clip-rule="evenodd" d="M451.75 270.25C448.5 272.863 442.703 261.014 443.112 260.202C443.521 259.39 451.845 258.479 453.838 260.167C455.841 261.849 454.999 267.643 451.75 270.25Z" fill="black"/>
<path fill-rule="evenodd" clip-rule="evenodd" d="M507.943 283.141C507.943 283.141 503.591 285.25 461.379 300.534C453.96 303.219 444.091 316.019 444.091 316.019L508.042 288.807C508.426 288.644 508.733 288.361 508.901 287.981C509.625 286.339 509.384 284.663 507.943 283.141Z" fill="#854205"/>
<path d="M507.505 282.81C505.505 284.81 501.38 287.402 497.182 286.933C490.883 286.23 490.071 290.951 485.187 293.038C480.303 295.125 479.062 293.275 476.251 294.164C473.441 295.053 470.431 297.77 466.767 299.848C463.103 301.927 458.873 300.905 456.268 303.236C453.663 305.566 454.804 307.741 449.377 310.571C445.758 312.457 443.196 315.658 441.69 320.173" stroke="black" stroke-width="3"/>
<path fill-rule="evenodd" clip-rule="evenodd" d="M542.405 644.271C542.405 644.271 529.996 636.38 521.02 638.598C512.044 640.815 507.481 647.814 504.616 655.393C501.751 662.974 509.662 681.969 513.955 683.868C518.248 685.767 521.02 679.685 521.02 664.235C521.02 655.393 544.005 654.976 544.005 654.976L542.405 644.271Z" fill="#CC7910"/>
<path fill-rule="evenodd" clip-rule="evenodd" d="M557.805 644.271C557.805 644.271 571.765 636.38 581.864 638.598C591.961 640.815 597.095 647.814 600.318 655.393C603.542 662.974 594.641 681.969 589.812 683.868C584.982 685.767 581.864 679.685 581.864 664.235C581.864 655.393 556.005 654.976 556.005 654.976L557.805 644.271Z" fill="#CC7910"/>
<path fill-rule="evenodd" clip-rule="evenodd" d="M227.005 803.146C227.005 805.445 229.896 807.308 233.462 807.308H757.548C761.114 807.308 764.005 805.445 764.005 803.146V661.47C764.005 659.172 761.114 657.308 757.548 657.308H233.462C229.896 657.308 227.005 659.172 227.005 661.47V803.146Z" fill="black"/>
<path d="M290.815 782.628C282.015 782.628 275.745 779.951 272.005 774.598C268.265 769.245 266.395 761.655 266.395 751.828V721.908C266.395 711.861 268.412 704.198 272.445 698.918C276.552 693.638 283.445 690.998 293.125 690.998C302.439 690.998 309.112 693.271 313.145 697.818C317.179 702.365 319.195 708.781 319.195 717.068V722.788H299.945V715.528C299.945 712.008 299.542 709.368 298.735 707.608C297.929 705.775 296.132 704.858 293.345 704.858C290.485 704.858 288.615 705.848 287.735 707.828C286.929 709.808 286.525 712.558 286.525 716.078V757.328C286.525 760.848 287.039 763.635 288.065 765.688C289.165 767.668 291.109 768.658 293.895 768.658C299.029 768.658 301.595 764.808 301.595 757.108V746.658H293.565V735.108H319.305V781.308H306.325L305.225 773.938C302.439 779.731 297.635 782.628 290.815 782.628ZM331.629 692.208H356.159C365.912 692.208 373.282 693.931 378.269 697.378C383.255 700.825 385.749 706.948 385.749 715.748C385.749 721.688 384.979 726.418 383.439 729.938C381.899 733.458 379.039 736.208 374.859 738.188L387.069 781.308H366.719L356.929 741.378H351.319V781.308H331.629V692.208ZM356.819 730.048C360.779 730.048 363.529 729.021 365.069 726.968C366.682 724.841 367.489 721.688 367.489 717.508C367.489 713.475 366.755 710.468 365.289 708.488C363.822 706.435 361.292 705.408 357.699 705.408H351.319V730.048H356.819ZM410.126 692.208H432.566L449.176 781.308H431.026L428.056 762.498H414.966L411.886 781.308H393.296L410.126 692.208ZM426.186 750.728L421.456 715.968L416.726 750.728H426.186ZM458.172 692.208H480.722C488.422 692.208 494.435 693.161 498.762 695.068C503.088 696.975 506.132 699.981 507.892 704.088C509.725 708.121 510.642 713.548 510.642 720.368V752.708C510.642 759.601 509.725 765.101 507.892 769.208C506.132 773.315 503.088 776.358 498.762 778.338C494.508 780.318 488.568 781.308 480.942 781.308H458.172V692.208ZM480.942 767.668C483.802 767.668 485.892 767.265 487.212 766.458C488.605 765.578 489.485 764.368 489.852 762.828C490.218 761.215 490.402 758.868 490.402 755.788V716.958C490.402 714.098 490.182 711.935 489.742 710.468C489.375 708.928 488.495 707.791 487.102 707.058C485.782 706.325 483.692 705.958 480.832 705.958H477.862V767.668H480.942Z" fill="#CC7910"/>
<path d="M548.145 782.628C538.465 782.628 531.572 780.098 527.465 775.038C523.432 769.905 521.415 762.535 521.415 752.928V720.808C521.415 710.981 523.432 703.575 527.465 698.588C531.498 693.528 538.392 690.998 548.145 690.998C557.458 690.998 564.058 693.235 567.945 697.708C571.832 702.181 573.775 708.525 573.775 716.738V724.438H554.525V715.528C554.525 712.081 554.158 709.441 553.425 707.608C552.692 705.775 550.932 704.858 548.145 704.858C545.358 704.858 543.525 705.848 542.645 707.828C541.765 709.735 541.325 712.411 541.325 715.858V757.768C541.325 761.288 541.765 764.001 542.645 765.908C543.598 767.741 545.432 768.658 548.145 768.658C550.858 768.658 552.582 767.741 553.315 765.908C554.122 764.001 554.525 761.288 554.525 757.768V748.418H573.775V756.118C573.775 764.478 571.832 771.005 567.945 775.698C564.058 780.318 557.458 782.628 548.145 782.628ZM584.717 692.208H604.407V781.308H584.717V692.208ZM613.513 692.208H630.343L639.913 752.708L648.823 692.208H666.643L650.363 781.308H629.573L613.513 692.208ZM698.814 782.628C690.307 782.628 683.964 780.391 679.784 775.918C675.677 771.371 673.477 764.185 673.184 754.358L690.014 751.828C690.087 757.475 690.747 761.545 691.994 764.038C693.314 766.458 695.257 767.668 697.824 767.668C701.124 767.668 702.774 765.505 702.774 761.178C702.774 757.731 701.967 754.761 700.354 752.268C698.814 749.775 696.357 747.098 692.984 744.238L685.284 737.528C681.471 734.301 678.501 730.891 676.374 727.298C674.321 723.631 673.294 719.305 673.294 714.318C673.294 706.838 675.494 701.081 679.894 697.048C684.367 693.015 690.491 690.998 698.264 690.998C706.697 690.998 712.417 693.455 715.424 698.368C718.504 703.281 720.154 709.258 720.374 716.298L703.434 718.388C703.287 713.768 702.847 710.468 702.114 708.488C701.454 706.435 699.951 705.408 697.604 705.408C695.917 705.408 694.597 706.141 693.644 707.608C692.764 709.001 692.324 710.578 692.324 712.338C692.324 715.345 692.984 717.875 694.304 719.928C695.697 721.981 697.897 724.328 700.904 726.968L708.274 733.458C712.674 737.198 716.084 741.158 718.504 745.338C720.924 749.518 722.134 754.468 722.134 760.188C722.134 764.368 721.144 768.181 719.164 771.628C717.257 775.001 714.544 777.678 711.024 779.658C707.504 781.638 703.434 782.628 698.814 782.628Z" fill="white"/>
<path fill-rule="evenodd" clip-rule="evenodd" d="M592.463 649.069C588.836 645.555 582.538 647.169 586.022 652.558C589.508 657.947 590.726 657.786 596.997 665.205C599.858 660.209 596.089 652.584 592.463 649.069Z" fill="black"/>
<path fill-rule="evenodd" clip-rule="evenodd" d="M526.531 604.167C526.531 604.167 542.092 640.491 551.005 647.736C544.081 654.98 524.636 656.2 514.515 651.092C516.064 637.454 512.783 620.615 510.299 610.511C508.734 604.141 513.624 597.637 520.108 598.244C523.05 598.521 525.612 600.066 526.531 604.167Z" fill="#CC7910"/>
<path fill-rule="evenodd" clip-rule="evenodd" d="M536.027 644.271C536.027 644.271 549.915 636.38 559.963 638.598C570.009 640.815 575.116 647.814 578.322 655.393C581.529 662.974 572.675 681.969 567.87 683.868C563.065 685.767 559.963 679.685 559.963 664.235C559.963 655.922 529.006 657.006 529.006 657.006L536.027 644.271Z" fill="#CC7910"/>
<path fill-rule="evenodd" clip-rule="evenodd" d="M574.005 663.876C574.005 658.644 567.358 656.531 565.814 659.684C564.271 662.837 566.118 668.668 565.005 679.205C570.959 677.518 574.005 669.108 574.005 663.876Z" fill="black"/>
<path opacity="0.2" fill-rule="evenodd" clip-rule="evenodd" d="M578.612 657.28C578.612 657.28 576.327 647.617 567.005 642.907C571.131 641.992 575.317 643.667 575.317 643.667C588.014 646.46 591.005 659.204 591.005 659.204L578.612 657.28Z" fill="black"/>
<path fill-rule="evenodd" clip-rule="evenodd" d="M517.005 657.303L554.005 659.205C554.005 659.205 527.828 638.032 517.005 657.303Z" fill="black"/>
<g opacity="0.3">
<path opacity="0.3" fill-rule="evenodd" clip-rule="evenodd" d="M507.422 609.914C508.468 607.912 509.758 606.319 511.416 604.893C513.046 603.488 515.026 602.347 517.226 601.786C519.423 601.281 521.792 601.35 523.859 602.035C524.95 602.256 525.864 602.82 526.858 603.217C527.772 603.746 528.611 604.367 529.475 604.936C530.159 605.389 530.349 606.31 529.897 606.993C529.478 607.627 528.657 607.836 527.996 607.505L527.813 607.413C526.193 606.606 524.603 605.817 522.961 605.457C521.325 604.991 519.683 605.125 518.145 605.499C516.587 605.846 515.093 606.625 513.77 607.702C512.488 608.778 511.213 610.152 510.292 611.478L510.207 611.6C509.693 612.34 508.677 612.522 507.937 612.009C507.254 611.534 507.046 610.632 507.422 609.914Z" fill="black"/>
<path opacity="0.3" fill-rule="evenodd" clip-rule="evenodd" d="M508.483 616.682C509.762 614.589 511.293 612.974 513.186 611.573C515.048 610.19 517.229 609.099 519.597 608.583C521.962 608.132 524.466 608.202 526.712 608.868C527.884 609.081 528.899 609.637 529.986 610.021C531 610.542 531.946 611.159 532.913 611.723C533.615 612.142 533.845 613.051 533.425 613.753C533.036 614.408 532.22 614.653 531.542 614.344L531.368 614.263C529.541 613.453 527.738 612.669 525.884 612.305C524.036 611.84 522.176 611.966 520.412 612.316C518.63 612.645 516.914 613.417 515.366 614.495C513.86 615.573 512.361 616.979 511.265 618.375L511.171 618.497C510.625 619.211 509.605 619.347 508.891 618.802C508.231 618.295 508.067 617.38 508.483 616.682Z" fill="black"/>
<path opacity="0.3" fill-rule="evenodd" clip-rule="evenodd" d="M509.543 623.452C511.057 621.267 512.828 619.63 514.956 618.252C517.052 616.892 519.433 615.853 521.969 615.382C524.501 614.984 527.142 615.055 529.564 615.701C530.817 615.908 531.934 616.454 533.113 616.827C534.228 617.341 535.279 617.952 536.352 618.51C537.071 618.896 537.342 619.794 536.955 620.514C536.593 621.189 535.782 621.47 535.088 621.184L534.923 621.114C532.888 620.303 530.873 619.523 528.808 619.153C526.746 618.69 524.67 618.809 522.68 619.134C520.673 619.444 518.734 620.211 516.961 621.289C515.231 622.368 513.508 623.807 512.238 625.273L512.134 625.396C511.557 626.083 510.533 626.173 509.846 625.597C509.207 625.058 509.089 624.13 509.543 623.452Z" fill="black"/>
<path opacity="0.3" fill-rule="evenodd" clip-rule="evenodd" d="M510.602 630.22C512.35 627.945 514.362 626.284 516.724 624.93C519.053 623.594 521.636 622.606 524.338 622.179C527.039 621.835 529.816 621.907 532.415 622.533C533.749 622.734 534.968 623.271 536.24 623.631C537.454 624.137 538.613 624.743 539.789 625.295C540.527 625.65 540.838 626.535 540.483 627.274C540.149 627.969 539.343 628.286 538.633 628.024L538.476 627.964C536.234 627.151 534.008 626.375 531.73 626.001C529.456 625.539 527.164 625.652 524.946 625.95C522.715 626.243 520.554 627.003 518.556 628.082C516.602 629.163 514.655 630.634 513.21 632.17L513.096 632.294C512.489 632.954 511.46 632.997 510.799 632.39C510.182 631.821 510.109 630.878 510.602 630.22Z" fill="black"/>
<path opacity="0.3" fill-rule="evenodd" clip-rule="evenodd" d="M511.662 636.99C513.644 634.622 515.897 632.94 518.494 631.609C521.056 630.297 523.84 629.36 526.71 628.977C529.578 628.687 532.491 628.76 535.267 629.367C536.683 629.559 538.003 630.088 539.367 630.437C540.682 630.935 541.947 631.537 543.226 632.082C543.982 632.404 544.335 633.278 544.012 634.034C543.707 634.751 542.906 635.104 542.179 634.864L542.031 634.815C539.581 633.999 537.143 633.229 534.652 632.85C532.166 632.389 529.657 632.494 527.213 632.768C524.758 633.043 522.375 633.797 520.152 634.877C517.974 635.959 515.803 637.462 514.184 639.068L514.058 639.192C513.421 639.827 512.389 639.823 511.755 639.184C511.158 638.583 511.131 637.628 511.662 636.99Z" fill="black"/>
</g>
<path fill-rule="evenodd" clip-rule="evenodd" d="M573.72 662.639C572.815 657.869 567.2 655.895 567.016 662.123C566.831 668.353 569.181 665.203 568.702 678.205C573.485 675.615 574.626 667.408 573.72 662.639Z" fill="black"/>
<path fill-rule="evenodd" clip-rule="evenodd" d="M512.006 600.205C512.006 600.205 510.954 601.393 511.441 607.178C511.929 612.964 518.005 638.991 518.005 638.991L513.168 641.205L507.005 607.178C507.005 607.178 510.046 600.875 512.006 600.205Z" fill="black"/>
<path fill-rule="evenodd" clip-rule="evenodd" d="M259.093 497.363C246.118 497.363 237.393 505.36 232.26 512.671C229.846 516.107 229.679 523.103 231.122 530.242C232.809 538.588 236.519 546.647 239.442 548.732C240.784 549.69 241.952 550.007 242.959 549.984C244.194 549.955 245.344 549.456 246.398 548.278C247.709 546.812 248.936 543.78 250.546 539.39C251.681 536.295 253.078 532.479 255.03 528.095C256.217 525.431 257.627 523.679 259.269 522.725C261.006 521.716 262.944 521.673 264.902 522.125C274.063 524.241 283.791 536.281 283.791 536.281C283.791 536.281 287.922 541.394 290.839 547.558L284.123 514.879C284.123 514.879 272.067 497.363 259.093 497.363Z" fill="#CC7910" stroke="black" stroke-width="5" stroke-linejoin="round"/>
<path fill-rule="evenodd" clip-rule="evenodd" d="M236.637 525.393C238.194 520.534 244.869 520.151 244.409 526.924C243.949 533.696 242.736 533.927 240.734 543.733C235.507 539.454 235.08 530.253 236.637 525.393Z" fill="black"/>
<path fill-rule="evenodd" clip-rule="evenodd" d="M297.159 502.798C297.159 502.798 296.304 492.341 286.915 486.778C238.151 470.426 233.9 517.984 245.947 518.791C247.79 518.915 264.63 513.819 266.308 514.002C284.598 516.003 280.95 526.484 282.062 529.829C285.044 538.793 264.69 546.439 262.801 552.872C260.653 560.189 271.078 562.429 281.062 562.429C292.899 562.429 304.363 554.345 304.363 554.345C304.363 554.345 313.082 545.362 311.757 537.084C329.054 531.827 345.808 528.854 346.77 519.294C347.428 512.773 348.764 497.836 337.289 500.714L297.159 502.798Z" fill="black"/>
<path fill-rule="evenodd" clip-rule="evenodd" d="M290.822 512.352C290.822 512.352 303.74 519.38 306.152 528.305C308.564 537.232 304.655 544.615 299.415 550.796C294.173 556.977 273.725 559.266 269.983 556.433C266.241 553.599 270.216 548.225 283.728 540.735C291.462 536.448 280.683 516.143 280.683 516.143L290.822 512.352Z" fill="#CC7910"/>
<path fill-rule="evenodd" clip-rule="evenodd" d="M333.594 506.795C333.594 506.795 294.28 510.793 283.622 506.51C280.643 516.078 289.003 533.677 298.378 540.054C309.554 532.086 325.873 526.793 335.914 524.066C342.245 522.347 345.563 514.917 341.888 509.54C340.219 507.1 337.626 505.609 333.594 506.795Z" fill="#CC7910"/>
<path fill-rule="evenodd" clip-rule="evenodd" d="M293.855 517.826C293.855 517.826 294.043 501.886 287.246 494.2C280.45 486.513 271.86 485.452 263.68 486.33C255.5 487.208 243.167 504.139 243.829 509.251C244.491 514.361 251.31 514.119 264.823 506.629C272.556 502.342 286.163 530.256 286.163 530.256L293.855 517.826Z" fill="#CC7910"/>
<path fill-rule="evenodd" clip-rule="evenodd" d="M259.575 487.686C267.114 484.976 274.194 486.052 280.817 490.915C280.785 486.724 279.412 485.686 279.412 485.686C269.633 480.162 260.464 480.829 251.903 487.686L259.575 487.686Z" fill="black"/>
<path fill-rule="evenodd" clip-rule="evenodd" d="M292.296 541.719L272.137 509.446C272.137 509.446 303.872 523.151 292.296 541.719Z" fill="black"/>
<path opacity="0.5" fill-rule="evenodd" clip-rule="evenodd" d="M259.491 510.58C270.207 510.701 293.156 521.716 281.58 540.284C278.471 530.484 276.149 525.499 274.614 525.329C255.119 523.171 259.491 510.58 259.491 510.58Z" fill="black"/>
<g opacity="0.3">
<path opacity="0.3" fill-rule="evenodd" clip-rule="evenodd" d="M336.92 524.258C337.23 522.918 337.361 521.231 337.295 519.645C337.207 518.02 336.823 516.345 336.123 514.767C335.453 513.197 334.564 511.616 333.293 510.261C332.087 508.861 330.634 507.665 329.152 506.447L328.986 506.31C328.314 505.759 327.978 504.819 328.235 504.212C328.473 503.65 329.136 503.569 329.766 503.999C330.645 504.597 331.545 505.155 332.429 505.815C333.274 506.597 334.181 507.244 334.971 508.182C336.64 509.86 338.089 512.044 339.066 514.276C340.01 516.531 340.446 518.791 340.505 520.819C340.568 522.885 340.304 524.664 339.632 526.366C339.364 527.045 338.544 527.114 337.801 526.521C337.115 525.973 336.736 525.053 336.891 524.38L336.92 524.258Z" fill="black"/>
<path opacity="0.3" fill-rule="evenodd" clip-rule="evenodd" d="M330.537 526.762C330.785 525.242 330.804 523.343 330.608 521.558C330.388 519.733 329.875 517.862 329.041 516.09C328.229 514.328 327.22 512.558 325.84 511.011C324.522 509.424 322.966 508.036 321.379 506.633L321.227 506.502C320.574 505.934 320.268 505 320.546 504.416C320.803 503.872 321.476 503.824 322.093 504.283C323.021 504.972 323.968 505.631 324.894 506.383C325.775 507.252 326.725 507.993 327.549 509.003C329.288 510.844 330.8 513.143 331.898 515.499C332.957 517.881 333.54 520.297 333.749 522.524C333.965 524.787 333.832 526.789 333.247 528.732C333.024 529.434 332.239 529.557 331.496 529.007C330.806 528.498 330.392 527.587 330.514 526.896L330.537 526.762Z" fill="black"/>
<path opacity="0.3" fill-rule="evenodd" clip-rule="evenodd" d="M324.141 529.263C324.329 527.564 324.238 525.455 323.915 523.47C323.567 521.445 322.926 519.379 321.959 517.415C321.009 515.46 319.881 513.501 318.394 511.764C316.963 509.989 315.304 508.41 313.612 506.823L313.475 506.698C312.839 506.112 312.563 505.182 312.859 504.622C313.137 504.096 313.821 504.081 314.427 504.568C315.402 505.351 316.395 506.108 317.364 506.952C318.283 507.907 319.275 508.741 320.132 509.825C321.944 511.828 323.519 514.241 324.737 516.722C325.91 519.234 326.635 521.806 326.993 524.23C327.358 526.69 327.352 528.914 326.853 531.098C326.672 531.825 325.921 532.002 325.176 531.494C324.481 531.021 324.036 530.118 324.124 529.407L324.141 529.263Z" fill="black"/>
<path opacity="0.3" fill-rule="evenodd" clip-rule="evenodd" d="M317.735 531.762C317.865 529.884 317.665 527.566 317.217 525.381C316.744 523.157 315.977 520.897 314.879 518.74C313.792 516.593 312.545 514.444 310.951 512.518C309.41 510.557 307.647 508.787 305.851 507.015L305.727 506.897C305.108 506.293 304.861 505.366 305.176 504.828C305.473 504.321 306.169 504.341 306.764 504.852C307.785 505.732 308.828 506.585 309.841 507.521C310.796 508.562 311.831 509.489 312.722 510.645C314.606 512.811 316.245 515.339 317.581 517.947C318.867 520.586 319.734 523.316 320.236 525.936C320.748 528.595 320.867 531.04 320.451 533.464C320.311 534.216 319.593 534.445 318.846 533.979C318.146 533.542 317.668 532.647 317.724 531.918L317.735 531.762Z" fill="black"/>
<path opacity="0.3" fill-rule="evenodd" clip-rule="evenodd" d="M311.32 534.26C311.392 532.202 311.085 529.675 310.515 527.292C309.917 524.868 309.027 522.414 307.799 520.065C306.577 517.727 305.213 515.389 303.512 513.274C301.86 511.126 299.995 509.166 298.095 507.211L297.985 507.097C297.38 506.476 297.161 505.554 297.495 505.037C297.813 504.547 298.518 504.602 299.106 505.14C300.171 506.118 301.264 507.062 302.32 508.089C303.313 509.216 304.391 510.236 305.317 511.467C307.274 513.794 308.976 516.438 310.43 519.172C311.828 521.94 312.833 524.827 313.48 527.645C314.136 530.501 314.378 533.167 314.042 535.83C313.945 536.606 313.256 536.89 312.506 536.463C311.8 536.062 311.29 535.176 311.314 534.426L311.32 534.26Z" fill="black"/>
</g>
<path fill-rule="evenodd" clip-rule="evenodd" d="M260.878 491.407C266.279 489.172 271.908 493.366 265.741 497.622C259.574 501.876 257.811 497.86 246.576 507.454C246.092 501.086 255.478 493.642 260.878 491.407Z" fill="black"/>
<path opacity="0.4" fill-rule="evenodd" clip-rule="evenodd" d="M343.131 515.827C343.131 515.827 342.602 517.323 337.306 519.702C332.01 522.08 306.3 529.384 306.3 529.384L306.708 534.687L339.457 523.581C339.457 523.581 343.495 517.866 343.131 515.827Z" fill="black"/>
<circle cx="491.005" cy="241.308" r="7" fill="black"/>
<path d="M460.005 244.808C435.081 246.755 452.505 222.308 455.006 220.808L522.006 194.308L542.006 195.808L559.006 206.308L531.505 198.808C507.505 238.808 492.005 242.308 460.005 244.808Z" fill="black" fill-opacity="0.2"/>
<path d="M504.636 249.308C504.636 260.149 495.847 268.938 485.005 268.938C474.164 268.938 465.375 260.149 465.375 249.308C465.375 238.466 474.164 229.677 485.005 229.677C495.847 229.677 504.636 238.466 504.636 249.308ZM485.005 277.808C500.745 277.808 513.505 265.048 513.505 249.308C513.505 233.568 500.745 220.808 485.005 220.808C469.265 220.808 456.505 233.568 456.505 249.308C456.505 265.048 469.265 277.808 485.005 277.808Z" fill="#FFE288" stroke="black" stroke-width="3"/>
<circle r="3" transform="matrix(1 0 0 -1 491.005 241.308)" fill="white"/>
<path d="M578.998 145.443C578.411 148.704 575.291 150.872 572.03 150.284C568.769 149.697 526.346 135.958 526.346 135.958C526.346 135.958 570.896 137.887 574.157 138.474C577.418 139.062 579.586 142.182 578.998 145.443Z" fill="#E02828"/>
<circle cx="527.35" cy="135.914" r="6" fill="#E02828"/>
<path d="M473.201 126.384C473.789 123.123 476.909 120.956 480.17 121.543C483.431 122.131 525.854 135.869 525.854 135.869C525.854 135.869 481.304 133.94 478.042 133.353C474.781 132.766 472.614 129.646 473.201 126.384Z" fill="#E02828"/>
<path d="M567.006 348.308C583.006 272.308 566.672 229.975 559.506 217.308C555.505 224.808 565.005 245.808 567.006 275.308C569.326 309.526 559.506 335.808 567.006 348.308Z" fill="white"/>
<path fill-rule="evenodd" clip-rule="evenodd" d="M529.435 134.954L521.935 168.958L519.005 168.312L526.505 134.308L529.435 134.954Z" fill="#E02828"/>
<path fill-rule="evenodd" clip-rule="evenodd" d="M493.005 230.197C493.005 230.234 493.005 230.271 493.005 230.308C493.005 230.308 527.005 218.808 540.005 220.808C567.505 228.308 575.005 232.308 575.005 232.308C575.005 232.308 578.005 225.488 578.005 211.742C578.005 180.497 553.616 154.482 524.005 148.865C523.646 148.797 523.328 148.796 523.044 148.85C523.018 148.822 523.005 148.808 523.005 148.808C522.616 148.808 522.228 148.811 521.841 148.818C519.255 148.111 516.018 147.742 512.005 147.742C479.024 147.742 451.87 172.689 448.384 204.742C448.258 204.742 448.132 204.742 448.005 204.742C433.878 212.529 423.563 214.925 400.505 215.308C405.505 222.374 416.005 234.308 459.505 234.308C475.374 234.308 485.853 232.711 493.005 230.197Z" fill="black"/>
<path fill-rule="evenodd" clip-rule="evenodd" d="M240.793 201.508C228.349 218.314 209.771 221.545 185.059 211.201C199.158 201.341 206.118 195.973 205.94 195.095C205.64 193.619 169.747 203.304 163.884 203.747C145.328 205.165 95.5098 163.112 95.5098 163.112C130.768 150.469 158.45 144.924 178.558 146.475C209.354 148.851 241.43 202.859 240.793 201.508Z" fill="black"/>
<path fill-rule="evenodd" clip-rule="evenodd" d="M116.587 565.36L171.983 206.895L168.005 189.308L213.505 190.308L228.005 223.808C226.424 233.139 218.005 233.808 218.005 233.808C218.005 233.808 219.005 231.308 210.505 223.308C202.005 215.308 192.505 210.311 192.505 210.311L126.358 567.486C122.048 568.869 119.84 568.71 116.587 565.36Z" fill="#CC7910" stroke="black" stroke-width="5"/>
<path fill-rule="evenodd" clip-rule="evenodd" d="M516.005 287.308C519.871 287.308 523.005 284.174 523.005 280.308C523.005 276.442 519.871 273.308 516.005 273.308C512.139 273.308 509.005 276.442 509.005 280.308C509.005 284.174 512.139 287.308 516.005 287.308ZM528.005 299.308C528.005 303.174 524.871 306.308 521.005 306.308C517.139 306.308 514.005 303.174 514.005 299.308C514.005 295.442 517.139 292.308 521.005 292.308C524.871 292.308 528.005 295.442 528.005 299.308ZM528.005 324.308C531.871 324.308 535.005 321.174 535.005 317.308C535.005 313.442 531.871 310.308 528.005 310.308C524.139 310.308 521.005 313.442 521.005 317.308C521.005 321.174 524.139 324.308 528.005 324.308ZM542.005 333.308C542.005 337.174 538.871 340.308 535.005 340.308C531.139 340.308 528.005 337.174 528.005 333.308C528.005 329.442 531.139 326.308 535.005 326.308C538.871 326.308 542.005 329.442 542.005 333.308ZM550.005 348.308C550.005 352.174 546.871 355.308 543.005 355.308C539.139 355.308 536.005 352.174 536.005 348.308C536.005 344.442 539.139 341.308 543.005 341.308C546.871 341.308 550.005 344.442 550.005 348.308Z" fill="#B5B4AC"/>
<mask id="path-63-inside-1" fill="white">
<path fill-rule="evenodd" clip-rule="evenodd" d="M515.005 284.308C518.871 284.308 522.005 281.174 522.005 277.308C522.005 273.442 518.871 270.308 515.005 270.308C511.139 270.308 508.005 273.442 508.005 277.308C508.005 281.174 511.139 284.308 515.005 284.308ZM526.005 295.308C526.005 299.174 522.871 302.308 519.005 302.308C515.139 302.308 512.005 299.174 512.005 295.308C512.005 291.442 515.139 288.308 519.005 288.308C522.871 288.308 526.005 291.442 526.005 295.308ZM525.005 320.308C528.871 320.308 532.005 317.174 532.005 313.308C532.005 309.442 528.871 306.308 525.005 306.308C521.139 306.308 518.005 309.442 518.005 313.308C518.005 317.174 521.139 320.308 525.005 320.308ZM539.005 329.308C539.005 333.174 535.871 336.308 532.005 336.308C528.139 336.308 525.005 333.174 525.005 329.308C525.005 325.442 528.139 322.308 532.005 322.308C535.871 322.308 539.005 325.442 539.005 329.308ZM540.005 352.308C543.871 352.308 547.005 349.174 547.005 345.308C547.005 341.442 543.871 338.308 540.005 338.308C536.139 338.308 533.005 341.442 533.005 345.308C533.005 349.174 536.139 352.308 540.005 352.308ZM580.005 345.308C580.005 349.174 576.871 352.308 573.005 352.308C569.139 352.308 566.005 349.174 566.005 345.308C566.005 341.442 569.139 338.308 573.005 338.308C576.871 338.308 580.005 341.442 580.005 345.308ZM563.005 352.308C563.005 356.174 559.871 359.308 556.005 359.308C552.139 359.308 549.005 356.174 549.005 352.308C549.005 348.442 552.139 345.308 556.005 345.308C559.871 345.308 563.005 348.442 563.005 352.308Z"/>
</mask>
<path fill-rule="evenodd" clip-rule="evenodd" d="M515.005 284.308C518.871 284.308 522.005 281.174 522.005 277.308C522.005 273.442 518.871 270.308 515.005 270.308C511.139 270.308 508.005 273.442 508.005 277.308C508.005 281.174 511.139 284.308 515.005 284.308ZM526.005 295.308C526.005 299.174 522.871 302.308 519.005 302.308C515.139 302.308 512.005 299.174 512.005 295.308C512.005 291.442 515.139 288.308 519.005 288.308C522.871 288.308 526.005 291.442 526.005 295.308ZM525.005 320.308C528.871 320.308 532.005 317.174 532.005 313.308C532.005 309.442 528.871 306.308 525.005 306.308C521.139 306.308 518.005 309.442 518.005 313.308C518.005 317.174 521.139 320.308 525.005 320.308ZM539.005 329.308C539.005 333.174 535.871 336.308 532.005 336.308C528.139 336.308 525.005 333.174 525.005 329.308C525.005 325.442 528.139 322.308 532.005 322.308C535.871 322.308 539.005 325.442 539.005 329.308ZM540.005 352.308C543.871 352.308 547.005 349.174 547.005 345.308C547.005 341.442 543.871 338.308 540.005 338.308C536.139 338.308 533.005 341.442 533.005 345.308C533.005 349.174 536.139 352.308 540.005 352.308ZM580.005 345.308C580.005 349.174 576.871 352.308 573.005 352.308C569.139 352.308 566.005 349.174 566.005 345.308C566.005 341.442 569.139 338.308 573.005 338.308C576.871 338.308 580.005 341.442 580.005 345.308ZM563.005 352.308C563.005 356.174 559.871 359.308 556.005 359.308C552.139 359.308 549.005 356.174 549.005 352.308C549.005 348.442 552.139 345.308 556.005 345.308C559.871 345.308 563.005 348.442 563.005 352.308Z" fill="#FFE288"/>
<path d="M519.005 277.308C519.005 279.517 517.214 281.308 515.005 281.308V287.308C520.528 287.308 525.005 282.831 525.005 277.308H519.005ZM515.005 273.308C517.214 273.308 519.005 275.099 519.005 277.308H525.005C525.005 271.785 520.528 267.308 515.005 267.308V273.308ZM511.005 277.308C511.005 275.099 512.796 273.308 515.005 273.308V267.308C509.482 267.308 505.005 271.785 505.005 277.308H511.005ZM515.005 281.308C512.796 281.308 511.005 279.517 511.005 277.308H505.005C505.005 282.831 509.482 287.308 515.005 287.308V281.308ZM519.005 305.308C524.528 305.308 529.005 300.831 529.005 295.308H523.005C523.005 297.517 521.214 299.308 519.005 299.308V305.308ZM509.005 295.308C509.005 300.831 513.482 305.308 519.005 305.308V299.308C516.796 299.308 515.005 297.517 515.005 295.308H509.005ZM519.005 285.308C513.482 285.308 509.005 289.785 509.005 295.308H515.005C515.005 293.099 516.796 291.308 519.005 291.308V285.308ZM529.005 295.308C529.005 289.785 524.528 285.308 519.005 285.308V291.308C521.214 291.308 523.005 293.099 523.005 295.308H529.005ZM529.005 313.308C529.005 315.517 527.214 317.308 525.005 317.308V323.308C530.528 323.308 535.005 318.831 535.005 313.308H529.005ZM525.005 309.308C527.214 309.308 529.005 311.099 529.005 313.308H535.005C535.005 307.785 530.528 303.308 525.005 303.308V309.308ZM521.005 313.308C521.005 311.099 522.796 309.308 525.005 309.308V303.308C519.482 303.308 515.005 307.785 515.005 313.308H521.005ZM525.005 317.308C522.796 317.308 521.005 315.517 521.005 313.308H515.005C515.005 318.831 519.482 323.308 525.005 323.308V317.308ZM532.005 339.308C537.528 339.308 542.005 334.831 542.005 329.308H536.005C536.005 331.517 534.214 333.308 532.005 333.308V339.308ZM522.005 329.308C522.005 334.831 526.482 339.308 532.005 339.308V333.308C529.796 333.308 528.005 331.517 528.005 329.308H522.005ZM532.005 319.308C526.482 319.308 522.005 323.785 522.005 329.308H528.005C528.005 327.099 529.796 325.308 532.005 325.308V319.308ZM542.005 329.308C542.005 323.785 537.528 319.308 532.005 319.308V325.308C534.214 325.308 536.005 327.099 536.005 329.308H542.005ZM544.005 345.308C544.005 347.517 542.214 349.308 540.005 349.308V355.308C545.528 355.308 550.005 350.831 550.005 345.308H544.005ZM540.005 341.308C542.214 341.308 544.005 343.099 544.005 345.308H550.005C550.005 339.785 545.528 335.308 540.005 335.308V341.308ZM536.005 345.308C536.005 343.099 537.796 341.308 540.005 341.308V335.308C534.482 335.308 530.005 339.785 530.005 345.308H536.005ZM540.005 349.308C537.796 349.308 536.005 347.517 536.005 345.308H530.005C530.005 350.831 534.482 355.308 540.005 355.308V349.308ZM573.005 355.308C578.528 355.308 583.005 350.831 583.005 345.308H577.005C577.005 347.517 575.214 349.308 573.005 349.308V355.308ZM563.005 345.308C563.005 350.831 567.482 355.308 573.005 355.308V349.308C570.796 349.308 569.005 347.517 569.005 345.308H563.005ZM573.005 335.308C567.482 335.308 563.005 339.785 563.005 345.308H569.005C569.005 343.099 570.796 341.308 573.005 341.308V335.308ZM583.005 345.308C583.005 339.785 578.528 335.308 573.005 335.308V341.308C575.214 341.308 577.005 343.099 577.005 345.308H583.005ZM556.005 362.308C561.528 362.308 566.005 357.831 566.005 352.308H560.005C560.005 354.517 558.214 356.308 556.005 356.308V362.308ZM546.005 352.308C546.005 357.831 550.482 362.308 556.005 362.308V356.308C553.796 356.308 552.005 354.517 552.005 352.308H546.005ZM556.005 342.308C550.482 342.308 546.005 346.785 546.005 352.308H552.005C552.005 350.099 553.796 348.308 556.005 348.308V342.308ZM566.005 352.308C566.005 346.785 561.528 342.308 556.005 342.308V348.308C558.214 348.308 560.005 350.099 560.005 352.308H566.005Z" fill="black" mask="url(#path-63-inside-1)"/>
</svg>
