<?xml version="1.0" encoding="UTF-8" standalone="no"?>
<!DOCTYPE svg PUBLIC "-//W3C//DTD SVG 1.1//EN"
 "http://www.w3.org/Graphics/SVG/1.1/DTD/svg11.dtd">
<!-- Generated by graphviz version 2.40.1 (20161225.0304)
 -->
<!-- Title: lifecycle Pages: 1 -->
<svg width="904pt" height="523pt"
 viewBox="0.00 0.00 903.50 523.00" xmlns="http://www.w3.org/2000/svg" xmlns:xlink="http://www.w3.org/1999/xlink">
<g id="graph0" class="graph" transform="scale(1 1) rotate(0) translate(4 519)">
<title>lifecycle</title>
<polygon fill="#c0c0c0" stroke="transparent" points="-4,4 -4,-519 899.5,-519 899.5,4 -4,4"/>
<g id="clust1" class="cluster">
<title>cluster_life</title>
<polygon fill="#ffffff" stroke="#000000" points="8,-8 8,-430 710,-430 710,-8 8,-8"/>
<text text-anchor="middle" x="359" y="-414.8" font-family="Times,serif" font-size="14.00" fill="#000000">cyc_life</text>
</g>
<g id="clust2" class="cluster">
<title>cluster_emotions</title>
<polygon fill="#ffffe0" stroke="#000000" points="558,-96 558,-368 690,-368 690,-96 558,-96"/>
<text text-anchor="middle" x="624" y="-352.8" font-family="Times,serif" font-size="14.00" fill="#000000">emo</text>
</g>
<g id="clust4" class="cluster">
<title>cluster_activities</title>
<polygon fill="#add8e6" stroke="#000000" points="16,-16 16,-399 550,-399 550,-16 16,-16"/>
<text text-anchor="middle" x="283" y="-383.8" font-family="Times,serif" font-size="14.00" fill="#000000">act</text>
</g>
<g id="clust5" class="cluster">
<title>cluster_business</title>
<polygon fill="#add8e6" stroke="#000000" points="164,-24 164,-368 436,-368 436,-24 164,-24"/>
<text text-anchor="middle" x="300" y="-352.8" font-family="Times,serif" font-size="14.00" fill="#000000">bus</text>
</g>
<g id="clust6" class="cluster">
<title>cluster_panic</title>
<polygon fill="#ffc0cb" stroke="#000000" points="24,-24 24,-269.5 156,-269.5 156,-24 24,-24"/>
<text text-anchor="middle" x="90" y="-254.3" font-family="Times,serif" font-size="14.00" fill="#000000">panic</text>
</g>
<!-- cluster_life_node -->
<!-- cyc_despawn -->
<g id="node18" class="node">
<title>cyc_despawn</title>
<polygon fill="none" stroke="#000000" points="806.5,-265 717.5,-265 717.5,-176 806.5,-176 806.5,-265"/>
<polyline fill="none" stroke="#000000" points="729.5,-265 717.5,-253 "/>
<polyline fill="none" stroke="#000000" points="717.5,-188 729.5,-176 "/>
<polyline fill="none" stroke="#000000" points="794.5,-176 806.5,-188 "/>
<polyline fill="none" stroke="#000000" points="806.5,-253 794.5,-265 "/>
<text text-anchor="middle" x="762" y="-216.8" font-family="Times,serif" font-size="14.00" fill="#000000">cyc_despawn</text>
</g>
<!-- cluster_life_node&#45;&gt;cyc_despawn -->
<g id="edge22" class="edge">
<title>cluster_life_node&#45;&gt;cyc_despawn</title>
<path fill="none" stroke="#000000" d="M709.9978,-303.1164C715.1478,-294.9345 721.7577,-284.4333 728.5258,-273.6807"/>
<polygon fill="#000000" stroke="#000000" points="731.594,-275.3765 733.959,-265.049 725.6699,-271.6476 731.594,-275.3765"/>
</g>
<!-- cyc_death -->
<g id="node19" class="node">
<title>cyc_death</title>
<polygon fill="none" stroke="#000000" points="895.5,-256 824.5,-256 824.5,-185 895.5,-185 895.5,-256"/>
<polyline fill="none" stroke="#000000" points="836.5,-256 824.5,-244 "/>
<polyline fill="none" stroke="#000000" points="824.5,-197 836.5,-185 "/>
<polyline fill="none" stroke="#000000" points="883.5,-185 895.5,-197 "/>
<polyline fill="none" stroke="#000000" points="895.5,-244 883.5,-256 "/>
<text text-anchor="middle" x="860" y="-216.8" font-family="Times,serif" font-size="14.00" fill="#000000">cyc_death</text>
</g>
<!-- cluster_life_node&#45;&gt;cyc_death -->
<g id="edge23" class="edge">
<title>cluster_life_node&#45;&gt;cyc_death</title>
<path fill="none" stroke="#ff0000" d="M709.9972,-316.341C731.0485,-310.4138 780.892,-294.6286 816,-269.5 818.6962,-267.5702 821.3462,-265.4488 823.9258,-263.204"/>
<polygon fill="#ff0000" stroke="#ff0000" points="826.529,-265.561 831.4295,-256.1676 821.7408,-260.4548 826.529,-265.561"/>
</g>
<!-- emo_relaxed -->
<g id="node2" class="node">
<title>emo_relaxed</title>
<ellipse fill="none" stroke="#000000" cx="623" cy="-319" rx="56.59" ry="18"/>
<text text-anchor="middle" x="623" y="-315.3" font-family="Times,serif" font-size="14.00" fill="#000000">emo_relaxed</text>
</g>
<!-- emo_wary -->
<g id="node3" class="node">
<title>emo_wary</title>
<ellipse fill="none" stroke="#000000" cx="614" cy="-220.5" rx="48.1917" ry="18"/>
<text text-anchor="middle" x="614" y="-216.8" font-family="Times,serif" font-size="14.00" fill="#000000">emo_wary</text>
</g>
<!-- emo_relaxed&#45;&gt;emo_wary -->
<g id="edge1" class="edge">
<title>emo_relaxed&#45;&gt;emo_wary</title>
<path fill="none" stroke="#000000" d="M615.9852,-300.9336C613.134,-286.3545 610.9657,-265.5822 610.4108,-248.7993"/>
<polygon fill="#000000" stroke="#000000" points="613.9065,-248.4097 610.2882,-238.4519 606.907,-248.4927 613.9065,-248.4097"/>
</g>
<!-- emo_panic -->
<g id="node4" class="node">
<title>emo_panic</title>
<ellipse fill="none" stroke="#000000" cx="616" cy="-122" rx="50.0912" ry="18"/>
<text text-anchor="middle" x="616" y="-118.3" font-family="Times,serif" font-size="14.00" fill="#000000">emo_panic</text>
</g>
<!-- emo_relaxed&#45;&gt;emo_panic -->
<g id="edge2" class="edge">
<title>emo_relaxed&#45;&gt;emo_panic</title>
<path fill="none" stroke="#ff0000" d="M645.686,-302.3264C655.4405,-293.7394 665.7849,-282.3695 671,-269.5 686.6069,-230.9865 687.0786,-214.319 671,-176 665.9842,-164.0463 656.8886,-153.4067 647.5191,-144.7985"/>
<polygon fill="#ff0000" stroke="#ff0000" points="649.536,-141.9173 639.6679,-138.0612 644.9775,-147.2296 649.536,-141.9173"/>
</g>
<!-- emo_wary&#45;&gt;emo_relaxed -->
<g id="edge5" class="edge">
<title>emo_wary&#45;&gt;emo_relaxed</title>
<path fill="none" stroke="#000000" d="M620.9924,-238.4519C623.8472,-252.9984 626.0214,-273.7649 626.5848,-290.5686"/>
<polygon fill="#000000" stroke="#000000" points="623.0895,-290.9778 626.7133,-300.9336 630.089,-290.8909 623.0895,-290.9778"/>
</g>
<!-- emo_wary&#45;&gt;emo_panic -->
<g id="edge3" class="edge">
<title>emo_wary&#45;&gt;emo_panic</title>
<path fill="none" stroke="#ff0000" d="M609.0028,-202.4336C607.7797,-187.8545 607.9311,-167.0822 609.2505,-150.2993"/>
<polygon fill="#ff0000" stroke="#ff0000" points="612.7727,-150.2501 610.2834,-139.9519 605.8073,-149.5547 612.7727,-150.2501"/>
</g>
<!-- emo_panic&#45;&gt;emo_wary -->
<g id="edge4" class="edge">
<title>emo_panic&#45;&gt;emo_wary</title>
<path fill="none" stroke="#000000" d="M620.9876,-139.9519C622.2179,-154.4984 622.0731,-175.2649 620.7599,-192.0686"/>
<polygon fill="#000000" stroke="#000000" points="617.236,-192.1367 619.7309,-202.4336 624.2018,-192.8283 617.236,-192.1367"/>
</g>
<!-- cluster_business_node -->
<!-- cluster_panic_node -->
<!-- cluster_business_node&#45;&gt;cluster_panic_node -->
<g id="edge20" class="edge">
<title>cluster_business_node&#45;&gt;cluster_panic_node</title>
<path fill="none" stroke="#ff0000" d="M164.0005,-263.7639C162.0662,-260.9535 160.5001,-257.8506 159.1937,-254.6354"/>
<polygon fill="#ff0000" stroke="#ff0000" points="162.4753,-253.4115 155.9991,-245.0264 155.8328,-255.62 162.4753,-253.4115"/>
</g>
<!-- act_asOrdered -->
<g id="node15" class="node">
<title>act_asOrdered</title>
<polygon fill="none" stroke="#000000" points="541.5,-238.5 446.5,-238.5 446.5,-202.5 541.5,-202.5 541.5,-238.5"/>
<text text-anchor="middle" x="494" y="-216.8" font-family="Times,serif" font-size="14.00" fill="#000000">act_asOrdered</text>
</g>
<!-- cluster_business_node&#45;&gt;act_asOrdered -->
<g id="edge18" class="edge">
<title>cluster_business_node&#45;&gt;act_asOrdered</title>
<path fill="none" stroke="#ff0000" d="M435.9959,-265.6604C444.212,-259.1945 452.5037,-251.9759 460.2122,-245.2401"/>
<polygon fill="#ff0000" stroke="#ff0000" points="462.5414,-247.8528 467.7798,-238.6436 457.9418,-242.5761 462.5414,-247.8528"/>
</g>
<!-- act_surrendered -->
<g id="node16" class="node">
<title>act_surrendered</title>
<polygon fill="none" stroke="#000000" points="155.5,-337 52.5,-337 52.5,-301 155.5,-301 155.5,-337"/>
<text text-anchor="middle" x="104" y="-315.3" font-family="Times,serif" font-size="14.00" fill="#000000">act_surrendered</text>
</g>
<!-- cluster_business_node&#45;&gt;act_surrendered -->
<g id="edge16" class="edge">
<title>cluster_business_node&#45;&gt;act_surrendered</title>
<path fill="none" stroke="#000000" d="M368.1898,-367.9981C370.5447,-396.6667 366.72,-428.3296 340,-434 321.4139,-437.9442 187.5861,-437.9442 169,-434 164.7181,-433.0913 163.1701,-433.0184 160,-430 135.9268,-407.0789 120.5515,-371.5663 112.121,-346.9061"/>
<polygon fill="#000000" stroke="#000000" points="115.3448,-345.5008 108.9281,-337.0701 108.6868,-347.6622 115.3448,-345.5008"/>
</g>
<!-- bus_rally -->
<g id="node6" class="node">
<title>bus_rally</title>
<ellipse fill="none" stroke="#000000" cx="296" cy="-319" rx="43.5923" ry="18"/>
<text text-anchor="middle" x="296" y="-315.3" font-family="Times,serif" font-size="14.00" fill="#000000">bus_rally</text>
</g>
<!-- bus_patrol -->
<g id="node7" class="node">
<title>bus_patrol</title>
<ellipse fill="none" stroke="#000000" cx="360" cy="-220.5" rx="48.1917" ry="18"/>
<text text-anchor="middle" x="360" y="-216.8" font-family="Times,serif" font-size="14.00" fill="#000000">bus_patrol</text>
</g>
<!-- bus_rally&#45;&gt;bus_patrol -->
<g id="edge6" class="edge">
<title>bus_rally&#45;&gt;bus_patrol</title>
<path fill="none" stroke="#000000" d="M307.4419,-301.3902C317.3007,-286.2168 331.6743,-264.0951 342.8991,-246.8194"/>
<polygon fill="#000000" stroke="#000000" points="345.9278,-248.5818 348.4414,-238.2895 340.058,-244.7679 345.9278,-248.5818"/>
</g>
<!-- bus_mountUp -->
<g id="node8" class="node">
<title>bus_mountUp</title>
<ellipse fill="none" stroke="#000000" cx="233" cy="-220.5" rx="61.1893" ry="18"/>
<text text-anchor="middle" x="233" y="-216.8" font-family="Times,serif" font-size="14.00" fill="#000000">bus_mountUp</text>
</g>
<!-- bus_rally&#45;&gt;bus_mountUp -->
<g id="edge7" class="edge">
<title>bus_rally&#45;&gt;bus_mountUp</title>
<path fill="none" stroke="#000000" d="M284.7369,-301.3902C275.0321,-286.2168 260.8831,-264.0951 249.8337,-246.8194"/>
<polygon fill="#000000" stroke="#000000" points="252.7147,-244.8279 244.378,-238.2895 246.8177,-248.5996 252.7147,-244.8279"/>
</g>
<!-- bus_voyage -->
<g id="node9" class="node">
<title>bus_voyage</title>
<ellipse fill="none" stroke="#000000" cx="305" cy="-122" rx="52.7911" ry="18"/>
<text text-anchor="middle" x="305" y="-118.3" font-family="Times,serif" font-size="14.00" fill="#000000">bus_voyage</text>
</g>
<!-- bus_mountUp&#45;&gt;bus_voyage -->
<g id="edge8" class="edge">
<title>bus_mountUp&#45;&gt;bus_voyage</title>
<path fill="none" stroke="#000000" d="M245.8722,-202.8902C256.9633,-187.7168 273.1335,-165.5951 285.7615,-148.3194"/>
<polygon fill="#000000" stroke="#000000" points="288.9209,-149.9281 291.9965,-139.7895 283.2697,-145.7972 288.9209,-149.9281"/>
</g>
<!-- bus_dismount -->
<g id="node10" class="node">
<title>bus_dismount</title>
<ellipse fill="none" stroke="#000000" cx="305" cy="-50" rx="60.3893" ry="18"/>
<text text-anchor="middle" x="305" y="-46.3" font-family="Times,serif" font-size="14.00" fill="#000000">bus_dismount</text>
</g>
<!-- bus_mountUp&#45;&gt;bus_dismount -->
<g id="edge9" class="edge">
<title>bus_mountUp&#45;&gt;bus_dismount</title>
<path fill="none" stroke="#000000" d="M230.0062,-202.2704C226.759,-176.7604 224.2817,-129.7553 243,-96 248.3746,-86.3079 256.7455,-78.0777 265.6164,-71.3763"/>
<polygon fill="#000000" stroke="#000000" points="267.627,-74.2413 273.8322,-65.6536 263.6261,-68.4973 267.627,-74.2413"/>
</g>
<!-- bus_voyage&#45;&gt;bus_dismount -->
<g id="edge10" class="edge">
<title>bus_voyage&#45;&gt;bus_dismount</title>
<path fill="none" stroke="#ff0000" d="M305,-103.8314C305,-96.131 305,-86.9743 305,-78.4166"/>
<polygon fill="#ff0000" stroke="#ff0000" points="308.5001,-78.4132 305,-68.4133 301.5001,-78.4133 308.5001,-78.4132"/>
</g>
<!-- bus_dismount&#45;&gt;bus_rally -->
<g id="edge11" class="edge">
<title>bus_dismount&#45;&gt;bus_rally</title>
<path fill="none" stroke="#000000" d="M331.4984,-66.3963C343.2065,-74.4241 356.635,-84.7739 367,-96 395.4431,-126.8061 405.441,-135.696 417,-176 428.4561,-215.9452 440.1626,-234.9985 417,-269.5 412.2791,-276.5319 371.9271,-292.1921 339.0998,-304.0282"/>
<polygon fill="#000000" stroke="#000000" points="337.8784,-300.7479 329.6399,-307.4096 340.2345,-307.3395 337.8784,-300.7479"/>
</g>
<!-- cluster_panic_node&#45;&gt;cluster_business_node -->
<g id="edge19" class="edge">
<title>cluster_panic_node&#45;&gt;cluster_business_node</title>
<path fill="none" stroke="#0000ff" d="M151,-269.5C152.5014,-270.8405 153.9985,-272.1077 155.4917,-273.3051"/>
<polygon fill="#0000ff" stroke="#0000ff" points="153.8392,-276.4277 164.0018,-279.423 157.9252,-270.744 153.8392,-276.4277"/>
</g>
<!-- pan_flight -->
<g id="node12" class="node">
<title>pan_flight</title>
<ellipse fill="none" stroke="#000000" cx="79" cy="-220.5" rx="46.5926" ry="18"/>
<text text-anchor="middle" x="79" y="-216.8" font-family="Times,serif" font-size="14.00" fill="#000000">pan_flight</text>
</g>
<!-- pan_hide -->
<g id="node13" class="node">
<title>pan_hide</title>
<ellipse fill="none" stroke="#000000" cx="81" cy="-122" rx="42.7926" ry="18"/>
<text text-anchor="middle" x="81" y="-118.3" font-family="Times,serif" font-size="14.00" fill="#000000">pan_hide</text>
</g>
<!-- pan_flight&#45;&gt;pan_hide -->
<g id="edge12" class="edge">
<title>pan_flight&#45;&gt;pan_hide</title>
<path fill="none" stroke="#000000" d="M79.3668,-202.4336C79.661,-187.9456 80.0794,-167.3416 80.419,-150.6145"/>
<polygon fill="#000000" stroke="#000000" points="83.9249,-150.3545 80.6287,-140.2855 76.9263,-150.2123 83.9249,-150.3545"/>
</g>
<!-- pan_hidden -->
<g id="node14" class="node">
<title>pan_hidden</title>
<ellipse fill="none" stroke="#000000" cx="84" cy="-50" rx="51.9908" ry="18"/>
<text text-anchor="middle" x="84" y="-46.3" font-family="Times,serif" font-size="14.00" fill="#000000">pan_hidden</text>
</g>
<!-- pan_hide&#45;&gt;pan_hidden -->
<g id="edge13" class="edge">
<title>pan_hide&#45;&gt;pan_hidden</title>
<path fill="none" stroke="#000000" d="M81.757,-103.8314C82.0779,-96.131 82.4594,-86.9743 82.816,-78.4166"/>
<polygon fill="#000000" stroke="#000000" points="86.3133,-78.5503 83.2328,-68.4133 79.3194,-78.2589 86.3133,-78.5503"/>
</g>
<!-- act_asOrdered&#45;&gt;cluster_business_node -->
<g id="edge17" class="edge">
<title>act_asOrdered&#45;&gt;cluster_business_node</title>
<path fill="none" stroke="#000000" d="M483.7343,-238.6436C474.6275,-248.3009 461.5654,-260.0913 449,-269.5 447.4394,-270.6685 445.8501,-271.8348 444.2372,-272.9964"/>
<polygon fill="#000000" stroke="#000000" points="442.1893,-270.1576 435.9991,-278.756 446.2002,-275.8945 442.1893,-270.1576"/>
</g>
<!-- act_surrendered&#45;&gt;cluster_business_node -->
<g id="edge15" class="edge">
<title>act_surrendered&#45;&gt;cluster_business_node</title>
<path fill="none" stroke="#000000" d="M108.9281,-337.0701C116.3361,-361.1629 132.4878,-403.8044 160,-430 163.1701,-433.0184 164.7181,-433.0913 169,-434 187.5861,-437.9442 321.4139,-437.9442 340,-434 363.5889,-428.9941 369.3339,-403.7304 368.7362,-378.1532"/>
<polygon fill="#000000" stroke="#000000" points="372.2221,-377.7951 368.1897,-367.9976 365.2322,-378.1713 372.2221,-377.7951"/>
</g>
<!-- act_surrendered&#45;&gt;cluster_panic_node -->
<g id="edge14" class="edge">
<title>act_surrendered&#45;&gt;cluster_panic_node</title>
<path fill="none" stroke="#000000" d="M117.6594,-300.5399C122.0312,-294.0868 126.7656,-286.4945 130.744,-278.6951"/>
<polygon fill="#000000" stroke="#000000" points="133.9758,-280.0452 135,-269.5 127.6232,-277.1049 133.9758,-280.0452"/>
</g>
<!-- cyc_spawn -->
<g id="node17" class="node">
<title>cyc_spawn</title>
<polygon fill="none" stroke="#000000" points="738.5,-515 661.5,-515 661.5,-438 738.5,-438 738.5,-515"/>
<polyline fill="none" stroke="#000000" points="673.5,-515 661.5,-503 "/>
<polyline fill="none" stroke="#000000" points="661.5,-450 673.5,-438 "/>
<polyline fill="none" stroke="#000000" points="726.5,-438 738.5,-450 "/>
<polyline fill="none" stroke="#000000" points="738.5,-503 726.5,-515 "/>
<text text-anchor="middle" x="700" y="-472.8" font-family="Times,serif" font-size="14.00" fill="#000000">cyc_spawn</text>
</g>
<!-- cyc_spawn&#45;&gt;cluster_life_node -->
<g id="edge21" class="edge">
<title>cyc_spawn&#45;&gt;cluster_life_node</title>
<path fill="none" stroke="#000000" d="M700,-437.9712C700,-437.8096 700,-437.6478 700,-437.4857"/>
<polygon fill="#000000" stroke="#000000" points="703.5001,-439.9977 700,-429.9978 696.5001,-439.9978 703.5001,-439.9977"/>
</g>
</g>
</svg>
