<?xml version="1.0" encoding="UTF-8" standalone="no"?>
<!DOCTYPE svg PUBLIC "-//W3C//DTD SVG 1.1//EN"
 "http://www.w3.org/Graphics/SVG/1.1/DTD/svg11.dtd">
<!-- Generated by graphviz version 2.40.1 (20161225.0304)
 -->
<!-- Title: civs Pages: 1 -->
<svg width="526pt" height="724pt"
 viewBox="0.00 0.00 526.00 724.00" xmlns="http://www.w3.org/2000/svg" xmlns:xlink="http://www.w3.org/1999/xlink">
<g id="graph0" class="graph" transform="scale(1 1) rotate(0) translate(4 720)">
<title>civs</title>
<polygon fill="#ffffff" stroke="transparent" points="-4,4 -4,-720 522,-720 522,4 -4,4"/>
<g id="clust1" class="cluster">
<title>cluster_emotions</title>
<polygon fill="#ffff00" stroke="#000000" points="8,-512 8,-708 140,-708 140,-512 8,-512"/>
</g>
<g id="clust3" class="cluster">
<title>cluster_activities</title>
<polygon fill="#00ff00" stroke="#000000" points="148,-8 148,-708 510,-708 510,-8 148,-8"/>
</g>
<!-- emo_relaxed -->
<g id="node1" class="node">
<title>emo_relaxed</title>
<ellipse fill="none" stroke="#000000" cx="73" cy="-682" rx="56.59" ry="18"/>
<text text-anchor="middle" x="73" y="-678.3" font-family="Times,serif" font-size="14.00" fill="#000000">emo_relaxed</text>
</g>
<!-- emo_wary -->
<g id="node2" class="node">
<title>emo_wary</title>
<ellipse fill="none" stroke="#000000" cx="64" cy="-610" rx="48.1917" ry="18"/>
<text text-anchor="middle" x="64" y="-606.3" font-family="Times,serif" font-size="14.00" fill="#000000">emo_wary</text>
</g>
<!-- emo_relaxed&#45;&gt;emo_wary -->
<g id="edge1" class="edge">
<title>emo_relaxed&#45;&gt;emo_wary</title>
<path fill="none" stroke="#000000" d="M64.7765,-663.8314C63.0635,-656.131 61.6981,-646.9743 60.937,-638.4166"/>
<polygon fill="#000000" stroke="#000000" points="64.4292,-638.1811 60.3257,-628.4133 57.4423,-638.6082 64.4292,-638.1811"/>
</g>
<!-- emo_panic -->
<g id="node3" class="node">
<title>emo_panic</title>
<ellipse fill="none" stroke="#000000" cx="66" cy="-538" rx="50.0912" ry="18"/>
<text text-anchor="middle" x="66" y="-534.3" font-family="Times,serif" font-size="14.00" fill="#000000">emo_panic</text>
</g>
<!-- emo_relaxed&#45;&gt;emo_panic -->
<g id="edge2" class="edge">
<title>emo_relaxed&#45;&gt;emo_panic</title>
<path fill="none" stroke="#000000" d="M93.9658,-665.0961C104.2221,-655.4504 115.5171,-642.4212 121,-628 126.6861,-613.0445 127.1907,-606.7538 121,-592 115.9842,-580.0463 106.8886,-569.4067 97.5191,-560.7985"/>
<polygon fill="#000000" stroke="#000000" points="99.536,-557.9173 89.6679,-554.0612 94.9775,-563.2296 99.536,-557.9173"/>
</g>
<!-- emo_wary&#45;&gt;emo_relaxed -->
<g id="edge5" class="edge">
<title>emo_wary&#45;&gt;emo_relaxed</title>
<path fill="none" stroke="#000000" d="M72.1664,-627.9134C73.9136,-635.6993 75.3053,-645.01 76.0728,-653.6941"/>
<polygon fill="#000000" stroke="#000000" points="72.5883,-654.0591 76.6813,-663.8314 79.5758,-653.6396 72.5883,-654.0591"/>
</g>
<!-- emo_wary&#45;&gt;emo_panic -->
<g id="edge3" class="edge">
<title>emo_wary&#45;&gt;emo_panic</title>
<path fill="none" stroke="#000000" d="M58.5523,-591.8314C58.0075,-584.0125 58.0504,-574.6923 58.6211,-566.0221"/>
<polygon fill="#000000" stroke="#000000" points="62.12,-566.1981 59.5751,-555.9134 55.151,-565.5403 62.12,-566.1981"/>
</g>
<!-- emo_panic&#45;&gt;emo_wary -->
<g id="edge4" class="edge">
<title>emo_panic&#45;&gt;emo_wary</title>
<path fill="none" stroke="#000000" d="M71.4297,-555.9134C71.9873,-563.6993 71.9566,-573.01 71.3973,-581.6941"/>
<polygon fill="#000000" stroke="#000000" points="67.8957,-581.5508 70.4571,-591.8314 74.8658,-582.1974 67.8957,-581.5508"/>
</g>
<!-- act_rally -->
<g id="node4" class="node">
<title>act_rally</title>
<ellipse fill="none" stroke="#000000" cx="441" cy="-610" rx="41.6928" ry="18"/>
<text text-anchor="middle" x="441" y="-606.3" font-family="Times,serif" font-size="14.00" fill="#000000">act_rally</text>
</g>
<!-- act_patrol -->
<g id="node5" class="node">
<title>act_patrol</title>
<ellipse fill="none" stroke="#000000" cx="376" cy="-394" rx="46.2923" ry="18"/>
<text text-anchor="middle" x="376" y="-390.3" font-family="Times,serif" font-size="14.00" fill="#000000">act_patrol</text>
</g>
<!-- act_rally&#45;&gt;act_patrol -->
<g id="edge6" class="edge">
<title>act_rally&#45;&gt;act_patrol</title>
<path fill="none" stroke="#000000" d="M435.5699,-591.9555C424.2189,-554.235 397.9131,-466.8188 384.3778,-421.8399"/>
<polygon fill="#000000" stroke="#000000" points="387.6935,-420.7123 381.4603,-412.1451 380.9905,-422.7295 387.6935,-420.7123"/>
</g>
<!-- act_mountUp -->
<g id="node6" class="node">
<title>act_mountUp</title>
<ellipse fill="none" stroke="#000000" cx="253" cy="-538" rx="59.2899" ry="18"/>
<text text-anchor="middle" x="253" y="-534.3" font-family="Times,serif" font-size="14.00" fill="#000000">act_mountUp</text>
</g>
<!-- act_rally&#45;&gt;act_mountUp -->
<g id="edge7" class="edge">
<title>act_rally&#45;&gt;act_mountUp</title>
<path fill="none" stroke="#000000" d="M409.533,-597.9488C379.4359,-586.4223 333.686,-568.901 299.4066,-555.7727"/>
<polygon fill="#000000" stroke="#000000" points="300.6551,-552.503 290.0647,-552.195 298.1515,-559.04 300.6551,-552.503"/>
</g>
<!-- act_flight -->
<g id="node9" class="node">
<title>act_flight</title>
<ellipse fill="none" stroke="#000000" cx="277" cy="-322" rx="44.393" ry="18"/>
<text text-anchor="middle" x="277" y="-318.3" font-family="Times,serif" font-size="14.00" fill="#000000">act_flight</text>
</g>
<!-- act_rally&#45;&gt;act_flight -->
<g id="edge16" class="edge">
<title>act_rally&#45;&gt;act_flight</title>
<path fill="none" stroke="#ff0000" d="M423.159,-593.4696C415.3284,-582.7874 406.6452,-568.5819 399,-556 360.1712,-492.0983 347.7893,-477.6524 312,-412 300.8139,-391.48 289.248,-367.7049 282.0847,-349.7458"/>
<polygon fill="#ff0000" stroke="#ff0000" points="285.2835,-348.3074 278.5001,-340.1688 278.7277,-350.7612 285.2835,-348.3074"/>
</g>
<!-- act_surrendered -->
<g id="node12" class="node">
<title>act_surrendered</title>
<ellipse fill="none" stroke="#000000" cx="402" cy="-106" rx="66.8882" ry="18"/>
<text text-anchor="middle" x="402" y="-102.3" font-family="Times,serif" font-size="14.00" fill="#000000">act_surrendered</text>
</g>
<!-- act_rally&#45;&gt;act_surrendered -->
<g id="edge12" class="edge">
<title>act_rally&#45;&gt;act_surrendered</title>
<path fill="none" stroke="#000000" d="M443.6115,-591.81C452.2246,-564.9218 472,-512.7039 472,-466 472,-466 472,-466 472,-250 472,-209.7538 481.6017,-195.1501 462,-160 455.1516,-147.7193 444.2525,-137.2667 433.5447,-128.9232"/>
<polygon fill="#000000" stroke="#000000" points="435.5881,-126.0813 425.4639,-122.9587 431.4311,-131.7133 435.5881,-126.0813"/>
</g>
<!-- act_asOrdered -->
<g id="node13" class="node">
<title>act_asOrdered</title>
<ellipse fill="none" stroke="#000000" cx="402" cy="-34" rx="61.99" ry="18"/>
<text text-anchor="middle" x="402" y="-30.3" font-family="Times,serif" font-size="14.00" fill="#000000">act_asOrdered</text>
</g>
<!-- act_rally&#45;&gt;act_asOrdered -->
<g id="edge30" class="edge">
<title>act_rally&#45;&gt;act_asOrdered</title>
<path fill="none" stroke="#ff0000" d="M448.0958,-591.9118C462.6656,-565.5658 492,-514.4792 492,-466 492,-466 492,-466 492,-178 492,-136.7145 492.3667,-122.0366 469,-88 460.3752,-75.4368 447.815,-64.8107 435.8282,-56.396"/>
<polygon fill="#ff0000" stroke="#ff0000" points="437.5227,-53.3184 427.2658,-50.6635 433.6284,-59.1352 437.5227,-53.3184"/>
</g>
<!-- act_patrol&#45;&gt;act_flight -->
<g id="edge17" class="edge">
<title>act_patrol&#45;&gt;act_flight</title>
<path fill="none" stroke="#ff0000" d="M354.0287,-378.0209C340.3143,-368.0468 322.4661,-355.0663 307.404,-344.112"/>
<polygon fill="#ff0000" stroke="#ff0000" points="309.0559,-340.9856 298.9099,-337.9345 304.9387,-346.6468 309.0559,-340.9856"/>
</g>
<!-- act_patrol&#45;&gt;act_surrendered -->
<g id="edge13" class="edge">
<title>act_patrol&#45;&gt;act_surrendered</title>
<path fill="none" stroke="#000000" d="M371.3014,-375.8512C359.2686,-327.9303 329.4223,-199.0151 346,-160 350.9516,-148.3465 359.7868,-137.9863 368.997,-129.535"/>
<polygon fill="#000000" stroke="#000000" points="371.4269,-132.0621 376.7447,-122.8984 366.8731,-126.7458 371.4269,-132.0621"/>
</g>
<!-- act_patrol&#45;&gt;act_asOrdered -->
<g id="edge31" class="edge">
<title>act_patrol&#45;&gt;act_asOrdered</title>
<path fill="none" stroke="#ff0000" d="M365.9691,-376.254C339.7488,-327.3173 274.6426,-187.4921 326,-88 333.1784,-74.0937 345.7756,-62.9889 358.6743,-54.5531"/>
<polygon fill="#ff0000" stroke="#ff0000" points="360.8598,-57.3207 367.5896,-49.1377 357.2257,-51.338 360.8598,-57.3207"/>
</g>
<!-- act_voyage -->
<g id="node7" class="node">
<title>act_voyage</title>
<ellipse fill="none" stroke="#000000" cx="247" cy="-466" rx="50.8918" ry="18"/>
<text text-anchor="middle" x="247" y="-462.3" font-family="Times,serif" font-size="14.00" fill="#000000">act_voyage</text>
</g>
<!-- act_mountUp&#45;&gt;act_voyage -->
<g id="edge8" class="edge">
<title>act_mountUp&#45;&gt;act_voyage</title>
<path fill="none" stroke="#000000" d="M251.4859,-519.8314C250.8442,-512.131 250.0812,-502.9743 249.3681,-494.4166"/>
<polygon fill="#000000" stroke="#000000" points="252.8529,-494.088 248.5344,-484.4133 245.8771,-494.6694 252.8529,-494.088"/>
</g>
<!-- act_dismount -->
<g id="node8" class="node">
<title>act_dismount</title>
<ellipse fill="none" stroke="#000000" cx="214" cy="-394" rx="58.4896" ry="18"/>
<text text-anchor="middle" x="214" y="-390.3" font-family="Times,serif" font-size="14.00" fill="#000000">act_dismount</text>
</g>
<!-- act_mountUp&#45;&gt;act_dismount -->
<g id="edge9" class="edge">
<title>act_mountUp&#45;&gt;act_dismount</title>
<path fill="none" stroke="#000000" d="M223.6956,-522.2928C209.8354,-513.1373 194.6713,-500.1882 187,-484 177.3188,-463.5703 186.0321,-438.8844 196.0613,-420.5376"/>
<polygon fill="#000000" stroke="#000000" points="199.1277,-422.2277 201.175,-411.8325 193.092,-418.6821 199.1277,-422.2277"/>
</g>
<!-- act_mountUp&#45;&gt;act_flight -->
<g id="edge22" class="edge">
<title>act_mountUp&#45;&gt;act_flight</title>
<path fill="none" stroke="#000000" d="M276.8092,-521.3862C288.2559,-511.9083 300.8101,-498.9438 307,-484 316.8932,-460.1157 297.8572,-389.1891 285.8138,-349.5631"/>
<polygon fill="#000000" stroke="#000000" points="289.1482,-348.4986 282.8513,-339.9781 282.4604,-350.5657 289.1482,-348.4986"/>
</g>
<!-- act_voyage&#45;&gt;act_dismount -->
<g id="edge19" class="edge">
<title>act_voyage&#45;&gt;act_dismount</title>
<path fill="none" stroke="#ff0000" d="M233.1334,-448.5708C228.5684,-440.4409 223.8112,-430.571 220.0127,-421.4722"/>
<polygon fill="#ff0000" stroke="#ff0000" points="223.2195,-420.0623 216.3216,-412.0206 216.6991,-422.6087 223.2195,-420.0623"/>
</g>
<!-- act_voyage&#45;&gt;act_dismount -->
<g id="edge20" class="edge">
<title>act_voyage&#45;&gt;act_dismount</title>
<path fill="none" stroke="#000000" d="M244.6251,-447.8314C241.6794,-439.6688 237.3887,-429.87 232.875,-420.8827"/>
<polygon fill="#000000" stroke="#000000" points="235.9029,-419.1211 228.1376,-411.9134 229.7132,-422.3904 235.9029,-419.1211"/>
</g>
<!-- act_dismount&#45;&gt;act_rally -->
<g id="edge26" class="edge">
<title>act_dismount&#45;&gt;act_rally</title>
<path fill="none" stroke="#000000" d="M198.3858,-411.5996C190.6215,-421.5407 182.0487,-434.628 178,-448 164.0612,-494.0368 152.9262,-520.1538 185,-556 211.6655,-585.8018 322.7594,-600.1542 389.5247,-606.2109"/>
<polygon fill="#000000" stroke="#000000" points="389.5729,-609.7284 399.8398,-607.1128 390.1827,-602.755 389.5729,-609.7284"/>
</g>
<!-- act_dismount&#45;&gt;act_flight -->
<g id="edge21" class="edge">
<title>act_dismount&#45;&gt;act_flight</title>
<path fill="none" stroke="#000000" d="M229.2505,-376.5708C237.0663,-367.6385 246.7201,-356.6056 255.2974,-346.8029"/>
<polygon fill="#000000" stroke="#000000" points="257.9388,-349.0993 261.8899,-339.2687 252.6708,-344.4897 257.9388,-349.0993"/>
</g>
<!-- act_dismount&#45;&gt;act_surrendered -->
<g id="edge14" class="edge">
<title>act_dismount&#45;&gt;act_surrendered</title>
<path fill="none" stroke="#000000" d="M213.153,-375.6963C212.9374,-356.9862 214.4237,-327.4296 224,-304 254.9873,-228.1857 328.3515,-162.4664 370.5866,-129.187"/>
<polygon fill="#000000" stroke="#000000" points="372.8428,-131.8665 378.5968,-122.9703 368.5509,-126.3365 372.8428,-131.8665"/>
</g>
<!-- act_flight&#45;&gt;act_rally -->
<g id="edge23" class="edge">
<title>act_flight&#45;&gt;act_rally</title>
<path fill="none" stroke="#0000ff" d="M291.506,-339.148C302.3032,-357.428 316.431,-387.1087 330,-412 365.7893,-477.6524 378.1712,-492.0983 417,-556 422.3631,-564.8261 428.2369,-574.4512 433.0778,-583.0985"/>
<polygon fill="#0000ff" stroke="#0000ff" points="430.0458,-584.8507 437.8522,-592.0139 436.2166,-581.5461 430.0458,-584.8507"/>
</g>
<!-- act_hide -->
<g id="node10" class="node">
<title>act_hide</title>
<ellipse fill="none" stroke="#000000" cx="400" cy="-250" rx="40.0939" ry="18"/>
<text text-anchor="middle" x="400" y="-246.3" font-family="Times,serif" font-size="14.00" fill="#000000">act_hide</text>
</g>
<!-- act_flight&#45;&gt;act_hide -->
<g id="edge10" class="edge">
<title>act_flight&#45;&gt;act_hide</title>
<path fill="none" stroke="#000000" d="M302.4857,-307.0816C321.036,-296.2229 346.3359,-281.4131 366.5168,-269.5999"/>
<polygon fill="#000000" stroke="#000000" points="368.5243,-272.4804 375.3863,-264.408 364.988,-266.4393 368.5243,-272.4804"/>
</g>
<!-- act_hide&#45;&gt;act_rally -->
<g id="edge24" class="edge">
<title>act_hide&#45;&gt;act_rally</title>
<path fill="none" stroke="#0000ff" d="M408.4952,-267.7223C420.5044,-294.448 441,-346.9516 441,-394 441,-466 441,-466 441,-466 441,-506.124 441,-552.5369 441,-581.5823"/>
<polygon fill="#0000ff" stroke="#0000ff" points="437.5001,-581.8146 441,-591.8146 444.5001,-581.8147 437.5001,-581.8146"/>
</g>
<!-- act_hidden -->
<g id="node11" class="node">
<title>act_hidden</title>
<ellipse fill="none" stroke="#000000" cx="413" cy="-178" rx="49.2915" ry="18"/>
<text text-anchor="middle" x="413" y="-174.3" font-family="Times,serif" font-size="14.00" fill="#000000">act_hidden</text>
</g>
<!-- act_hide&#45;&gt;act_hidden -->
<g id="edge11" class="edge">
<title>act_hide&#45;&gt;act_hidden</title>
<path fill="none" stroke="#000000" d="M403.2804,-231.8314C404.6708,-224.131 406.3241,-214.9743 407.8692,-206.4166"/>
<polygon fill="#000000" stroke="#000000" points="411.3428,-206.8761 409.6754,-196.4133 404.4542,-205.6322 411.3428,-206.8761"/>
</g>
<!-- act_hidden&#45;&gt;act_rally -->
<g id="edge25" class="edge">
<title>act_hidden&#45;&gt;act_rally</title>
<path fill="none" stroke="#0000ff" d="M427.55,-195.3549C435.196,-205.4256 443.9951,-218.7146 449,-232 463.2261,-269.7632 461,-281.646 461,-322 461,-466 461,-466 461,-466 461,-506.6876 453.0696,-553.2324 447.1963,-582.1243"/>
<polygon fill="#0000ff" stroke="#0000ff" points="443.7676,-581.4214 445.144,-591.9265 450.6191,-582.856 443.7676,-581.4214"/>
</g>
<!-- act_hidden&#45;&gt;act_surrendered -->
<g id="edge15" class="edge">
<title>act_hidden&#45;&gt;act_surrendered</title>
<path fill="none" stroke="#000000" d="M410.2242,-159.8314C409.0478,-152.131 407.6489,-142.9743 406.3414,-134.4166"/>
<polygon fill="#000000" stroke="#000000" points="409.7833,-133.7699 404.8131,-124.4133 402.8636,-134.8272 409.7833,-133.7699"/>
</g>
<!-- act_surrendered&#45;&gt;act_rally -->
<g id="edge27" class="edge">
<title>act_surrendered&#45;&gt;act_rally</title>
<path fill="none" stroke="#000000" d="M438.7664,-121.1255C454.3374,-130.3419 470.8132,-143.5261 480,-160 499.6017,-195.1501 490,-209.7538 490,-250 490,-466 490,-466 490,-466 490,-508.4267 473.6808,-555.4038 459.5443,-583.8091"/>
<polygon fill="#000000" stroke="#000000" points="456.4264,-582.2183 454.8606,-592.6969 462.6191,-585.4819 456.4264,-582.2183"/>
</g>
<!-- act_surrendered&#45;&gt;act_hide -->
<g id="edge29" class="edge">
<title>act_surrendered&#45;&gt;act_hide</title>
<path fill="none" stroke="#000000" d="M381.2172,-123.2243C371.2379,-132.8692 360.3146,-145.7989 355,-160 349.3921,-174.985 349.5532,-180.9557 355,-196 359.0077,-207.0694 366.385,-217.4643 374.0233,-226.1212"/>
<polygon fill="#000000" stroke="#000000" points="371.6181,-228.6724 381.0222,-233.5523 376.7138,-223.873 371.6181,-228.6724"/>
</g>
<!-- act_surrendered&#45;&gt;act_asOrdered -->
<g id="edge32" class="edge">
<title>act_surrendered&#45;&gt;act_asOrdered</title>
<path fill="none" stroke="#ff0000" d="M402,-87.8314C402,-80.131 402,-70.9743 402,-62.4166"/>
<polygon fill="#ff0000" stroke="#ff0000" points="405.5001,-62.4132 402,-52.4133 398.5001,-62.4133 405.5001,-62.4132"/>
</g>
<!-- act_asOrdered&#45;&gt;act_rally -->
<g id="edge33" class="edge">
<title>act_asOrdered&#45;&gt;act_rally</title>
<path fill="none" stroke="#000000" d="M439.4838,-48.4069C456.5705,-57.6309 475.3657,-71.0531 487,-88 510.3667,-122.0366 510,-136.7145 510,-178 510,-466 510,-466 510,-466 510,-510.7224 485.0358,-557.6639 464.8976,-585.354"/>
<polygon fill="#000000" stroke="#000000" points="461.8563,-583.5695 458.5665,-593.6406 467.4187,-587.8192 461.8563,-583.5695"/>
</g>
<!-- act_asOrdered&#45;&gt;act_flight -->
<g id="edge18" class="edge">
<title>act_asOrdered&#45;&gt;act_flight</title>
<path fill="none" stroke="#ff0000" d="M357.5671,-46.6225C336.6453,-54.92 313.396,-68.0332 300,-88 257.4849,-151.3691 264.7969,-246.967 271.8361,-293.9344"/>
<polygon fill="#ff0000" stroke="#ff0000" points="268.4092,-294.669 273.4525,-303.9865 275.3204,-293.5577 268.4092,-294.669"/>
</g>
<!-- act_init -->
<g id="node14" class="node">
<title>act_init</title>
<ellipse fill="none" stroke="#000000" cx="441" cy="-682" rx="37.0935" ry="18"/>
<text text-anchor="middle" x="441" y="-678.3" font-family="Times,serif" font-size="14.00" fill="#000000">act_init</text>
</g>
<!-- act_init&#45;&gt;act_rally -->
<g id="edge28" class="edge">
<title>act_init&#45;&gt;act_rally</title>
<path fill="none" stroke="#000000" d="M441,-663.8314C441,-656.131 441,-646.9743 441,-638.4166"/>
<polygon fill="#000000" stroke="#000000" points="444.5001,-638.4132 441,-628.4133 437.5001,-638.4133 444.5001,-638.4132"/>
</g>
</g>
</svg>
