<?xml version="1.0" encoding="UTF-8" standalone="no"?>
<!DOCTYPE svg PUBLIC "-//W3C//DTD SVG 1.1//EN"
 "http://www.w3.org/Graphics/SVG/1.1/DTD/svg11.dtd">
<!-- Generated by graphviz version 2.44.2~dev.20200910.0243 (20200910.0243)
 -->
<!-- Title: lifecycle Pages: 1 -->
<svg width="1388pt" height="552pt"
 viewBox="0.00 0.00 1388.00 552.00" xmlns="http://www.w3.org/2000/svg" xmlns:xlink="http://www.w3.org/1999/xlink">
<g id="graph0" class="graph" transform="scale(1 1) rotate(0) translate(4 548)">
<title>lifecycle</title>
<polygon fill="gray" stroke="transparent" points="-4,4 -4,-548 1384,-548 1384,4 -4,4"/>
<g id="clust1" class="cluster">
<title>cluster_life</title>
<polygon fill="white" stroke="black" points="8,-8 8,-456 1052,-456 1052,-8 8,-8"/>
<text text-anchor="middle" x="530" y="-440.8" font-family="Times New Roman,serif" font-size="14.00">cyc_life</text>
</g>
<g id="clust2" class="cluster">
<title>cluster_emotions</title>
<polygon fill="lightyellow" stroke="black" points="898,-96 898,-394 1032,-394 1032,-96 898,-96"/>
<text text-anchor="middle" x="965" y="-378.8" font-family="Times New Roman,serif" font-size="14.00">emo</text>
</g>
<g id="clust4" class="cluster">
<title>cluster_activities</title>
<polygon fill="lightblue" stroke="black" points="16,-16 16,-425 890,-425 890,-16 16,-16"/>
<text text-anchor="middle" x="453" y="-409.8" font-family="Times New Roman,serif" font-size="14.00">act</text>
</g>
<g id="clust5" class="cluster">
<title>cluster_business</title>
<polygon fill="lightgreen" stroke="black" points="164,-24 164,-394 772,-394 772,-24 164,-24"/>
<text text-anchor="middle" x="468" y="-378.8" font-family="Times New Roman,serif" font-size="14.00">bus</text>
</g>
<g id="clust6" class="cluster">
<title>cluster_panic</title>
<polygon fill="pink" stroke="black" points="24,-24 24,-282.5 156,-282.5 156,-24 24,-24"/>
<text text-anchor="middle" x="90" y="-267.3" font-family="Times New Roman,serif" font-size="14.00">panic</text>
</g>
<!-- cluster_life_node -->
<!-- cyc_despawn -->
<g id="node23" class="node">
<title>cyc_despawn</title>
<polygon fill="none" stroke="black" points="1288,-280.5 1194,-280.5 1194,-186.5 1288,-186.5 1288,-280.5"/>
<polyline fill="none" stroke="black" points="1206,-280.5 1194,-268.5 "/>
<polyline fill="none" stroke="black" points="1194,-198.5 1206,-186.5 "/>
<polyline fill="none" stroke="black" points="1276,-186.5 1288,-198.5 "/>
<polyline fill="none" stroke="black" points="1288,-268.5 1276,-280.5 "/>
<text text-anchor="middle" x="1241" y="-229.8" font-family="Times New Roman,serif" font-size="14.00">cyc_despawn</text>
</g>
<!-- cluster_life_node&#45;&gt;cyc_despawn -->
<g id="edge31" class="edge">
<title>cluster_life_node:&#45;&gt;cyc_despawn:</title>
<path fill="none" stroke="black" d="M1052,-341.88C1076.3,-336.4 1139.79,-320.13 1185,-291 1186.93,-289.75 1188.85,-288.43 1190.75,-287.05"/>
<polygon fill="black" stroke="black" points="1193.22,-289.56 1198.92,-280.63 1188.9,-284.05 1193.22,-289.56"/>
</g>
<!-- cyc_death -->
<g id="node24" class="node">
<title>cyc_death</title>
<polygon fill="none" stroke="black" points="1380,-270.5 1306,-270.5 1306,-196.5 1380,-196.5 1380,-270.5"/>
<polyline fill="none" stroke="black" points="1318,-270.5 1306,-258.5 "/>
<polyline fill="none" stroke="black" points="1306,-208.5 1318,-196.5 "/>
<polyline fill="none" stroke="black" points="1368,-196.5 1380,-208.5 "/>
<polyline fill="none" stroke="black" points="1380,-258.5 1368,-270.5 "/>
<text text-anchor="middle" x="1343" y="-229.8" font-family="Times New Roman,serif" font-size="14.00">cyc_death</text>
</g>
<!-- cluster_life_node&#45;&gt;cyc_death -->
<g id="edge32" class="edge">
<title>cluster_life_node:&#45;&gt;cyc_death:</title>
<path fill="none" stroke="blue" d="M1052,-344.23C1087.96,-344.62 1213.06,-342.02 1297,-291 1302.74,-287.51 1308.07,-283.04 1312.93,-278.15"/>
<polygon fill="blue" stroke="blue" points="1315.53,-280.48 1319.68,-270.74 1310.36,-275.77 1315.53,-280.48"/>
</g>
<!-- cyc_unconscious -->
<g id="node25" class="node">
<title>cyc_unconscious</title>
<polygon fill="none" stroke="black" points="1175.5,-291 1060.5,-291 1060.5,-176 1175.5,-176 1175.5,-291"/>
<polyline fill="none" stroke="black" points="1072.5,-291 1060.5,-279 "/>
<polyline fill="none" stroke="black" points="1060.5,-188 1072.5,-176 "/>
<polyline fill="none" stroke="black" points="1163.5,-176 1175.5,-188 "/>
<polyline fill="none" stroke="black" points="1175.5,-279 1163.5,-291 "/>
<text text-anchor="middle" x="1118" y="-229.8" font-family="Times New Roman,serif" font-size="14.00">cyc_unconscious</text>
</g>
<!-- cluster_life_node&#45;&gt;cyc_unconscious -->
<g id="edge33" class="edge">
<title>cluster_life_node:&#45;&gt;cyc_unconscious:</title>
<path fill="none" stroke="blue" d="M1052,-321.57C1056.01,-315 1060.88,-307.47 1066.14,-299.65"/>
<polygon fill="blue" stroke="blue" points="1069.15,-301.44 1071.89,-291.21 1063.37,-297.5 1069.15,-301.44"/>
</g>
<!-- emo_relaxed -->
<g id="node2" class="node">
<title>emo_relaxed</title>
<ellipse fill="none" stroke="black" cx="963" cy="-345" rx="57.39" ry="18"/>
<text text-anchor="middle" x="963" y="-341.3" font-family="Times New Roman,serif" font-size="14.00">emo_relaxed</text>
</g>
<!-- emo_wary -->
<g id="node3" class="node">
<title>emo_wary</title>
<ellipse fill="none" stroke="black" cx="955" cy="-233.5" rx="48.99" ry="18"/>
<text text-anchor="middle" x="955" y="-229.8" font-family="Times New Roman,serif" font-size="14.00">emo_wary</text>
</g>
<!-- emo_relaxed&#45;&gt;emo_wary -->
<g id="edge1" class="edge">
<title>emo_relaxed:&#45;&gt;emo_wary:</title>
<path fill="none" stroke="black" d="M956.69,-326.89C953.5,-309.45 951.22,-282.14 951.06,-261.73"/>
<polygon fill="black" stroke="black" points="954.57,-261.53 951.19,-251.49 947.57,-261.44 954.57,-261.53"/>
</g>
<!-- emo_panic -->
<g id="node4" class="node">
<title>emo_panic</title>
<ellipse fill="none" stroke="black" cx="957" cy="-122" rx="50.89" ry="18"/>
<text text-anchor="middle" x="957" y="-118.3" font-family="Times New Roman,serif" font-size="14.00">emo_panic</text>
</g>
<!-- emo_relaxed&#45;&gt;emo_panic -->
<g id="edge2" class="edge">
<title>emo_relaxed:&#45;&gt;emo_panic:</title>
<path fill="none" stroke="red" d="M984.29,-328.11C995.1,-318.68 1007.16,-305.7 1013,-291 1031.87,-243.5 1033.21,-222.95 1013,-176 1007.74,-163.78 998.12,-153.05 988.32,-144.51"/>
<polygon fill="red" stroke="red" points="990.46,-141.74 980.5,-138.14 986.04,-147.17 990.46,-141.74"/>
</g>
<!-- emo_wary&#45;&gt;emo_relaxed -->
<g id="edge5" class="edge">
<title>emo_wary:&#45;&gt;emo_relaxed:</title>
<path fill="none" stroke="black" d="M961.29,-251.49C964.48,-268.88 966.77,-296.18 966.94,-316.63"/>
<polygon fill="black" stroke="black" points="963.43,-316.85 966.81,-326.89 970.43,-316.93 963.43,-316.85"/>
</g>
<!-- emo_wary&#45;&gt;emo_panic -->
<g id="edge3" class="edge">
<title>emo_wary:&#45;&gt;emo_panic:</title>
<path fill="none" stroke="red" d="M950.25,-215.39C948.65,-197.87 948.87,-170.39 950.6,-149.95"/>
<polygon fill="red" stroke="red" points="954.08,-150.3 951.64,-139.99 947.12,-149.57 954.08,-150.3"/>
</g>
<!-- emo_panic&#45;&gt;emo_wary -->
<g id="edge4" class="edge">
<title>emo_panic:&#45;&gt;emo_wary:</title>
<path fill="none" stroke="black" d="M961.74,-139.99C963.35,-157.46 963.13,-184.94 961.41,-205.41"/>
<polygon fill="black" stroke="black" points="957.93,-205.08 960.38,-215.39 964.89,-205.81 957.93,-205.08"/>
</g>
<!-- cluster_business_node -->
<!-- cluster_panic_node -->
<!-- cluster_business_node&#45;&gt;cluster_panic_node -->
<g id="edge29" class="edge">
<title>cluster_business_node:&#45;&gt;cluster_panic_node:</title>
<path fill="none" stroke="red" d="M164,-285.36C162.07,-282.64 160.5,-279.66 159.18,-276.53"/>
<polygon fill="red" stroke="red" points="162.5,-275.4 156,-267.03 155.86,-277.63 162.5,-275.4"/>
</g>
<!-- act_asOrdered -->
<g id="node20" class="node">
<title>act_asOrdered</title>
<polygon fill="none" stroke="black" points="881.5,-251.5 782.5,-251.5 782.5,-215.5 881.5,-215.5 881.5,-251.5"/>
<text text-anchor="middle" x="832" y="-229.8" font-family="Times New Roman,serif" font-size="14.00">act_asOrdered</text>
</g>
<!-- cluster_business_node&#45;&gt;act_asOrdered -->
<g id="edge27" class="edge">
<title>cluster_business_node:&#45;&gt;act_asOrdered:</title>
<path fill="none" stroke="blue" d="M772,-288.2C784.57,-280.59 795.9,-269.5 805.41,-259.38"/>
<polygon fill="blue" stroke="blue" points="808.26,-261.45 812.47,-251.72 803.12,-256.7 808.26,-261.45"/>
</g>
<!-- act_surrendered -->
<g id="node21" class="node">
<title>act_surrendered</title>
<polygon fill="none" stroke="black" points="155.5,-363 48.5,-363 48.5,-327 155.5,-327 155.5,-363"/>
<text text-anchor="middle" x="102" y="-341.3" font-family="Times New Roman,serif" font-size="14.00">act_surrendered</text>
</g>
<!-- cluster_business_node&#45;&gt;act_surrendered -->
<g id="edge25" class="edge">
<title>cluster_business_node:&#45;&gt;act_surrendered:</title>
<path fill="none" stroke="black" d="M456.76,-394C458.86,-422.66 454.76,-454.32 428,-460 413.92,-462.99 183.08,-462.99 169,-460 130.82,-451.9 113.86,-404.43 106.73,-373.06"/>
<polygon fill="black" stroke="black" points="110.13,-372.21 104.68,-363.12 103.27,-373.62 110.13,-372.21"/>
</g>
<!-- bus_rally -->
<g id="node6" class="node">
<title>bus_rally</title>
<ellipse fill="none" stroke="black" cx="384" cy="-345" rx="44.39" ry="18"/>
<text text-anchor="middle" x="384" y="-341.3" font-family="Times New Roman,serif" font-size="14.00">bus_rally</text>
</g>
<!-- bus_patrol -->
<g id="node7" class="node">
<title>bus_patrol</title>
<ellipse fill="none" stroke="black" cx="714" cy="-233.5" rx="50.09" ry="18"/>
<text text-anchor="middle" x="714" y="-229.8" font-family="Times New Roman,serif" font-size="14.00">bus_patrol</text>
</g>
<!-- bus_rally&#45;&gt;bus_patrol -->
<g id="edge6" class="edge">
<title>bus_rally:&#45;&gt;bus_patrol:</title>
<path fill="none" stroke="black" d="M416.58,-332.72C423.28,-330.64 430.33,-328.61 437,-327 532.46,-303.94 567.17,-334.92 655,-291 670.25,-283.37 684.19,-270.44 694.69,-258.88"/>
<polygon fill="black" stroke="black" points="697.47,-261.02 701.38,-251.17 692.18,-256.43 697.47,-261.02"/>
</g>
<!-- bus_mountUp -->
<g id="node8" class="node">
<title>bus_mountUp</title>
<ellipse fill="none" stroke="black" cx="235" cy="-233.5" rx="63.09" ry="18"/>
<text text-anchor="middle" x="235" y="-229.8" font-family="Times New Roman,serif" font-size="14.00">bus_mountUp</text>
</g>
<!-- bus_rally&#45;&gt;bus_mountUp -->
<g id="edge7" class="edge">
<title>bus_rally:&#45;&gt;bus_mountUp:</title>
<path fill="none" stroke="black" d="M361.84,-329.28C346.31,-318.84 325.17,-304.36 307,-291 292.16,-280.09 275.99,-267.47 262.75,-256.93"/>
<polygon fill="black" stroke="black" points="264.91,-254.18 254.91,-250.67 260.54,-259.65 264.91,-254.18"/>
</g>
<!-- bus_rideInBack -->
<g id="node9" class="node">
<title>bus_rideInBack</title>
<ellipse fill="none" stroke="black" cx="384" cy="-233.5" rx="68.49" ry="18"/>
<text text-anchor="middle" x="384" y="-229.8" font-family="Times New Roman,serif" font-size="14.00">bus_rideInBack</text>
</g>
<!-- bus_rally&#45;&gt;bus_rideInBack -->
<g id="edge8" class="edge">
<title>bus_rally:&#45;&gt;bus_rideInBack:</title>
<path fill="none" stroke="black" d="M378.94,-326.89C377.03,-309.45 376.74,-282.14 378.07,-261.73"/>
<polygon fill="black" stroke="black" points="381.58,-261.75 378.95,-251.49 374.61,-261.15 381.58,-261.75"/>
</g>
<!-- bus_housework -->
<g id="node13" class="node">
<title>bus_housework</title>
<ellipse fill="none" stroke="black" cx="559" cy="-233.5" rx="68.79" ry="18"/>
<text text-anchor="middle" x="559" y="-229.8" font-family="Times New Roman,serif" font-size="14.00">bus_housework</text>
</g>
<!-- bus_rally&#45;&gt;bus_housework -->
<g id="edge15" class="edge">
<title>bus_rally:&#45;&gt;bus_housework:</title>
<path fill="none" stroke="black" d="M409.29,-330.1C427.94,-319.69 453.83,-304.91 476,-291 493.41,-280.08 512.38,-267.24 527.79,-256.56"/>
<polygon fill="black" stroke="black" points="530.2,-259.14 536.41,-250.56 526.2,-253.4 530.2,-259.14"/>
</g>
<!-- bus_transit -->
<g id="node10" class="node">
<title>bus_transit</title>
<ellipse fill="none" stroke="black" cx="375" cy="-122" rx="50.89" ry="18"/>
<text text-anchor="middle" x="375" y="-118.3" font-family="Times New Roman,serif" font-size="14.00">bus_transit</text>
</g>
<!-- bus_mountUp&#45;&gt;bus_transit -->
<g id="edge9" class="edge">
<title>bus_mountUp:&#45;&gt;bus_transit:</title>
<path fill="none" stroke="black" d="M255.47,-216.41C269.87,-205.09 289.6,-189.61 307,-176 320.03,-165.81 334.48,-154.54 346.7,-145.03"/>
<polygon fill="black" stroke="black" points="349.01,-147.66 354.75,-138.75 344.71,-142.14 349.01,-147.66"/>
</g>
<!-- bus_voyage -->
<g id="node11" class="node">
<title>bus_voyage</title>
<ellipse fill="none" stroke="black" cx="231" cy="-122" rx="54.69" ry="18"/>
<text text-anchor="middle" x="231" y="-118.3" font-family="Times New Roman,serif" font-size="14.00">bus_voyage</text>
</g>
<!-- bus_mountUp&#45;&gt;bus_voyage -->
<g id="edge10" class="edge">
<title>bus_mountUp:&#45;&gt;bus_voyage:</title>
<path fill="none" stroke="black" d="M234.38,-215.39C233.74,-198.06 232.75,-170.96 232.01,-150.59"/>
<polygon fill="black" stroke="black" points="235.5,-150.22 231.63,-140.35 228.5,-150.47 235.5,-150.22"/>
</g>
<!-- bus_dismount -->
<g id="node12" class="node">
<title>bus_dismount</title>
<ellipse fill="none" stroke="black" cx="340" cy="-50" rx="62.29" ry="18"/>
<text text-anchor="middle" x="340" y="-46.3" font-family="Times New Roman,serif" font-size="14.00">bus_dismount</text>
</g>
<!-- bus_mountUp&#45;&gt;bus_dismount -->
<g id="edge11" class="edge">
<title>bus_mountUp:&#45;&gt;bus_dismount:</title>
<path fill="none" stroke="black" d="M247.07,-215.58C259.79,-197.38 280.01,-167.37 295,-140 305.32,-121.16 305.33,-115.18 315,-96 318.19,-89.67 321.8,-82.95 325.27,-76.68"/>
<polygon fill="black" stroke="black" points="328.34,-78.36 330.18,-67.92 322.23,-74.93 328.34,-78.36"/>
</g>
<!-- bus_rideInBack&#45;&gt;bus_rally -->
<g id="edge16" class="edge">
<title>bus_rideInBack:&#45;&gt;bus_rally:</title>
<path fill="none" stroke="black" d="M389.05,-251.49C390.98,-268.96 391.27,-296.44 389.92,-316.91"/>
<polygon fill="black" stroke="black" points="386.43,-316.63 389.06,-326.89 393.4,-317.23 386.43,-316.63"/>
</g>
<!-- bus_transit&#45;&gt;bus_dismount -->
<g id="edge12" class="edge">
<title>bus_transit:&#45;&gt;bus_dismount:</title>
<path fill="none" stroke="red" d="M366.53,-104.05C362.5,-96.01 357.6,-86.2 353.11,-77.23"/>
<polygon fill="red" stroke="red" points="356.24,-75.65 348.64,-68.28 349.98,-78.78 356.24,-75.65"/>
</g>
<!-- bus_voyage&#45;&gt;bus_dismount -->
<g id="edge13" class="edge">
<title>bus_voyage:&#45;&gt;bus_dismount:</title>
<path fill="none" stroke="red" d="M254.92,-105.64C270.18,-95.84 290.18,-83 306.95,-72.23"/>
<polygon fill="red" stroke="red" points="308.86,-75.16 315.38,-66.81 305.07,-69.27 308.86,-75.16"/>
</g>
<!-- bus_dismount&#45;&gt;bus_rally -->
<g id="edge14" class="edge">
<title>bus_dismount:&#45;&gt;bus_rally:</title>
<path fill="none" stroke="black" d="M383.55,-63.13C401.63,-70.12 421.5,-80.65 435,-96 459.69,-124.07 455.15,-139.07 461,-176 469,-226.48 484.78,-245.76 461,-291 452.87,-306.46 437.96,-318.3 423.41,-326.81"/>
<polygon fill="black" stroke="black" points="421.57,-323.83 414.46,-331.69 424.92,-329.98 421.57,-323.83"/>
</g>
<!-- bus_housework&#45;&gt;bus_housework -->
<g id="edge20" class="edge">
<title>bus_housework:&#45;&gt;bus_housework:</title>
<path fill="none" stroke="black" d="M587.48,-249.89C615.31,-258.94 645.89,-253.48 645.89,-233.5 645.89,-215.86 622.06,-209.54 597.33,-214.52"/>
<polygon fill="black" stroke="black" points="596.26,-211.18 587.48,-217.11 598.04,-217.96 596.26,-211.18"/>
</g>
<!-- bus_meetNeighbor -->
<g id="node14" class="node">
<title>bus_meetNeighbor</title>
<ellipse fill="none" stroke="black" cx="569" cy="-122" rx="79.09" ry="18"/>
<text text-anchor="middle" x="569" y="-118.3" font-family="Times New Roman,serif" font-size="14.00">bus_meetNeighbor</text>
</g>
<!-- bus_housework&#45;&gt;bus_meetNeighbor -->
<g id="edge17" class="edge">
<title>bus_housework:&#45;&gt;bus_meetNeighbor:</title>
<path fill="none" stroke="black" d="M560.56,-215.39C562.15,-198.06 564.62,-170.96 566.48,-150.59"/>
<polygon fill="black" stroke="black" points="569.99,-150.63 567.42,-140.35 563.02,-149.99 569.99,-150.63"/>
</g>
<!-- bus_chat -->
<g id="node15" class="node">
<title>bus_chat</title>
<ellipse fill="none" stroke="black" cx="618" cy="-50" rx="44.39" ry="18"/>
<text text-anchor="middle" x="618" y="-46.3" font-family="Times New Roman,serif" font-size="14.00">bus_chat</text>
</g>
<!-- bus_meetNeighbor&#45;&gt;bus_chat -->
<g id="edge18" class="edge">
<title>bus_meetNeighbor:&#45;&gt;bus_chat:</title>
<path fill="none" stroke="black" d="M580.86,-104.05C586.7,-95.71 593.86,-85.49 600.32,-76.25"/>
<polygon fill="black" stroke="black" points="603.38,-77.99 606.25,-67.79 597.65,-73.97 603.38,-77.99"/>
</g>
<!-- bus_chat&#45;&gt;bus_housework -->
<g id="edge19" class="edge">
<title>bus_chat:&#45;&gt;bus_housework:</title>
<path fill="none" stroke="black" d="M636.47,-66.57C644.41,-74.47 652.81,-84.76 657,-96 663.83,-114.32 664.74,-122.04 657,-140 644.1,-169.91 616.25,-194.64 593.52,-210.99"/>
<polygon fill="black" stroke="black" points="591.32,-208.25 585.11,-216.83 595.32,-214 591.32,-208.25"/>
</g>
<!-- cluster_panic_node&#45;&gt;cluster_business_node -->
<g id="edge28" class="edge">
<title>cluster_panic_node:&#45;&gt;cluster_business_node:</title>
<path fill="none" stroke="red" d="M144.2,-282.5C146.01,-285.66 148.26,-288.55 151,-291 152.64,-292.46 154.27,-293.86 155.89,-295.2"/>
<polygon fill="red" stroke="red" points="153.94,-298.11 164,-301.41 158.2,-292.55 153.94,-298.11"/>
</g>
<!-- pan_flight -->
<g id="node17" class="node">
<title>pan_flight</title>
<ellipse fill="none" stroke="black" cx="79" cy="-233.5" rx="46.59" ry="18"/>
<text text-anchor="middle" x="79" y="-229.8" font-family="Times New Roman,serif" font-size="14.00">pan_flight</text>
</g>
<!-- pan_hide -->
<g id="node18" class="node">
<title>pan_hide</title>
<ellipse fill="none" stroke="black" cx="82" cy="-122" rx="44.39" ry="18"/>
<text text-anchor="middle" x="82" y="-118.3" font-family="Times New Roman,serif" font-size="14.00">pan_hide</text>
</g>
<!-- pan_flight&#45;&gt;pan_hide -->
<g id="edge21" class="edge">
<title>pan_flight:&#45;&gt;pan_hide:</title>
<path fill="none" stroke="black" d="M79.47,-215.39C79.94,-198.06 80.69,-170.96 81.24,-150.59"/>
<polygon fill="black" stroke="black" points="84.75,-150.44 81.52,-140.35 77.75,-150.25 84.75,-150.44"/>
</g>
<!-- pan_hidden -->
<g id="node19" class="node">
<title>pan_hidden</title>
<ellipse fill="none" stroke="black" cx="85" cy="-50" rx="53.09" ry="18"/>
<text text-anchor="middle" x="85" y="-46.3" font-family="Times New Roman,serif" font-size="14.00">pan_hidden</text>
</g>
<!-- pan_hide&#45;&gt;pan_hidden -->
<g id="edge22" class="edge">
<title>pan_hide:&#45;&gt;pan_hidden:</title>
<path fill="none" stroke="black" d="M82.74,-103.7C83.07,-95.98 83.47,-86.71 83.84,-78.11"/>
<polygon fill="black" stroke="black" points="87.34,-78.25 84.27,-68.1 80.34,-77.95 87.34,-78.25"/>
</g>
<!-- act_asOrdered&#45;&gt;cluster_business_node -->
<g id="edge26" class="edge">
<title>act_asOrdered:&#45;&gt;cluster_business_node:</title>
<path fill="none" stroke="blue" d="M827.13,-251.72C818.62,-264.7 802.93,-281.78 785,-291 783.84,-291.6 782.61,-292.19 781.32,-292.78"/>
<polygon fill="blue" stroke="blue" points="779.92,-289.58 772,-296.61 782.58,-296.05 779.92,-289.58"/>
</g>
<!-- act_surrendered&#45;&gt;cluster_business_node -->
<g id="edge24" class="edge">
<title>act_surrendered:&#45;&gt;cluster_business_node:</title>
<path fill="none" stroke="black" d="M104.68,-363.12C110.29,-393.19 126.51,-450.98 169,-460 183.08,-462.99 413.92,-462.99 428,-460 451.62,-454.99 457.59,-429.73 457.21,-404.15"/>
<polygon fill="black" stroke="black" points="460.7,-403.83 456.76,-394 453.71,-404.14 460.7,-403.83"/>
</g>
<!-- act_surrendered&#45;&gt;cluster_panic_node -->
<g id="edge23" class="edge">
<title>act_surrendered:&#45;&gt;cluster_panic_node:</title>
<path fill="none" stroke="black" d="M115.02,-326.71C120.85,-318.3 127.51,-307.71 134.21,-291.86"/>
<polygon fill="black" stroke="black" points="137.49,-293.09 137.93,-282.5 130.98,-290.5 137.49,-293.09"/>
</g>
<!-- cyc_spawn -->
<g id="node22" class="node">
<title>cyc_spawn</title>
<polygon fill="none" stroke="black" points="1082,-544 1002,-544 1002,-464 1082,-464 1082,-544"/>
<polyline fill="none" stroke="black" points="1014,-544 1002,-532 "/>
<polyline fill="none" stroke="black" points="1002,-476 1014,-464 "/>
<polyline fill="none" stroke="black" points="1070,-464 1082,-476 "/>
<polyline fill="none" stroke="black" points="1082,-532 1070,-544 "/>
<text text-anchor="middle" x="1042" y="-500.3" font-family="Times New Roman,serif" font-size="14.00">cyc_spawn</text>
</g>
<!-- cyc_spawn&#45;&gt;cluster_life_node -->
<g id="edge30" class="edge">
<title>cyc_spawn:&#45;&gt;cluster_life_node:</title>
<path fill="none" stroke="black" d="M1042,-463.79C1042,-463.63 1042,-463.47 1042,-463.31"/>
<polygon fill="black" stroke="black" points="1045.5,-466 1042,-456 1038.5,-466 1045.5,-466"/>
</g>
<!-- cyc_unconscious&#45;&gt;cluster_life_node -->
<g id="edge34" class="edge">
<title>cyc_unconscious:&#45;&gt;cluster_life_node:</title>
<path fill="none" stroke="blue" d="M1085.34,-291.28C1072.75,-309.31 1059.4,-327.04 1050.7,-336.64"/>
<polygon fill="blue" stroke="blue" points="1048.27,-334.13 1043.35,-343.51 1053.05,-339.24 1048.27,-334.13"/>
</g>
</g>
</svg>
