<?xml version="1.0" encoding="UTF-8" standalone="no"?>
<!DOCTYPE svg PUBLIC "-//W3C//DTD SVG 1.1//EN"
 "http://www.w3.org/Graphics/SVG/1.1/DTD/svg11.dtd">
<!-- Generated by graphviz version 2.40.1 (20161225.0304)
 -->
<!-- Title: lifecycle Pages: 1 -->
<svg width="1054pt" height="523pt"
 viewBox="0.00 0.00 1053.50 523.00" xmlns="http://www.w3.org/2000/svg" xmlns:xlink="http://www.w3.org/1999/xlink">
<g id="graph0" class="graph" transform="scale(1 1) rotate(0) translate(4 519)">
<title>lifecycle</title>
<polygon fill="#c0c0c0" stroke="transparent" points="-4,4 -4,-519 1049.5,-519 1049.5,4 -4,4"/>
<g id="clust1" class="cluster">
<title>cluster_life</title>
<polygon fill="#ffffff" stroke="#000000" points="8,-8 8,-430 860,-430 860,-8 8,-8"/>
<text text-anchor="middle" x="434" y="-414.8" font-family="Times,serif" font-size="14.00" fill="#000000">cyc_life</text>
</g>
<g id="clust2" class="cluster">
<title>cluster_emotions</title>
<polygon fill="#ffffe0" stroke="#000000" points="708,-96 708,-368 840,-368 840,-96 708,-96"/>
<text text-anchor="middle" x="774" y="-352.8" font-family="Times,serif" font-size="14.00" fill="#000000">emo</text>
</g>
<g id="clust4" class="cluster">
<title>cluster_activities</title>
<polygon fill="#add8e6" stroke="#000000" points="16,-16 16,-399 700,-399 700,-16 16,-16"/>
<text text-anchor="middle" x="358" y="-383.8" font-family="Times,serif" font-size="14.00" fill="#000000">act</text>
</g>
<g id="clust5" class="cluster">
<title>cluster_business</title>
<polygon fill="#add8e6" stroke="#000000" points="164,-24 164,-368 586,-368 586,-24 164,-24"/>
<text text-anchor="middle" x="375" y="-352.8" font-family="Times,serif" font-size="14.00" fill="#000000">bus</text>
</g>
<g id="clust6" class="cluster">
<title>cluster_panic</title>
<polygon fill="#ffc0cb" stroke="#000000" points="24,-24 24,-269.5 156,-269.5 156,-24 24,-24"/>
<text text-anchor="middle" x="90" y="-254.3" font-family="Times,serif" font-size="14.00" fill="#000000">panic</text>
</g>
<!-- cluster_life_node -->
<!-- cyc_despawn -->
<g id="node21" class="node">
<title>cyc_despawn</title>
<polygon fill="none" stroke="#000000" points="956.5,-265 867.5,-265 867.5,-176 956.5,-176 956.5,-265"/>
<polyline fill="none" stroke="#000000" points="879.5,-265 867.5,-253 "/>
<polyline fill="none" stroke="#000000" points="867.5,-188 879.5,-176 "/>
<polyline fill="none" stroke="#000000" points="944.5,-176 956.5,-188 "/>
<polyline fill="none" stroke="#000000" points="956.5,-253 944.5,-265 "/>
<text text-anchor="middle" x="912" y="-216.8" font-family="Times,serif" font-size="14.00" fill="#000000">cyc_despawn</text>
</g>
<!-- cluster_life_node&#45;&gt;cyc_despawn -->
<g id="edge26" class="edge">
<title>cluster_life_node&#45;&gt;cyc_despawn</title>
<path fill="none" stroke="#000000" d="M859.9978,-303.1164C865.1478,-294.9345 871.7577,-284.4333 878.5258,-273.6807"/>
<polygon fill="#000000" stroke="#000000" points="881.594,-275.3765 883.959,-265.049 875.6699,-271.6476 881.594,-275.3765"/>
</g>
<!-- cyc_death -->
<g id="node22" class="node">
<title>cyc_death</title>
<polygon fill="none" stroke="#000000" points="1045.5,-256 974.5,-256 974.5,-185 1045.5,-185 1045.5,-256"/>
<polyline fill="none" stroke="#000000" points="986.5,-256 974.5,-244 "/>
<polyline fill="none" stroke="#000000" points="974.5,-197 986.5,-185 "/>
<polyline fill="none" stroke="#000000" points="1033.5,-185 1045.5,-197 "/>
<polyline fill="none" stroke="#000000" points="1045.5,-244 1033.5,-256 "/>
<text text-anchor="middle" x="1010" y="-216.8" font-family="Times,serif" font-size="14.00" fill="#000000">cyc_death</text>
</g>
<!-- cluster_life_node&#45;&gt;cyc_death -->
<g id="edge27" class="edge">
<title>cluster_life_node&#45;&gt;cyc_death</title>
<path fill="none" stroke="#ff0000" d="M859.9972,-316.341C881.0485,-310.4138 930.892,-294.6286 966,-269.5 968.6962,-267.5702 971.3462,-265.4488 973.9258,-263.204"/>
<polygon fill="#ff0000" stroke="#ff0000" points="976.529,-265.561 981.4295,-256.1676 971.7408,-260.4548 976.529,-265.561"/>
</g>
<!-- emo_relaxed -->
<g id="node2" class="node">
<title>emo_relaxed</title>
<ellipse fill="none" stroke="#000000" cx="773" cy="-319" rx="56.59" ry="18"/>
<text text-anchor="middle" x="773" y="-315.3" font-family="Times,serif" font-size="14.00" fill="#000000">emo_relaxed</text>
</g>
<!-- emo_wary -->
<g id="node3" class="node">
<title>emo_wary</title>
<ellipse fill="none" stroke="#000000" cx="764" cy="-220.5" rx="48.1917" ry="18"/>
<text text-anchor="middle" x="764" y="-216.8" font-family="Times,serif" font-size="14.00" fill="#000000">emo_wary</text>
</g>
<!-- emo_relaxed&#45;&gt;emo_wary -->
<g id="edge1" class="edge">
<title>emo_relaxed&#45;&gt;emo_wary</title>
<path fill="none" stroke="#000000" d="M765.9852,-300.9336C763.134,-286.3545 760.9657,-265.5822 760.4108,-248.7993"/>
<polygon fill="#000000" stroke="#000000" points="763.9065,-248.4097 760.2882,-238.4519 756.907,-248.4927 763.9065,-248.4097"/>
</g>
<!-- emo_panic -->
<g id="node4" class="node">
<title>emo_panic</title>
<ellipse fill="none" stroke="#000000" cx="766" cy="-122" rx="50.0912" ry="18"/>
<text text-anchor="middle" x="766" y="-118.3" font-family="Times,serif" font-size="14.00" fill="#000000">emo_panic</text>
</g>
<!-- emo_relaxed&#45;&gt;emo_panic -->
<g id="edge2" class="edge">
<title>emo_relaxed&#45;&gt;emo_panic</title>
<path fill="none" stroke="#ff0000" d="M795.686,-302.3264C805.4405,-293.7394 815.7849,-282.3695 821,-269.5 836.6069,-230.9865 837.0786,-214.319 821,-176 815.9842,-164.0463 806.8886,-153.4067 797.5191,-144.7985"/>
<polygon fill="#ff0000" stroke="#ff0000" points="799.536,-141.9173 789.6679,-138.0612 794.9775,-147.2296 799.536,-141.9173"/>
</g>
<!-- emo_wary&#45;&gt;emo_relaxed -->
<g id="edge5" class="edge">
<title>emo_wary&#45;&gt;emo_relaxed</title>
<path fill="none" stroke="#000000" d="M770.9924,-238.4519C773.8472,-252.9984 776.0214,-273.7649 776.5848,-290.5686"/>
<polygon fill="#000000" stroke="#000000" points="773.0895,-290.9778 776.7133,-300.9336 780.089,-290.8909 773.0895,-290.9778"/>
</g>
<!-- emo_wary&#45;&gt;emo_panic -->
<g id="edge3" class="edge">
<title>emo_wary&#45;&gt;emo_panic</title>
<path fill="none" stroke="#ff0000" d="M759.0028,-202.4336C757.7797,-187.8545 757.9311,-167.0822 759.2505,-150.2993"/>
<polygon fill="#ff0000" stroke="#ff0000" points="762.7727,-150.2501 760.2834,-139.9519 755.8073,-149.5547 762.7727,-150.2501"/>
</g>
<!-- emo_panic&#45;&gt;emo_wary -->
<g id="edge4" class="edge">
<title>emo_panic&#45;&gt;emo_wary</title>
<path fill="none" stroke="#000000" d="M770.9876,-139.9519C772.2179,-154.4984 772.0731,-175.2649 770.7599,-192.0686"/>
<polygon fill="#000000" stroke="#000000" points="767.236,-192.1367 769.7309,-202.4336 774.2018,-192.8283 767.236,-192.1367"/>
</g>
<!-- cluster_business_node -->
<!-- cluster_panic_node -->
<!-- cluster_business_node&#45;&gt;cluster_panic_node -->
<g id="edge24" class="edge">
<title>cluster_business_node&#45;&gt;cluster_panic_node</title>
<path fill="none" stroke="#ff0000" d="M164.0023,-263.8705C162.0642,-261.1013 160.495,-258.0364 159.1874,-254.8535"/>
<polygon fill="#ff0000" stroke="#ff0000" points="162.4921,-253.6998 155.9971,-245.3293 155.8546,-255.9232 162.4921,-253.6998"/>
</g>
<!-- act_asOrdered -->
<g id="node18" class="node">
<title>act_asOrdered</title>
<polygon fill="none" stroke="#000000" points="691.5,-238.5 596.5,-238.5 596.5,-202.5 691.5,-202.5 691.5,-238.5"/>
<text text-anchor="middle" x="644" y="-216.8" font-family="Times,serif" font-size="14.00" fill="#000000">act_asOrdered</text>
</g>
<!-- cluster_business_node&#45;&gt;act_asOrdered -->
<g id="edge22" class="edge">
<title>cluster_business_node&#45;&gt;act_asOrdered</title>
<path fill="none" stroke="#ff0000" d="M585.9978,-266.6497C595.7335,-260.7181 604.9886,-252.9319 613.2243,-245.4486"/>
<polygon fill="#ff0000" stroke="#ff0000" points="615.6779,-247.9466 620.635,-238.583 610.9206,-242.8116 615.6779,-247.9466"/>
</g>
<!-- act_surrendered -->
<g id="node19" class="node">
<title>act_surrendered</title>
<polygon fill="none" stroke="#000000" points="155.5,-337 52.5,-337 52.5,-301 155.5,-301 155.5,-337"/>
<text text-anchor="middle" x="104" y="-315.3" font-family="Times,serif" font-size="14.00" fill="#000000">act_surrendered</text>
</g>
<!-- cluster_business_node&#45;&gt;act_surrendered -->
<g id="edge20" class="edge">
<title>cluster_business_node&#45;&gt;act_surrendered</title>
<path fill="none" stroke="#000000" d="M395.1898,-367.9981C397.5447,-396.6667 393.72,-428.3296 367,-434 345.4793,-438.567 190.5207,-438.567 169,-434 164.7181,-433.0913 163.1701,-433.0184 160,-430 135.9268,-407.0789 120.5515,-371.5663 112.121,-346.9061"/>
<polygon fill="#000000" stroke="#000000" points="115.3448,-345.5008 108.9281,-337.0701 108.6868,-347.6622 115.3448,-345.5008"/>
</g>
<!-- bus_rally -->
<g id="node6" class="node">
<title>bus_rally</title>
<ellipse fill="none" stroke="#000000" cx="323" cy="-319" rx="43.5923" ry="18"/>
<text text-anchor="middle" x="323" y="-315.3" font-family="Times,serif" font-size="14.00" fill="#000000">bus_rally</text>
</g>
<!-- bus_patrol -->
<g id="node7" class="node">
<title>bus_patrol</title>
<ellipse fill="none" stroke="#000000" cx="390" cy="-220.5" rx="48.1917" ry="18"/>
<text text-anchor="middle" x="390" y="-216.8" font-family="Times,serif" font-size="14.00" fill="#000000">bus_patrol</text>
</g>
<!-- bus_rally&#45;&gt;bus_patrol -->
<g id="edge6" class="edge">
<title>bus_rally&#45;&gt;bus_patrol</title>
<path fill="none" stroke="#000000" d="M334.9783,-301.3902C345.3633,-286.1226 360.5336,-263.82 372.3161,-246.498"/>
<polygon fill="#000000" stroke="#000000" points="375.3951,-248.1944 378.1254,-237.9574 369.6072,-244.2574 375.3951,-248.1944"/>
</g>
<!-- bus_mountUp -->
<g id="node8" class="node">
<title>bus_mountUp</title>
<ellipse fill="none" stroke="#000000" cx="517" cy="-220.5" rx="61.1893" ry="18"/>
<text text-anchor="middle" x="517" y="-216.8" font-family="Times,serif" font-size="14.00" fill="#000000">bus_mountUp</text>
</g>
<!-- bus_rally&#45;&gt;bus_mountUp -->
<g id="edge7" class="edge">
<title>bus_rally&#45;&gt;bus_mountUp</title>
<path fill="none" stroke="#000000" d="M355.642,-306.947C386.6028,-295.3389 430.7354,-278.2857 447,-269.5 460.7585,-262.068 475.0553,-252.4483 487.1141,-243.7027"/>
<polygon fill="#000000" stroke="#000000" points="489.4992,-246.2921 495.4597,-237.5328 485.3378,-240.6633 489.4992,-246.2921"/>
</g>
<!-- bus_housework -->
<g id="node11" class="node">
<title>bus_housework</title>
<ellipse fill="none" stroke="#000000" cx="238" cy="-220.5" rx="65.7887" ry="18"/>
<text text-anchor="middle" x="238" y="-216.8" font-family="Times,serif" font-size="14.00" fill="#000000">bus_housework</text>
</g>
<!-- bus_rally&#45;&gt;bus_housework -->
<g id="edge12" class="edge">
<title>bus_rally&#45;&gt;bus_housework</title>
<path fill="none" stroke="#000000" d="M308.1941,-301.8426C294.83,-286.3559 274.9948,-263.3704 259.8153,-245.7801"/>
<polygon fill="#000000" stroke="#000000" points="262.3916,-243.4082 253.2086,-238.124 257.092,-247.9815 262.3916,-243.4082"/>
</g>
<!-- bus_voyage -->
<g id="node9" class="node">
<title>bus_voyage</title>
<ellipse fill="none" stroke="#000000" cx="445" cy="-122" rx="52.7911" ry="18"/>
<text text-anchor="middle" x="445" y="-118.3" font-family="Times,serif" font-size="14.00" fill="#000000">bus_voyage</text>
</g>
<!-- bus_mountUp&#45;&gt;bus_voyage -->
<g id="edge8" class="edge">
<title>bus_mountUp&#45;&gt;bus_voyage</title>
<path fill="none" stroke="#000000" d="M504.1278,-202.8902C493.0367,-187.7168 476.8665,-165.5951 464.2385,-148.3194"/>
<polygon fill="#000000" stroke="#000000" points="466.7303,-145.7972 458.0035,-139.7895 461.0791,-149.9281 466.7303,-145.7972"/>
</g>
<!-- bus_dismount -->
<g id="node10" class="node">
<title>bus_dismount</title>
<ellipse fill="none" stroke="#000000" cx="445" cy="-50" rx="60.3893" ry="18"/>
<text text-anchor="middle" x="445" y="-46.3" font-family="Times,serif" font-size="14.00" fill="#000000">bus_dismount</text>
</g>
<!-- bus_mountUp&#45;&gt;bus_dismount -->
<g id="edge9" class="edge">
<title>bus_mountUp&#45;&gt;bus_dismount</title>
<path fill="none" stroke="#000000" d="M519.9938,-202.2704C523.241,-176.7604 525.7183,-129.7553 507,-96 501.6254,-86.3079 493.2545,-78.0777 484.3836,-71.3763"/>
<polygon fill="#000000" stroke="#000000" points="486.3739,-68.4973 476.1678,-65.6536 482.373,-74.2413 486.3739,-68.4973"/>
</g>
<!-- bus_voyage&#45;&gt;bus_dismount -->
<g id="edge10" class="edge">
<title>bus_voyage&#45;&gt;bus_dismount</title>
<path fill="none" stroke="#ff0000" d="M445,-103.8314C445,-96.131 445,-86.9743 445,-78.4166"/>
<polygon fill="#ff0000" stroke="#ff0000" points="448.5001,-78.4132 445,-68.4133 441.5001,-78.4133 448.5001,-78.4132"/>
</g>
<!-- bus_dismount&#45;&gt;bus_rally -->
<g id="edge11" class="edge">
<title>bus_dismount&#45;&gt;bus_rally</title>
<path fill="none" stroke="#000000" d="M418.5016,-66.3963C406.7935,-74.4241 393.365,-84.7739 383,-96 354.5569,-126.8061 345.9587,-136.124 333,-176 320.587,-214.197 319.8503,-261.0642 321.0014,-290.4904"/>
<polygon fill="#000000" stroke="#000000" points="317.5244,-291.0452 321.5145,-300.8599 324.5159,-290.6991 317.5244,-291.0452"/>
</g>
<!-- bus_meetNeighbor -->
<g id="node12" class="node">
<title>bus_meetNeighbor</title>
<ellipse fill="none" stroke="#000000" cx="250" cy="-122" rx="77.9862" ry="18"/>
<text text-anchor="middle" x="250" y="-118.3" font-family="Times,serif" font-size="14.00" fill="#000000">bus_meetNeighbor</text>
</g>
<!-- bus_housework&#45;&gt;bus_meetNeighbor -->
<g id="edge13" class="edge">
<title>bus_housework&#45;&gt;bus_meetNeighbor</title>
<path fill="none" stroke="#000000" d="M240.201,-202.4336C241.966,-187.9456 244.4761,-167.3416 246.514,-150.6145"/>
<polygon fill="#000000" stroke="#000000" points="250.0372,-150.6354 247.7723,-140.2855 243.0886,-149.7888 250.0372,-150.6354"/>
</g>
<!-- bus_chat -->
<g id="node13" class="node">
<title>bus_chat</title>
<ellipse fill="none" stroke="#000000" cx="287" cy="-50" rx="42.4939" ry="18"/>
<text text-anchor="middle" x="287" y="-46.3" font-family="Times,serif" font-size="14.00" fill="#000000">bus_chat</text>
</g>
<!-- bus_meetNeighbor&#45;&gt;bus_chat -->
<g id="edge14" class="edge">
<title>bus_meetNeighbor&#45;&gt;bus_chat</title>
<path fill="none" stroke="#000000" d="M259.3367,-103.8314C263.5313,-95.6688 268.5668,-85.87 273.1853,-76.8827"/>
<polygon fill="#000000" stroke="#000000" points="276.3368,-78.4075 277.7945,-67.9134 270.1107,-75.208 276.3368,-78.4075"/>
</g>
<!-- bus_chat&#45;&gt;bus_housework -->
<g id="edge15" class="edge">
<title>bus_chat&#45;&gt;bus_housework</title>
<path fill="none" stroke="#000000" d="M310.5723,-64.9834C320.7203,-72.8512 331.5018,-83.4707 337,-96 344.8581,-113.9073 345.4011,-122.341 337,-140 324.8718,-165.4935 300.2844,-185.5545 278.6483,-199.2739"/>
<polygon fill="#000000" stroke="#000000" points="276.6424,-196.3972 269.9138,-204.581 280.2773,-202.3795 276.6424,-196.3972"/>
</g>
<!-- cluster_panic_node&#45;&gt;cluster_business_node -->
<g id="edge23" class="edge">
<title>cluster_panic_node&#45;&gt;cluster_business_node</title>
<path fill="none" stroke="#0000ff" d="M151,-269.5C152.5014,-270.8133 153.9987,-272.0626 155.492,-273.2505"/>
<polygon fill="#0000ff" stroke="#0000ff" points="153.8476,-276.3803 164.0031,-279.3997 157.9471,-270.7063 153.8476,-276.3803"/>
</g>
<!-- pan_flight -->
<g id="node15" class="node">
<title>pan_flight</title>
<ellipse fill="none" stroke="#000000" cx="79" cy="-220.5" rx="46.5926" ry="18"/>
<text text-anchor="middle" x="79" y="-216.8" font-family="Times,serif" font-size="14.00" fill="#000000">pan_flight</text>
</g>
<!-- pan_hide -->
<g id="node16" class="node">
<title>pan_hide</title>
<ellipse fill="none" stroke="#000000" cx="81" cy="-122" rx="42.7926" ry="18"/>
<text text-anchor="middle" x="81" y="-118.3" font-family="Times,serif" font-size="14.00" fill="#000000">pan_hide</text>
</g>
<!-- pan_flight&#45;&gt;pan_hide -->
<g id="edge16" class="edge">
<title>pan_flight&#45;&gt;pan_hide</title>
<path fill="none" stroke="#000000" d="M79.3668,-202.4336C79.661,-187.9456 80.0794,-167.3416 80.419,-150.6145"/>
<polygon fill="#000000" stroke="#000000" points="83.9249,-150.3545 80.6287,-140.2855 76.9263,-150.2123 83.9249,-150.3545"/>
</g>
<!-- pan_hidden -->
<g id="node17" class="node">
<title>pan_hidden</title>
<ellipse fill="none" stroke="#000000" cx="84" cy="-50" rx="51.9908" ry="18"/>
<text text-anchor="middle" x="84" y="-46.3" font-family="Times,serif" font-size="14.00" fill="#000000">pan_hidden</text>
</g>
<!-- pan_hide&#45;&gt;pan_hidden -->
<g id="edge17" class="edge">
<title>pan_hide&#45;&gt;pan_hidden</title>
<path fill="none" stroke="#000000" d="M81.757,-103.8314C82.0779,-96.131 82.4594,-86.9743 82.816,-78.4166"/>
<polygon fill="#000000" stroke="#000000" points="86.3133,-78.5503 83.2328,-68.4133 79.3194,-78.2589 86.3133,-78.5503"/>
</g>
<!-- act_asOrdered&#45;&gt;cluster_business_node -->
<g id="edge21" class="edge">
<title>act_asOrdered&#45;&gt;cluster_business_node</title>
<path fill="none" stroke="#000000" d="M636.0212,-238.8238C627.2382,-249.2763 613.5402,-261.7916 599,-269.5 597.6758,-270.202 596.3414,-270.8943 594.9976,-271.5769"/>
<polygon fill="#000000" stroke="#000000" points="593.4667,-268.4294 585.9975,-275.9435 596.5223,-274.7273 593.4667,-268.4294"/>
</g>
<!-- act_surrendered&#45;&gt;cluster_business_node -->
<g id="edge19" class="edge">
<title>act_surrendered&#45;&gt;cluster_business_node</title>
<path fill="none" stroke="#000000" d="M108.9281,-337.0701C116.3361,-361.1629 132.4878,-403.8044 160,-430 163.1701,-433.0184 164.7181,-433.0913 169,-434 190.5207,-438.567 345.4793,-438.567 367,-434 390.5889,-428.9941 396.3339,-403.7304 395.7362,-378.1532"/>
<polygon fill="#000000" stroke="#000000" points="399.2221,-377.7951 395.1897,-367.9976 392.2322,-378.1713 399.2221,-377.7951"/>
</g>
<!-- act_surrendered&#45;&gt;cluster_panic_node -->
<g id="edge18" class="edge">
<title>act_surrendered&#45;&gt;cluster_panic_node</title>
<path fill="none" stroke="#000000" d="M117.6594,-300.5399C122.0312,-294.0868 126.7656,-286.4945 130.744,-278.6951"/>
<polygon fill="#000000" stroke="#000000" points="133.9758,-280.0452 135,-269.5 127.6232,-277.1049 133.9758,-280.0452"/>
</g>
<!-- cyc_spawn -->
<g id="node20" class="node">
<title>cyc_spawn</title>
<polygon fill="none" stroke="#000000" points="888.5,-515 811.5,-515 811.5,-438 888.5,-438 888.5,-515"/>
<polyline fill="none" stroke="#000000" points="823.5,-515 811.5,-503 "/>
<polyline fill="none" stroke="#000000" points="811.5,-450 823.5,-438 "/>
<polyline fill="none" stroke="#000000" points="876.5,-438 888.5,-450 "/>
<polyline fill="none" stroke="#000000" points="888.5,-503 876.5,-515 "/>
<text text-anchor="middle" x="850" y="-472.8" font-family="Times,serif" font-size="14.00" fill="#000000">cyc_spawn</text>
</g>
<!-- cyc_spawn&#45;&gt;cluster_life_node -->
<g id="edge25" class="edge">
<title>cyc_spawn&#45;&gt;cluster_life_node</title>
<path fill="none" stroke="#000000" d="M850,-437.9712C850,-437.8096 850,-437.6478 850,-437.4857"/>
<polygon fill="#000000" stroke="#000000" points="853.5001,-439.9977 850,-429.9978 846.5001,-439.9978 853.5001,-439.9977"/>
</g>
</g>
</svg>
