<?xml version="1.0" encoding="UTF-8" standalone="no"?>
<!DOCTYPE svg PUBLIC "-//W3C//DTD SVG 1.1//EN"
 "http://www.w3.org/Graphics/SVG/1.1/DTD/svg11.dtd">
<!-- Generated by graphviz version 2.40.1 (20161225.0304)
 -->
<!-- Title: lifecycle Pages: 1 -->
<svg width="732pt" height="916pt"
 viewBox="0.00 0.00 731.50 916.00" xmlns="http://www.w3.org/2000/svg" xmlns:xlink="http://www.w3.org/1999/xlink">
<g id="graph0" class="graph" transform="scale(1 1) rotate(0) translate(4 912)">
<title>lifecycle</title>
<polygon fill="#c0c0c0" stroke="transparent" points="-4,4 -4,-912 727.5,-912 727.5,4 -4,4"/>
<g id="clust1" class="cluster">
<title>cluster_life</title>
<polygon fill="#ffffff" stroke="#000000" points="8,-8 8,-823 538,-823 538,-8 8,-8"/>
<text text-anchor="middle" x="273" y="-807.8" font-family="Times,serif" font-size="14.00" fill="#000000">cyc_life</text>
</g>
<g id="clust2" class="cluster">
<title>cluster_emotions</title>
<polygon fill="#ffffe0" stroke="#000000" points="386,-520 386,-792 518,-792 518,-520 386,-520"/>
<text text-anchor="middle" x="452" y="-776.8" font-family="Times,serif" font-size="14.00" fill="#000000">emo</text>
</g>
<g id="clust4" class="cluster">
<title>cluster_activities</title>
<polygon fill="#add8e6" stroke="#000000" points="16,-16 16,-792 378,-792 378,-16 16,-16"/>
<text text-anchor="middle" x="197" y="-776.8" font-family="Times,serif" font-size="14.00" fill="#000000">act</text>
</g>
<!-- cluster_life_node -->
<!-- cyc_despawn -->
<g id="node17" class="node">
<title>cyc_despawn</title>
<polygon fill="none" stroke="#000000" points="634.5,-689 545.5,-689 545.5,-600 634.5,-600 634.5,-689"/>
<polyline fill="none" stroke="#000000" points="557.5,-689 545.5,-677 "/>
<polyline fill="none" stroke="#000000" points="545.5,-612 557.5,-600 "/>
<polyline fill="none" stroke="#000000" points="622.5,-600 634.5,-612 "/>
<polyline fill="none" stroke="#000000" points="634.5,-677 622.5,-689 "/>
<text text-anchor="middle" x="590" y="-640.8" font-family="Times,serif" font-size="14.00" fill="#000000">cyc_despawn</text>
</g>
<!-- cluster_life_node&#45;&gt;cyc_despawn -->
<g id="edge35" class="edge">
<title>cluster_life_node&#45;&gt;cyc_despawn</title>
<path fill="none" stroke="#000000" d="M537.9978,-727.1164C543.1478,-718.9345 549.7577,-708.4333 556.5258,-697.6807"/>
<polygon fill="#000000" stroke="#000000" points="559.594,-699.3765 561.959,-689.049 553.6699,-695.6476 559.594,-699.3765"/>
</g>
<!-- cyc_death -->
<g id="node18" class="node">
<title>cyc_death</title>
<polygon fill="none" stroke="#000000" points="723.5,-680 652.5,-680 652.5,-609 723.5,-609 723.5,-680"/>
<polyline fill="none" stroke="#000000" points="664.5,-680 652.5,-668 "/>
<polyline fill="none" stroke="#000000" points="652.5,-621 664.5,-609 "/>
<polyline fill="none" stroke="#000000" points="711.5,-609 723.5,-621 "/>
<polyline fill="none" stroke="#000000" points="723.5,-668 711.5,-680 "/>
<text text-anchor="middle" x="688" y="-640.8" font-family="Times,serif" font-size="14.00" fill="#000000">cyc_death</text>
</g>
<!-- cluster_life_node&#45;&gt;cyc_death -->
<g id="edge36" class="edge">
<title>cluster_life_node&#45;&gt;cyc_death</title>
<path fill="none" stroke="#ff0000" d="M537.9974,-739.7124C558.9,-732.5563 608.2469,-714.168 644,-689 645.0744,-688.2437 646.1455,-687.4595 647.2112,-686.6518"/>
<polygon fill="#ff0000" stroke="#ff0000" points="649.7256,-689.1164 655.241,-680.0703 645.2882,-683.7025 649.7256,-689.1164"/>
</g>
<!-- emo_relaxed -->
<g id="node2" class="node">
<title>emo_relaxed</title>
<ellipse fill="none" stroke="#000000" cx="451" cy="-743" rx="56.59" ry="18"/>
<text text-anchor="middle" x="451" y="-739.3" font-family="Times,serif" font-size="14.00" fill="#000000">emo_relaxed</text>
</g>
<!-- emo_wary -->
<g id="node3" class="node">
<title>emo_wary</title>
<ellipse fill="none" stroke="#000000" cx="442" cy="-644.5" rx="48.1917" ry="18"/>
<text text-anchor="middle" x="442" y="-640.8" font-family="Times,serif" font-size="14.00" fill="#000000">emo_wary</text>
</g>
<!-- emo_relaxed&#45;&gt;emo_wary -->
<g id="edge1" class="edge">
<title>emo_relaxed&#45;&gt;emo_wary</title>
<path fill="none" stroke="#000000" d="M443.9852,-724.9336C441.134,-710.3545 438.9657,-689.5822 438.4108,-672.7993"/>
<polygon fill="#000000" stroke="#000000" points="441.9065,-672.4097 438.2882,-662.4519 434.907,-672.4927 441.9065,-672.4097"/>
</g>
<!-- emo_panic -->
<g id="node4" class="node">
<title>emo_panic</title>
<ellipse fill="none" stroke="#000000" cx="444" cy="-546" rx="50.0912" ry="18"/>
<text text-anchor="middle" x="444" y="-542.3" font-family="Times,serif" font-size="14.00" fill="#000000">emo_panic</text>
</g>
<!-- emo_relaxed&#45;&gt;emo_panic -->
<g id="edge2" class="edge">
<title>emo_relaxed&#45;&gt;emo_panic</title>
<path fill="none" stroke="#000000" d="M471.9658,-726.0961C482.2221,-716.4504 493.5171,-703.4212 499,-689 513.0573,-652.0266 514.3047,-636.4747 499,-600 493.9842,-588.0463 484.8886,-577.4067 475.5191,-568.7985"/>
<polygon fill="#000000" stroke="#000000" points="477.536,-565.9173 467.6679,-562.0612 472.9775,-571.2296 477.536,-565.9173"/>
</g>
<!-- emo_wary&#45;&gt;emo_relaxed -->
<g id="edge5" class="edge">
<title>emo_wary&#45;&gt;emo_relaxed</title>
<path fill="none" stroke="#000000" d="M448.9924,-662.4519C451.8472,-676.9984 454.0214,-697.7649 454.5848,-714.5686"/>
<polygon fill="#000000" stroke="#000000" points="451.0895,-714.9778 454.7133,-724.9336 458.089,-714.8909 451.0895,-714.9778"/>
</g>
<!-- emo_wary&#45;&gt;emo_panic -->
<g id="edge3" class="edge">
<title>emo_wary&#45;&gt;emo_panic</title>
<path fill="none" stroke="#000000" d="M437.0028,-626.4336C435.7797,-611.8545 435.9311,-591.0822 437.2505,-574.2993"/>
<polygon fill="#000000" stroke="#000000" points="440.7727,-574.2501 438.2834,-563.9519 433.8073,-573.5547 440.7727,-574.2501"/>
</g>
<!-- emo_panic&#45;&gt;emo_wary -->
<g id="edge4" class="edge">
<title>emo_panic&#45;&gt;emo_wary</title>
<path fill="none" stroke="#000000" d="M448.9876,-563.9519C450.2179,-578.4984 450.0731,-599.2649 448.7599,-616.0686"/>
<polygon fill="#000000" stroke="#000000" points="445.236,-616.1367 447.7309,-626.4336 452.2018,-616.8283 445.236,-616.1367"/>
</g>
<!-- act_rally -->
<g id="node5" class="node">
<title>act_rally</title>
<ellipse fill="none" stroke="#000000" cx="309" cy="-644.5" rx="41.6928" ry="18"/>
<text text-anchor="middle" x="309" y="-640.8" font-family="Times,serif" font-size="14.00" fill="#000000">act_rally</text>
</g>
<!-- act_patrol -->
<g id="node6" class="node">
<title>act_patrol</title>
<ellipse fill="none" stroke="#000000" cx="244" cy="-402" rx="46.2923" ry="18"/>
<text text-anchor="middle" x="244" y="-398.3" font-family="Times,serif" font-size="14.00" fill="#000000">act_patrol</text>
</g>
<!-- act_rally&#45;&gt;act_patrol -->
<g id="edge6" class="edge">
<title>act_rally&#45;&gt;act_patrol</title>
<path fill="none" stroke="#000000" d="M304.1144,-626.2731C292.8408,-584.2139 264.9475,-480.1503 251.4941,-429.9586"/>
<polygon fill="#000000" stroke="#000000" points="254.8233,-428.8605 248.8536,-420.1076 248.062,-430.6728 254.8233,-428.8605"/>
</g>
<!-- act_mountUp -->
<g id="node7" class="node">
<title>act_mountUp</title>
<ellipse fill="none" stroke="#000000" cx="121" cy="-546" rx="59.2899" ry="18"/>
<text text-anchor="middle" x="121" y="-542.3" font-family="Times,serif" font-size="14.00" fill="#000000">act_mountUp</text>
</g>
<!-- act_rally&#45;&gt;act_mountUp -->
<g id="edge7" class="edge">
<title>act_rally&#45;&gt;act_mountUp</title>
<path fill="none" stroke="#000000" d="M282.4629,-630.5963C250.4583,-613.8279 196.4011,-585.5054 159.737,-566.2957"/>
<polygon fill="#000000" stroke="#000000" points="161.2965,-563.1615 150.8143,-561.6208 158.0478,-569.362 161.2965,-563.1615"/>
</g>
<!-- act_flight -->
<g id="node10" class="node">
<title>act_flight</title>
<ellipse fill="none" stroke="#000000" cx="145" cy="-330" rx="44.393" ry="18"/>
<text text-anchor="middle" x="145" y="-326.3" font-family="Times,serif" font-size="14.00" fill="#000000">act_flight</text>
</g>
<!-- act_rally&#45;&gt;act_flight -->
<g id="edge16" class="edge">
<title>act_rally&#45;&gt;act_flight</title>
<path fill="none" stroke="#ff0000" d="M294.7996,-627.4307C270.0933,-590.0611 219.9486,-498.1018 180,-420 169.3573,-399.1929 157.7644,-375.4322 150.4527,-357.5514"/>
<polygon fill="#ff0000" stroke="#ff0000" points="153.641,-356.0919 146.773,-348.0246 147.1112,-358.6141 153.641,-356.0919"/>
</g>
<!-- act_surrendered -->
<g id="node13" class="node">
<title>act_surrendered</title>
<ellipse fill="none" stroke="#000000" cx="270" cy="-114" rx="66.8882" ry="18"/>
<text text-anchor="middle" x="270" y="-110.3" font-family="Times,serif" font-size="14.00" fill="#000000">act_surrendered</text>
</g>
<!-- act_rally&#45;&gt;act_surrendered -->
<g id="edge12" class="edge">
<title>act_rally&#45;&gt;act_surrendered</title>
<path fill="none" stroke="#000000" d="M310.6591,-626.4093C318.6566,-595.6252 340,-530.8562 340,-474 340,-474 340,-474 340,-258 340,-217.7538 349.6017,-203.1501 330,-168 323.1516,-155.7193 312.2525,-145.2667 301.5447,-136.9232"/>
<polygon fill="#000000" stroke="#000000" points="303.5881,-134.0813 293.4639,-130.9587 299.4311,-139.7133 303.5881,-134.0813"/>
</g>
<!-- act_asOrdered -->
<g id="node14" class="node">
<title>act_asOrdered</title>
<ellipse fill="none" stroke="#000000" cx="270" cy="-42" rx="61.99" ry="18"/>
<text text-anchor="middle" x="270" y="-38.3" font-family="Times,serif" font-size="14.00" fill="#000000">act_asOrdered</text>
</g>
<!-- act_rally&#45;&gt;act_asOrdered -->
<g id="edge30" class="edge">
<title>act_rally&#45;&gt;act_asOrdered</title>
<path fill="none" stroke="#ff0000" d="M314.4569,-626.3196C328.3264,-595.9252 360,-532.3669 360,-474 360,-474 360,-474 360,-186 360,-144.7145 360.3667,-130.0366 337,-96 328.3752,-83.4368 315.815,-72.8107 303.8282,-64.396"/>
<polygon fill="#ff0000" stroke="#ff0000" points="305.5227,-61.3184 295.2658,-58.6635 301.6284,-67.1352 305.5227,-61.3184"/>
</g>
<!-- act_patrol&#45;&gt;act_flight -->
<g id="edge17" class="edge">
<title>act_patrol&#45;&gt;act_flight</title>
<path fill="none" stroke="#ff0000" d="M222.0287,-386.0209C208.3143,-376.0468 190.4661,-363.0663 175.404,-352.112"/>
<polygon fill="#ff0000" stroke="#ff0000" points="177.0559,-348.9856 166.9099,-345.9345 172.9387,-354.6468 177.0559,-348.9856"/>
</g>
<!-- act_patrol&#45;&gt;act_surrendered -->
<g id="edge13" class="edge">
<title>act_patrol&#45;&gt;act_surrendered</title>
<path fill="none" stroke="#000000" d="M239.4176,-383.8571C227.6854,-335.9507 198.6069,-207.0686 215,-168 219.8944,-156.3355 228.6737,-145.9223 237.8014,-137.4269"/>
<polygon fill="#000000" stroke="#000000" points="240.2232,-139.9592 245.473,-130.7564 235.6301,-134.6768 240.2232,-139.9592"/>
</g>
<!-- act_patrol&#45;&gt;act_asOrdered -->
<g id="edge31" class="edge">
<title>act_patrol&#45;&gt;act_asOrdered</title>
<path fill="none" stroke="#ff0000" d="M233.9691,-384.254C207.7488,-335.3173 142.6426,-195.4921 194,-96 201.1784,-82.0937 213.7756,-70.9889 226.6743,-62.5531"/>
<polygon fill="#ff0000" stroke="#ff0000" points="228.8598,-65.3207 235.5896,-57.1377 225.2257,-59.338 228.8598,-65.3207"/>
</g>
<!-- act_voyage -->
<g id="node8" class="node">
<title>act_voyage</title>
<ellipse fill="none" stroke="#000000" cx="115" cy="-474" rx="50.8918" ry="18"/>
<text text-anchor="middle" x="115" y="-470.3" font-family="Times,serif" font-size="14.00" fill="#000000">act_voyage</text>
</g>
<!-- act_mountUp&#45;&gt;act_voyage -->
<g id="edge8" class="edge">
<title>act_mountUp&#45;&gt;act_voyage</title>
<path fill="none" stroke="#000000" d="M119.4859,-527.8314C118.8442,-520.131 118.0812,-510.9743 117.3681,-502.4166"/>
<polygon fill="#000000" stroke="#000000" points="120.8529,-502.088 116.5344,-492.4133 113.8771,-502.6694 120.8529,-502.088"/>
</g>
<!-- act_dismount -->
<g id="node9" class="node">
<title>act_dismount</title>
<ellipse fill="none" stroke="#000000" cx="82" cy="-402" rx="58.4896" ry="18"/>
<text text-anchor="middle" x="82" y="-398.3" font-family="Times,serif" font-size="14.00" fill="#000000">act_dismount</text>
</g>
<!-- act_mountUp&#45;&gt;act_dismount -->
<g id="edge9" class="edge">
<title>act_mountUp&#45;&gt;act_dismount</title>
<path fill="none" stroke="#000000" d="M91.6956,-530.2928C77.8354,-521.1373 62.6713,-508.1882 55,-492 45.3188,-471.5703 54.0321,-446.8844 64.0613,-428.5376"/>
<polygon fill="#000000" stroke="#000000" points="67.1277,-430.2277 69.175,-419.8325 61.092,-426.6821 67.1277,-430.2277"/>
</g>
<!-- act_mountUp&#45;&gt;act_flight -->
<g id="edge22" class="edge">
<title>act_mountUp&#45;&gt;act_flight</title>
<path fill="none" stroke="#000000" d="M144.8092,-529.3862C156.2559,-519.9083 168.8101,-506.9438 175,-492 184.8932,-468.1157 165.8572,-397.1891 153.8138,-357.5631"/>
<polygon fill="#000000" stroke="#000000" points="157.1482,-356.4986 150.8513,-347.9781 150.4604,-358.5657 157.1482,-356.4986"/>
</g>
<!-- act_voyage&#45;&gt;act_dismount -->
<g id="edge19" class="edge">
<title>act_voyage&#45;&gt;act_dismount</title>
<path fill="none" stroke="#ff0000" d="M101.1334,-456.5708C96.5684,-448.4409 91.8112,-438.571 88.0127,-429.4722"/>
<polygon fill="#ff0000" stroke="#ff0000" points="91.2195,-428.0623 84.3216,-420.0206 84.6991,-430.6087 91.2195,-428.0623"/>
</g>
<!-- act_voyage&#45;&gt;act_dismount -->
<g id="edge20" class="edge">
<title>act_voyage&#45;&gt;act_dismount</title>
<path fill="none" stroke="#000000" d="M112.6251,-455.8314C109.6794,-447.6688 105.3887,-437.87 100.875,-428.8827"/>
<polygon fill="#000000" stroke="#000000" points="103.9029,-427.1211 96.1376,-419.9134 97.7132,-430.3904 103.9029,-427.1211"/>
</g>
<!-- act_dismount&#45;&gt;act_rally -->
<g id="edge26" class="edge">
<title>act_dismount&#45;&gt;act_rally</title>
<path fill="none" stroke="#000000" d="M66.8135,-419.6694C59.2631,-429.6309 50.9286,-442.7155 47,-456 33.3667,-502.1004 22.9723,-526.4574 53,-564 79.019,-596.5307 193.5976,-622.893 260.3197,-635.8317"/>
<polygon fill="#000000" stroke="#000000" points="259.7195,-639.2803 270.1984,-637.7172 261.0319,-632.4044 259.7195,-639.2803"/>
</g>
<!-- act_dismount&#45;&gt;act_flight -->
<g id="edge21" class="edge">
<title>act_dismount&#45;&gt;act_flight</title>
<path fill="none" stroke="#000000" d="M97.2505,-384.5708C105.0663,-375.6385 114.7201,-364.6056 123.2974,-354.8029"/>
<polygon fill="#000000" stroke="#000000" points="125.9388,-357.0993 129.8899,-347.2687 120.6708,-352.4897 125.9388,-357.0993"/>
</g>
<!-- act_dismount&#45;&gt;act_surrendered -->
<g id="edge14" class="edge">
<title>act_dismount&#45;&gt;act_surrendered</title>
<path fill="none" stroke="#000000" d="M81.1117,-383.6793C80.8632,-364.9557 82.3238,-335.3885 92,-312 123.3106,-236.3187 196.5506,-170.5482 238.6786,-137.2248"/>
<polygon fill="#000000" stroke="#000000" points="240.931,-139.9068 246.6677,-130.9995 236.6284,-134.3853 240.931,-139.9068"/>
</g>
<!-- act_flight&#45;&gt;act_rally -->
<g id="edge23" class="edge">
<title>act_flight&#45;&gt;act_rally</title>
<path fill="none" stroke="#0000ff" d="M159.767,-347.0102C170.7821,-365.175 185.0902,-394.7605 198,-420 234.7042,-491.7588 280.0156,-575.2156 299.7874,-617.2823"/>
<polygon fill="#0000ff" stroke="#0000ff" points="296.6935,-618.933 304.0326,-626.5742 303.0605,-616.0241 296.6935,-618.933"/>
</g>
<!-- act_hide -->
<g id="node11" class="node">
<title>act_hide</title>
<ellipse fill="none" stroke="#000000" cx="268" cy="-258" rx="40.0939" ry="18"/>
<text text-anchor="middle" x="268" y="-254.3" font-family="Times,serif" font-size="14.00" fill="#000000">act_hide</text>
</g>
<!-- act_flight&#45;&gt;act_hide -->
<g id="edge10" class="edge">
<title>act_flight&#45;&gt;act_hide</title>
<path fill="none" stroke="#000000" d="M170.4857,-315.0816C189.036,-304.2229 214.3359,-289.4131 234.5168,-277.5999"/>
<polygon fill="#000000" stroke="#000000" points="236.5243,-280.4804 243.3863,-272.408 232.988,-274.4393 236.5243,-280.4804"/>
</g>
<!-- act_hide&#45;&gt;act_rally -->
<g id="edge24" class="edge">
<title>act_hide&#45;&gt;act_rally</title>
<path fill="none" stroke="#0000ff" d="M276.4952,-275.7223C288.5044,-302.448 309,-354.9516 309,-402 309,-474 309,-474 309,-474 309,-524.0813 309,-582.4371 309,-616.2556"/>
<polygon fill="#0000ff" stroke="#0000ff" points="305.5001,-616.3318 309,-626.3319 312.5001,-616.3319 305.5001,-616.3318"/>
</g>
<!-- act_hidden -->
<g id="node12" class="node">
<title>act_hidden</title>
<ellipse fill="none" stroke="#000000" cx="281" cy="-186" rx="49.2915" ry="18"/>
<text text-anchor="middle" x="281" y="-182.3" font-family="Times,serif" font-size="14.00" fill="#000000">act_hidden</text>
</g>
<!-- act_hide&#45;&gt;act_hidden -->
<g id="edge11" class="edge">
<title>act_hide&#45;&gt;act_hidden</title>
<path fill="none" stroke="#000000" d="M271.2804,-239.8314C272.6708,-232.131 274.3241,-222.9743 275.8692,-214.4166"/>
<polygon fill="#000000" stroke="#000000" points="279.3428,-214.8761 277.6754,-204.4133 272.4542,-213.6322 279.3428,-214.8761"/>
</g>
<!-- act_hidden&#45;&gt;act_rally -->
<g id="edge25" class="edge">
<title>act_hidden&#45;&gt;act_rally</title>
<path fill="none" stroke="#0000ff" d="M295.55,-203.3549C303.196,-213.4256 311.9951,-226.7146 317,-240 331.2261,-277.7632 329,-289.646 329,-330 329,-474 329,-474 329,-474 329,-524.4246 320.2643,-582.67 314.3397,-616.3741"/>
<polygon fill="#0000ff" stroke="#0000ff" points="310.8596,-615.9512 312.5296,-626.4136 317.7485,-617.1934 310.8596,-615.9512"/>
</g>
<!-- act_hidden&#45;&gt;act_surrendered -->
<g id="edge15" class="edge">
<title>act_hidden&#45;&gt;act_surrendered</title>
<path fill="none" stroke="#000000" d="M278.2242,-167.8314C277.0478,-160.131 275.6489,-150.9743 274.3414,-142.4166"/>
<polygon fill="#000000" stroke="#000000" points="277.7833,-141.7699 272.8131,-132.4133 270.8636,-142.8272 277.7833,-141.7699"/>
</g>
<!-- act_surrendered&#45;&gt;act_rally -->
<g id="edge27" class="edge">
<title>act_surrendered&#45;&gt;act_rally</title>
<path fill="none" stroke="#000000" d="M306.7664,-129.1255C322.3374,-138.3419 338.8132,-151.5261 348,-168 367.6017,-203.1501 358,-217.7538 358,-258 358,-474 358,-474 358,-474 358,-525.8015 340.2829,-584.1713 325.7782,-617.4225"/>
<polygon fill="#000000" stroke="#000000" points="322.4165,-616.354 321.403,-626.9003 328.772,-619.2879 322.4165,-616.354"/>
</g>
<!-- act_surrendered&#45;&gt;act_hide -->
<g id="edge29" class="edge">
<title>act_surrendered&#45;&gt;act_hide</title>
<path fill="none" stroke="#000000" d="M249.2172,-131.2243C239.2379,-140.8692 228.3146,-153.7989 223,-168 217.3921,-182.985 217.5532,-188.9557 223,-204 227.0077,-215.0694 234.385,-225.4643 242.0233,-234.1212"/>
<polygon fill="#000000" stroke="#000000" points="239.6181,-236.6724 249.0222,-241.5523 244.7138,-231.873 239.6181,-236.6724"/>
</g>
<!-- act_surrendered&#45;&gt;act_asOrdered -->
<g id="edge32" class="edge">
<title>act_surrendered&#45;&gt;act_asOrdered</title>
<path fill="none" stroke="#ff0000" d="M270,-95.8314C270,-88.131 270,-78.9743 270,-70.4166"/>
<polygon fill="#ff0000" stroke="#ff0000" points="273.5001,-70.4132 270,-60.4133 266.5001,-70.4133 273.5001,-70.4132"/>
</g>
<!-- act_asOrdered&#45;&gt;act_rally -->
<g id="edge33" class="edge">
<title>act_asOrdered&#45;&gt;act_rally</title>
<path fill="none" stroke="#000000" d="M307.4838,-56.4069C324.5705,-65.6309 343.3657,-79.0531 355,-96 378.3667,-130.0366 378,-144.7145 378,-186 378,-474 378,-474 378,-474 378,-528.2115 350.6758,-586.9015 330.1402,-619.3374"/>
<polygon fill="#000000" stroke="#000000" points="327.1625,-617.4949 324.5565,-627.7643 332.9978,-621.3614 327.1625,-617.4949"/>
</g>
<!-- act_asOrdered&#45;&gt;act_flight -->
<g id="edge18" class="edge">
<title>act_asOrdered&#45;&gt;act_flight</title>
<path fill="none" stroke="#ff0000" d="M225.5671,-54.6225C204.6453,-62.92 181.396,-76.0332 168,-96 125.4849,-159.3691 132.7969,-254.967 139.8361,-301.9344"/>
<polygon fill="#ff0000" stroke="#ff0000" points="136.4092,-302.669 141.4525,-311.9865 143.3204,-301.5577 136.4092,-302.669"/>
</g>
<!-- act_init -->
<g id="node15" class="node">
<title>act_init</title>
<ellipse fill="none" stroke="#000000" cx="309" cy="-743" rx="37.0935" ry="18"/>
<text text-anchor="middle" x="309" y="-739.3" font-family="Times,serif" font-size="14.00" fill="#000000">act_init</text>
</g>
<!-- act_init&#45;&gt;act_rally -->
<g id="edge28" class="edge">
<title>act_init&#45;&gt;act_rally</title>
<path fill="none" stroke="#000000" d="M309,-724.9336C309,-710.4456 309,-689.8416 309,-673.1145"/>
<polygon fill="#000000" stroke="#000000" points="312.5001,-672.7854 309,-662.7855 305.5001,-672.7855 312.5001,-672.7854"/>
</g>
<!-- cyc_spawn -->
<g id="node16" class="node">
<title>cyc_spawn</title>
<polygon fill="none" stroke="#000000" points="566.5,-908 489.5,-908 489.5,-831 566.5,-831 566.5,-908"/>
<polyline fill="none" stroke="#000000" points="501.5,-908 489.5,-896 "/>
<polyline fill="none" stroke="#000000" points="489.5,-843 501.5,-831 "/>
<polyline fill="none" stroke="#000000" points="554.5,-831 566.5,-843 "/>
<polyline fill="none" stroke="#000000" points="566.5,-896 554.5,-908 "/>
<text text-anchor="middle" x="528" y="-865.8" font-family="Times,serif" font-size="14.00" fill="#000000">cyc_spawn</text>
</g>
<!-- cyc_spawn&#45;&gt;cluster_life_node -->
<g id="edge34" class="edge">
<title>cyc_spawn&#45;&gt;cluster_life_node</title>
<path fill="none" stroke="#000000" d="M528,-830.8585C528,-830.6983 528,-830.5378 528,-830.3771"/>
<polygon fill="#000000" stroke="#000000" points="531.5001,-832.998 528,-822.9981 524.5001,-832.9981 531.5001,-832.998"/>
</g>
</g>
</svg>
