<?xml version="1.0" encoding="UTF-8" standalone="no"?>
<!DOCTYPE svg PUBLIC "-//W3C//DTD SVG 1.1//EN"
 "http://www.w3.org/Graphics/SVG/1.1/DTD/svg11.dtd">
<!-- Generated by graphviz version 2.40.1 (20161225.0304)
 -->
<!-- Title: civs Pages: 1 -->
<svg width="698pt" height="332pt"
 viewBox="0.00 0.00 697.83 332.00" xmlns="http://www.w3.org/2000/svg" xmlns:xlink="http://www.w3.org/1999/xlink">
<g id="graph0" class="graph" transform="scale(1 1) rotate(0) translate(4 328)">
<title>civs</title>
<polygon fill="#ffffff" stroke="transparent" points="-4,4 -4,-328 693.8276,-328 693.8276,4 -4,4"/>
<!-- flight -->
<g id="node1" class="node">
<title>flight</title>
<ellipse fill="none" stroke="#000000" cx="176.1344" cy="-234" rx="176.2688" ry="18"/>
<text text-anchor="middle" x="176.1344" y="-230.3" font-family="Times,serif" font-size="14.00" fill="#000000">who the fuck is shooting, have to run far away</text>
</g>
<!-- patrol -->
<g id="node4" class="node">
<title>patrol</title>
<ellipse fill="none" stroke="#000000" cx="293.1344" cy="-162" rx="149.4735" ry="18"/>
<text text-anchor="middle" x="293.1344" y="-158.3" font-family="Times,serif" font-size="14.00" fill="#000000">task patrol assigned | lets patrol around</text>
</g>
<!-- flight&#45;&gt;patrol -->
<g id="edge2" class="edge">
<title>flight&#45;&gt;patrol</title>
<path fill="none" stroke="#000000" d="M205.0557,-216.2022C220.2434,-206.856 239.0406,-195.2884 255.3645,-185.243"/>
<polygon fill="#000000" stroke="#000000" points="257.458,-188.0644 264.1402,-179.8425 253.7893,-182.1028 257.458,-188.0644"/>
</g>
<!-- hide -->
<g id="node2" class="node">
<title>hide</title>
<ellipse fill="none" stroke="#000000" cx="466.1344" cy="-306" rx="167.0704" ry="18"/>
<text text-anchor="middle" x="466.1344" y="-302.3" font-family="Times,serif" font-size="14.00" fill="#000000">who the fuck is shooting, have to find cover</text>
</g>
<!-- hidden -->
<g id="node3" class="node">
<title>hidden</title>
<ellipse fill="none" stroke="#000000" cx="425.1344" cy="-234" rx="54.6905" ry="18"/>
<text text-anchor="middle" x="425.1344" y="-230.3" font-family="Times,serif" font-size="14.00" fill="#000000">taking cover</text>
</g>
<!-- hide&#45;&gt;hidden -->
<g id="edge3" class="edge">
<title>hide&#45;&gt;hidden</title>
<path fill="none" stroke="#000000" d="M455.7883,-287.8314C451.1402,-279.6688 445.5603,-269.87 440.4426,-260.8827"/>
<polygon fill="#000000" stroke="#000000" points="443.325,-258.8713 435.3351,-251.9134 437.242,-262.3352 443.325,-258.8713"/>
</g>
<!-- surrendered -->
<g id="node5" class="node">
<title>surrendered</title>
<ellipse fill="none" stroke="#000000" cx="470.1344" cy="-90" rx="118.8789" ry="18"/>
<text text-anchor="middle" x="470.1344" y="-86.3" font-family="Times,serif" font-size="14.00" fill="#000000">cant run away or i will be shot</text>
</g>
<!-- hide&#45;&gt;surrendered -->
<g id="edge7" class="edge">
<title>hide&#45;&gt;surrendered</title>
<path fill="none" stroke="#000000" d="M476.1579,-287.6094C481.1324,-277.4366 486.6076,-264.3803 489.1344,-252 498.6384,-205.4326 487.5139,-150.2938 478.7244,-117.8384"/>
<polygon fill="#000000" stroke="#000000" points="482.0704,-116.8082 475.9818,-108.1376 475.3344,-118.7126 482.0704,-116.8082"/>
</g>
<!-- hidden&#45;&gt;patrol -->
<g id="edge4" class="edge">
<title>hidden&#45;&gt;patrol</title>
<path fill="none" stroke="#000000" d="M396.8171,-218.5542C378.6859,-208.6644 354.8488,-195.6624 334.6026,-184.619"/>
<polygon fill="#000000" stroke="#000000" points="336.0413,-181.417 325.5863,-179.7011 332.6893,-187.5623 336.0413,-181.417"/>
</g>
<!-- hidden&#45;&gt;surrendered -->
<g id="edge8" class="edge">
<title>hidden&#45;&gt;surrendered</title>
<path fill="none" stroke="#000000" d="M435.1679,-215.9677C440.5415,-205.6852 446.906,-192.4098 451.1344,-180 457.9909,-159.8768 462.8543,-136.3447 465.9435,-118.3908"/>
<polygon fill="#000000" stroke="#000000" points="469.4382,-118.7073 467.5992,-108.2732 462.53,-117.5767 469.4382,-118.7073"/>
</g>
<!-- patrol&#45;&gt;surrendered -->
<g id="edge6" class="edge">
<title>patrol&#45;&gt;surrendered</title>
<path fill="none" stroke="#000000" d="M335.9811,-144.5708C361.0395,-134.3776 392.8224,-121.449 419.162,-110.7345"/>
<polygon fill="#000000" stroke="#000000" points="420.6532,-113.9065 428.5973,-106.8964 418.0155,-107.4224 420.6532,-113.9065"/>
</g>
<!-- freetogo -->
<g id="node6" class="node">
<title>freetogo</title>
<ellipse fill="none" stroke="#000000" cx="470.1344" cy="-18" rx="160.5715" ry="18"/>
<text text-anchor="middle" x="470.1344" y="-14.3" font-family="Times,serif" font-size="14.00" fill="#000000">he doesnt target me anymore, i can goooo</text>
</g>
<!-- surrendered&#45;&gt;freetogo -->
<g id="edge5" class="edge">
<title>surrendered&#45;&gt;freetogo</title>
<path fill="none" stroke="#000000" d="M464.182,-71.8314C463.4316,-64.131 463.2107,-54.9743 463.5193,-46.4166"/>
<polygon fill="#000000" stroke="#000000" points="467.0136,-46.6161 464.1584,-36.4133 460.0278,-46.1697 467.0136,-46.6161"/>
</g>
<!-- freetogo&#45;&gt;patrol -->
<g id="edge1" class="edge">
<title>freetogo&#45;&gt;patrol</title>
<path fill="none" stroke="#000000" d="M408.0123,-34.7006C385.3416,-43.0973 360.7299,-55.1658 342.1344,-72 323.4049,-88.9554 310.3767,-114.794 302.4878,-134.443"/>
<polygon fill="#000000" stroke="#000000" points="299.2128,-133.2084 298.9268,-143.7994 305.755,-135.6984 299.2128,-133.2084"/>
</g>
<!-- freetogo&#45;&gt;surrendered -->
<g id="edge9" class="edge">
<title>freetogo&#45;&gt;surrendered</title>
<path fill="none" stroke="#000000" d="M476.1104,-36.4133C476.8415,-44.0593 477.0546,-53.1084 476.7498,-61.5726"/>
<polygon fill="#000000" stroke="#000000" points="473.2392,-61.6264 476.0868,-71.8314 480.2246,-62.078 473.2392,-61.6264"/>
</g>
<!-- idle -->
<g id="node7" class="node">
<title>idle</title>
<ellipse fill="none" stroke="#000000" cx="613.1344" cy="-162" rx="76.8869" ry="18"/>
<text text-anchor="middle" x="613.1344" y="-158.3" font-family="Times,serif" font-size="14.00" fill="#000000">no special purpose</text>
</g>
<!-- idle&#45;&gt;surrendered -->
<g id="edge10" class="edge">
<title>idle&#45;&gt;surrendered</title>
<path fill="none" stroke="#000000" d="M580.6855,-145.6621C560.7848,-135.6422 535.062,-122.6909 513.437,-111.8027"/>
<polygon fill="#000000" stroke="#000000" points="514.9547,-108.6483 504.449,-107.2773 511.8067,-114.9005 514.9547,-108.6483"/>
</g>
</g>
</svg>
