<?xml version="1.0" encoding="UTF-8" standalone="no"?>
<!DOCTYPE svg PUBLIC "-//W3C//DTD SVG 1.1//EN"
 "http://www.w3.org/Graphics/SVG/1.1/DTD/svg11.dtd">
<!-- Generated by graphviz version 2.43.0 (0)
 -->
<!-- Title: lifecycle Pages: 1 -->
<svg width="1474pt" height="786pt"
 viewBox="0.00 0.00 1473.50 786.40" xmlns="http://www.w3.org/2000/svg" xmlns:xlink="http://www.w3.org/1999/xlink">
<g id="graph0" class="graph" transform="scale(1 1) rotate(0) translate(4 782.4)">
<title>lifecycle</title>
<polygon fill="gray" stroke="transparent" points="-4,4 -4,-782.4 1469.5,-782.4 1469.5,4 -4,4"/>
<g id="clust1" class="cluster">
<title>cluster_life</title>
<polygon fill="white" stroke="black" points="223.5,-8 223.5,-602.2 1457.5,-602.2 1457.5,-8 223.5,-8"/>
<text text-anchor="middle" x="840.5" y="-587" font-family="Times,serif" font-size="14.00">cyc_life</text>
</g>
<g id="clust2" class="cluster">
<title>cluster_emotions</title>
<polygon fill="lightyellow" stroke="black" points="1293.5,-168 1293.5,-571.2 1449.5,-571.2 1449.5,-168 1293.5,-168"/>
<text text-anchor="middle" x="1371.5" y="-556" font-family="Times,serif" font-size="14.00">emo</text>
</g>
<g id="clust4" class="cluster">
<title>cluster_activities</title>
<polygon fill="lightblue" stroke="black" points="243.5,-16 243.5,-571.2 1285.5,-571.2 1285.5,-16 243.5,-16"/>
<text text-anchor="middle" x="764.5" y="-556" font-family="Times,serif" font-size="14.00">act</text>
</g>
<g id="clust5" class="cluster">
<title>cluster_business</title>
<polygon fill="lightgreen" stroke="black" points="403.5,-24 403.5,-413.2 1149.5,-413.2 1149.5,-24 403.5,-24"/>
<text text-anchor="middle" x="776.5" y="-398" font-family="Times,serif" font-size="14.00">bus</text>
</g>
<g id="clust6" class="cluster">
<title>cluster_panic</title>
<polygon fill="pink" stroke="black" points="251.5,-24 251.5,-304.2 395.5,-304.2 395.5,-24 251.5,-24"/>
<text text-anchor="middle" x="323.5" y="-289" font-family="Times,serif" font-size="14.00">panic</text>
</g>
<!-- cluster_life_node -->
<!-- cyc_despawn -->
<g id="node28" class="node">
<title>cyc_despawn</title>
<polygon fill="none" stroke="black" points="215.5,-430 105.5,-430 105.5,-320 215.5,-320 215.5,-430"/>
<polyline fill="none" stroke="black" points="117.5,-430 105.5,-418 "/>
<polyline fill="none" stroke="black" points="105.5,-332 117.5,-320 "/>
<polyline fill="none" stroke="black" points="203.5,-320 215.5,-332 "/>
<polyline fill="none" stroke="black" points="215.5,-418 203.5,-430 "/>
<text text-anchor="middle" x="160.5" y="-371.3" font-family="Times,serif" font-size="14.00">cyc_despawn</text>
</g>
<!-- cluster_life_node&#45;&gt;cyc_despawn -->
<g id="edge39" class="edge">
<title>cluster_life_node&#45;&gt;cyc_despawn</title>
<path fill="none" stroke="black" d="M223.5,-510.63C214.88,-492.22 201.99,-464.67 190.11,-439.28"/>
<polygon fill="black" stroke="black" points="193.24,-437.7 185.83,-430.13 186.9,-440.67 193.24,-437.7"/>
</g>
<!-- cyc_death -->
<g id="node29" class="node">
<title>cyc_death</title>
<polygon fill="none" stroke="black" points="87,-418.5 0,-418.5 0,-331.5 87,-331.5 87,-418.5"/>
<polyline fill="none" stroke="black" points="12,-418.5 0,-406.5 "/>
<polyline fill="none" stroke="black" points="0,-343.5 12,-331.5 "/>
<polyline fill="none" stroke="black" points="75,-331.5 87,-343.5 "/>
<polyline fill="none" stroke="black" points="87,-406.5 75,-418.5 "/>
<text text-anchor="middle" x="43.5" y="-371.3" font-family="Times,serif" font-size="14.00">cyc_death</text>
</g>
<!-- cluster_life_node&#45;&gt;cyc_death -->
<g id="edge40" class="edge">
<title>cluster_life_node&#45;&gt;cyc_death</title>
<path fill="none" stroke="blue" d="M223.5,-519.03C211.93,-504.67 191.74,-481.51 170.5,-466 140.96,-444.43 126.19,-451.36 96.5,-430 94.4,-428.49 92.31,-426.89 90.24,-425.23"/>
<polygon fill="blue" stroke="blue" points="92.27,-422.36 82.38,-418.54 87.73,-427.69 92.27,-422.36"/>
</g>
<!-- cyc_unconscious -->
<g id="node30" class="node">
<title>cyc_unconscious</title>
<polygon fill="none" stroke="black" points="161.5,-600 27.5,-600 27.5,-466 161.5,-466 161.5,-600"/>
<polyline fill="none" stroke="black" points="39.5,-600 27.5,-588 "/>
<polyline fill="none" stroke="black" points="27.5,-478 39.5,-466 "/>
<polyline fill="none" stroke="black" points="149.5,-466 161.5,-478 "/>
<polyline fill="none" stroke="black" points="161.5,-588 149.5,-600 "/>
<text text-anchor="middle" x="94.5" y="-529.3" font-family="Times,serif" font-size="14.00">cyc_unconscious</text>
</g>
<!-- cluster_life_node&#45;&gt;cyc_unconscious -->
<g id="edge41" class="edge">
<title>cluster_life_node&#45;&gt;cyc_unconscious</title>
<path fill="none" stroke="blue" d="M223.5,-533C206.22,-533 188.95,-533 171.67,-533"/>
<polygon fill="blue" stroke="blue" points="171.56,-529.5 161.56,-533 171.56,-536.5 171.56,-529.5"/>
</g>
<!-- emo -->
<g id="node2" class="node">
<title>emo</title>
<ellipse fill="black" stroke="black" cx="1371.5" cy="-533" rx="7.2" ry="7.2"/>
</g>
<!-- emo_relaxed -->
<g id="node3" class="node">
<title>emo_relaxed</title>
<ellipse fill="none" stroke="black" cx="1371.5" cy="-375" rx="69.59" ry="18"/>
<text text-anchor="middle" x="1371.5" y="-371.3" font-family="Times,serif" font-size="14.00">emo_relaxed</text>
</g>
<!-- emo&#45;&gt;emo_relaxed -->
<g id="edge1" class="edge">
<title>emo&#45;&gt;emo_relaxed</title>
<path fill="none" stroke="black" d="M1371.5,-525.69C1371.5,-505.35 1371.5,-440.67 1371.5,-403.32"/>
<polygon fill="black" stroke="black" points="1375,-403.13 1371.5,-393.13 1368,-403.13 1375,-403.13"/>
</g>
<!-- emo_panic -->
<g id="node5" class="node">
<title>emo_panic</title>
<ellipse fill="none" stroke="black" cx="1361.5" cy="-266" rx="59.59" ry="18"/>
<text text-anchor="middle" x="1361.5" y="-262.3" font-family="Times,serif" font-size="14.00">emo_panic</text>
</g>
<!-- emo_relaxed&#45;&gt;emo_panic -->
<g id="edge2" class="edge">
<title>emo_relaxed&#45;&gt;emo_panic</title>
<path fill="none" stroke="red" d="M1369.89,-356.81C1368.32,-339.96 1365.89,-314.02 1364.06,-294.34"/>
<polygon fill="red" stroke="red" points="1367.52,-293.78 1363.1,-284.15 1360.55,-294.43 1367.52,-293.78"/>
</g>
<!-- emo_wary -->
<g id="node4" class="node">
<title>emo_wary</title>
<ellipse fill="none" stroke="black" cx="1361.5" cy="-194" rx="57.69" ry="18"/>
<text text-anchor="middle" x="1361.5" y="-190.3" font-family="Times,serif" font-size="14.00">emo_wary</text>
</g>
<!-- emo_wary&#45;&gt;emo_relaxed -->
<g id="edge5" class="edge">
<title>emo_wary&#45;&gt;emo_relaxed</title>
<path fill="none" stroke="black" d="M1391.37,-209.56C1406.04,-218.45 1422.29,-231.33 1430.5,-248 1441.54,-270.4 1439.09,-280.74 1430.5,-304.2 1424.04,-321.85 1410.93,-338.1 1398.71,-350.48"/>
<polygon fill="black" stroke="black" points="1396.04,-348.19 1391.28,-357.66 1400.9,-353.23 1396.04,-348.19"/>
</g>
<!-- emo_wary&#45;&gt;emo_panic -->
<g id="edge3" class="edge">
<title>emo_wary&#45;&gt;emo_panic</title>
<path fill="none" stroke="red" d="M1367.41,-212.28C1368.21,-220.03 1368.44,-229.36 1368.09,-238.01"/>
<polygon fill="red" stroke="red" points="1364.59,-237.83 1367.38,-248.05 1371.58,-238.33 1364.59,-237.83"/>
</g>
<!-- emo_panic&#45;&gt;emo_wary -->
<g id="edge4" class="edge">
<title>emo_panic&#45;&gt;emo_wary</title>
<path fill="none" stroke="black" d="M1355.62,-248.05C1354.8,-240.35 1354.56,-231.03 1354.89,-222.36"/>
<polygon fill="black" stroke="black" points="1358.39,-222.49 1355.59,-212.28 1351.41,-222.01 1358.39,-222.49"/>
</g>
<!-- cluster_business_node -->
<!-- cluster_panic_node -->
<!-- cluster_business_node&#45;&gt;cluster_panic_node -->
<g id="edge34" class="edge">
<title>cluster_business_node&#45;&gt;cluster_panic_node</title>
<path fill="none" stroke="red" d="M403.5,-301.32C403.45,-301.28 403.4,-301.25 403.34,-301.21"/>
<polygon fill="red" stroke="red" points="405.45,-298.42 395.5,-294.79 401.02,-303.83 405.45,-298.42"/>
</g>
<!-- act_asOrdered -->
<g id="node25" class="node">
<title>act_asOrdered</title>
<polygon fill="none" stroke="black" points="1277.5,-284 1157.5,-284 1157.5,-248 1277.5,-248 1277.5,-284"/>
<text text-anchor="middle" x="1217.5" y="-262.3" font-family="Times,serif" font-size="14.00">act_asOrdered</text>
</g>
<!-- cluster_business_node&#45;&gt;act_asOrdered -->
<g id="edge32" class="edge">
<title>cluster_business_node&#45;&gt;act_asOrdered</title>
<path fill="none" stroke="blue" d="M1149.5,-302.18C1158.18,-298.49 1166.96,-293.89 1175.23,-289.25"/>
<polygon fill="blue" stroke="blue" points="1177.11,-292.2 1184.04,-284.18 1173.63,-286.13 1177.11,-292.2"/>
</g>
<!-- act_surrendered -->
<g id="node26" class="node">
<title>act_surrendered</title>
<polygon fill="none" stroke="black" points="395.5,-393 261.5,-393 261.5,-357 395.5,-357 395.5,-393"/>
<text text-anchor="middle" x="328.5" y="-371.3" font-family="Times,serif" font-size="14.00">act_surrendered</text>
</g>
<!-- cluster_business_node&#45;&gt;act_surrendered -->
<g id="edge30" class="edge">
<title>cluster_business_node&#45;&gt;act_surrendered</title>
<path fill="none" stroke="black" d="M817.16,-413.2C814.84,-426.85 809.37,-440.66 797.5,-448 760.73,-470.72 448.8,-463.62 408.5,-448 384.24,-438.6 362.84,-418.03 348.29,-401.12"/>
<polygon fill="black" stroke="black" points="350.79,-398.65 341.71,-393.18 345.39,-403.11 350.79,-398.65"/>
</g>
<!-- bus -->
<g id="node7" class="node">
<title>bus</title>
<ellipse fill="black" stroke="black" cx="790.5" cy="-375" rx="7.2" ry="7.2"/>
</g>
<!-- bus_rally -->
<g id="node8" class="node">
<title>bus_rally</title>
<ellipse fill="none" stroke="black" cx="790.5" cy="-266" rx="52.79" ry="18"/>
<text text-anchor="middle" x="790.5" y="-262.3" font-family="Times,serif" font-size="14.00">bus_rally</text>
</g>
<!-- bus&#45;&gt;bus_rally -->
<g id="edge6" class="edge">
<title>bus&#45;&gt;bus_rally</title>
<path fill="none" stroke="black" d="M790.5,-367.63C790.5,-353.52 790.5,-318.94 790.5,-294.27"/>
<polygon fill="black" stroke="black" points="794,-294.06 790.5,-284.06 787,-294.06 794,-294.06"/>
</g>
<!-- bus_patrol -->
<g id="node9" class="node">
<title>bus_patrol</title>
<ellipse fill="none" stroke="black" cx="711.5" cy="-194" rx="59.59" ry="18"/>
<text text-anchor="middle" x="711.5" y="-190.3" font-family="Times,serif" font-size="14.00">bus_patrol</text>
</g>
<!-- bus_rally&#45;&gt;bus_patrol -->
<g id="edge7" class="edge">
<title>bus_rally&#45;&gt;bus_patrol</title>
<path fill="none" stroke="black" d="M772.18,-248.76C761.81,-239.58 748.67,-227.94 737.28,-217.84"/>
<polygon fill="black" stroke="black" points="739.53,-215.16 729.72,-211.15 734.89,-220.4 739.53,-215.16"/>
</g>
<!-- bus_mountUp -->
<g id="node10" class="node">
<title>bus_mountUp</title>
<ellipse fill="none" stroke="black" cx="1066.5" cy="-194" rx="75.29" ry="18"/>
<text text-anchor="middle" x="1066.5" y="-190.3" font-family="Times,serif" font-size="14.00">bus_mountUp</text>
</g>
<!-- bus_rally&#45;&gt;bus_mountUp -->
<g id="edge8" class="edge">
<title>bus_rally&#45;&gt;bus_mountUp</title>
<path fill="none" stroke="black" d="M828.44,-253.38C834.79,-251.53 841.32,-249.67 847.5,-248 899.88,-233.86 959.79,-219.49 1003.69,-209.28"/>
<polygon fill="black" stroke="black" points="1004.69,-212.64 1013.64,-206.97 1003.11,-205.82 1004.69,-212.64"/>
</g>
<!-- bus_rideInBack -->
<g id="node11" class="node">
<title>bus_rideInBack</title>
<ellipse fill="none" stroke="black" cx="891.5" cy="-194" rx="81.79" ry="18"/>
<text text-anchor="middle" x="891.5" y="-190.3" font-family="Times,serif" font-size="14.00">bus_rideInBack</text>
</g>
<!-- bus_rally&#45;&gt;bus_rideInBack -->
<g id="edge9" class="edge">
<title>bus_rally&#45;&gt;bus_rideInBack</title>
<path fill="none" stroke="black" d="M808.12,-248.76C820.91,-239.15 838.48,-226.87 854.25,-216.46"/>
<polygon fill="black" stroke="black" points="856.32,-219.3 862.79,-210.91 852.5,-213.43 856.32,-219.3"/>
</g>
<!-- bus_housemove -->
<g id="node15" class="node">
<title>bus_housemove</title>
<ellipse fill="none" stroke="black" cx="531.5" cy="-194" rx="83.69" ry="18"/>
<text text-anchor="middle" x="531.5" y="-190.3" font-family="Times,serif" font-size="14.00">bus_housemove</text>
</g>
<!-- bus_rally&#45;&gt;bus_housemove -->
<g id="edge16" class="edge">
<title>bus_rally&#45;&gt;bus_housemove</title>
<path fill="none" stroke="black" d="M750.6,-254.22C708.12,-242.73 640.41,-224.43 591.5,-211.21"/>
<polygon fill="black" stroke="black" points="592.23,-207.79 581.67,-208.56 590.41,-214.55 592.23,-207.79"/>
</g>
<!-- bus_transit -->
<g id="node12" class="node">
<title>bus_transit</title>
<ellipse fill="none" stroke="black" cx="1078.5" cy="-122" rx="63.09" ry="18"/>
<text text-anchor="middle" x="1078.5" y="-118.3" font-family="Times,serif" font-size="14.00">bus_transit</text>
</g>
<!-- bus_mountUp&#45;&gt;bus_transit -->
<g id="edge10" class="edge">
<title>bus_mountUp&#45;&gt;bus_transit</title>
<path fill="none" stroke="black" d="M1069.47,-175.7C1070.79,-167.98 1072.38,-158.71 1073.85,-150.11"/>
<polygon fill="black" stroke="black" points="1077.33,-150.55 1075.57,-140.1 1070.43,-149.37 1077.33,-150.55"/>
</g>
<!-- bus_voyage -->
<g id="node13" class="node">
<title>bus_voyage</title>
<ellipse fill="none" stroke="black" cx="913.5" cy="-122" rx="64.19" ry="18"/>
<text text-anchor="middle" x="913.5" y="-118.3" font-family="Times,serif" font-size="14.00">bus_voyage</text>
</g>
<!-- bus_mountUp&#45;&gt;bus_voyage -->
<g id="edge11" class="edge">
<title>bus_mountUp&#45;&gt;bus_voyage</title>
<path fill="none" stroke="black" d="M1033.3,-177.81C1010.23,-167.26 979.33,-153.12 954.69,-141.85"/>
<polygon fill="black" stroke="black" points="956.14,-138.66 945.59,-137.68 953.22,-145.02 956.14,-138.66"/>
</g>
<!-- bus_dismount -->
<g id="node14" class="node">
<title>bus_dismount</title>
<ellipse fill="none" stroke="black" cx="954.5" cy="-50" rx="75.29" ry="18"/>
<text text-anchor="middle" x="954.5" y="-46.3" font-family="Times,serif" font-size="14.00">bus_dismount</text>
</g>
<!-- bus_mountUp&#45;&gt;bus_dismount -->
<g id="edge12" class="edge">
<title>bus_mountUp&#45;&gt;bus_dismount</title>
<path fill="none" stroke="black" d="M1044.57,-176.67C1032.41,-166.91 1017.56,-153.76 1006.5,-140 995.03,-125.74 995.68,-119.84 986.5,-104 981.3,-95.03 975.48,-85.29 970.23,-76.64"/>
<polygon fill="black" stroke="black" points="973.22,-74.82 965.03,-68.09 967.24,-78.45 973.22,-74.82"/>
</g>
<!-- bus_rideInBack&#45;&gt;bus_rally -->
<g id="edge17" class="edge">
<title>bus_rideInBack&#45;&gt;bus_rally</title>
<path fill="none" stroke="black" d="M873.36,-211.62C860.12,-221.55 841.94,-234.23 825.92,-244.74"/>
<polygon fill="black" stroke="black" points="823.78,-241.95 817.29,-250.33 827.58,-247.83 823.78,-241.95"/>
</g>
<!-- bus_transit&#45;&gt;bus_dismount -->
<g id="edge13" class="edge">
<title>bus_transit&#45;&gt;bus_dismount</title>
<path fill="none" stroke="red" d="M1051.29,-105.64C1033.69,-95.7 1010.55,-82.64 991.32,-71.78"/>
<polygon fill="red" stroke="red" points="992.94,-68.68 982.51,-66.81 989.5,-74.77 992.94,-68.68"/>
</g>
<!-- bus_voyage&#45;&gt;bus_dismount -->
<g id="edge14" class="edge">
<title>bus_voyage&#45;&gt;bus_dismount</title>
<path fill="none" stroke="red" d="M923.42,-104.05C928.19,-95.92 934,-86 939.31,-76.94"/>
<polygon fill="red" stroke="red" points="942.35,-78.67 944.38,-68.28 936.31,-75.14 942.35,-78.67"/>
</g>
<!-- bus_dismount&#45;&gt;bus_rally -->
<g id="edge15" class="edge">
<title>bus_dismount&#45;&gt;bus_rally</title>
<path fill="none" stroke="black" d="M909.52,-64.45C886.8,-72.97 859.99,-85.86 840.5,-104 827.1,-116.47 830.28,-124.53 820.5,-140 812.33,-152.93 805.91,-153.7 800.5,-168 792.01,-190.45 789.86,-217.78 789.63,-237.7"/>
<polygon fill="black" stroke="black" points="786.13,-237.94 789.67,-247.93 793.13,-237.91 786.13,-237.94"/>
</g>
<!-- bus_meetNeighbor -->
<g id="node16" class="node">
<title>bus_meetNeighbor</title>
<ellipse fill="none" stroke="black" cx="712.5" cy="-122" rx="98.58" ry="18"/>
<text text-anchor="middle" x="712.5" y="-118.3" font-family="Times,serif" font-size="14.00">bus_meetNeighbor</text>
</g>
<!-- bus_housemove&#45;&gt;bus_meetNeighbor -->
<g id="edge18" class="edge">
<title>bus_housemove&#45;&gt;bus_meetNeighbor</title>
<path fill="none" stroke="black" d="M565.95,-177.46C592.04,-166.89 628.27,-152.83 658.22,-141.65"/>
<polygon fill="black" stroke="black" points="659.55,-144.89 667.7,-138.13 657.11,-138.33 659.55,-144.89"/>
</g>
<!-- bus_housework -->
<g id="node18" class="node">
<title>bus_housework</title>
<ellipse fill="none" stroke="black" cx="513.5" cy="-122" rx="81.79" ry="18"/>
<text text-anchor="middle" x="513.5" y="-118.3" font-family="Times,serif" font-size="14.00">bus_housework</text>
</g>
<!-- bus_housemove&#45;&gt;bus_housework -->
<g id="edge22" class="edge">
<title>bus_housemove&#45;&gt;bus_housework</title>
<path fill="none" stroke="black" d="M521.26,-176.05C518.46,-168.35 515.83,-159.03 513.93,-150.36"/>
<polygon fill="black" stroke="black" points="517.32,-149.45 512.03,-140.28 510.44,-150.75 517.32,-149.45"/>
</g>
<!-- bus_meetNeighbor&#45;&gt;bus_housemove -->
<g id="edge20" class="edge">
<title>bus_meetNeighbor&#45;&gt;bus_housemove</title>
<path fill="none" stroke="black" d="M677.33,-138.83C650.8,-149.57 614.08,-163.8 584.08,-174.98"/>
<polygon fill="black" stroke="black" points="582.76,-171.74 574.6,-178.5 585.19,-178.3 582.76,-171.74"/>
</g>
<!-- bus_chat -->
<g id="node17" class="node">
<title>bus_chat</title>
<ellipse fill="none" stroke="black" cx="588.5" cy="-50" rx="51.99" ry="18"/>
<text text-anchor="middle" x="588.5" y="-46.3" font-family="Times,serif" font-size="14.00">bus_chat</text>
</g>
<!-- bus_meetNeighbor&#45;&gt;bus_chat -->
<g id="edge19" class="edge">
<title>bus_meetNeighbor&#45;&gt;bus_chat</title>
<path fill="none" stroke="black" d="M683.74,-104.76C665.79,-94.63 642.55,-81.51 623.53,-70.77"/>
<polygon fill="black" stroke="black" points="625,-67.59 614.57,-65.72 621.56,-73.68 625,-67.59"/>
</g>
<!-- bus_chat&#45;&gt;bus_housemove -->
<g id="edge21" class="edge">
<title>bus_chat&#45;&gt;bus_housemove</title>
<path fill="none" stroke="black" d="M536.53,-52.27C498.19,-56.28 448.37,-68.58 422.5,-104 413.06,-116.92 414.01,-126.44 422.5,-140 432.96,-156.71 450.35,-168.29 468.21,-176.25"/>
<polygon fill="black" stroke="black" points="466.98,-179.53 477.56,-180.09 469.64,-173.05 466.98,-179.53"/>
</g>
<!-- bus_housework&#45;&gt;bus_housemove -->
<g id="edge23" class="edge">
<title>bus_housework&#45;&gt;bus_housemove</title>
<path fill="none" stroke="black" d="M523.79,-140.1C526.58,-147.79 529.19,-157.05 531.08,-165.67"/>
<polygon fill="black" stroke="black" points="527.67,-166.52 532.97,-175.7 534.55,-165.22 527.67,-166.52"/>
</g>
<!-- cluster_panic_node&#45;&gt;cluster_business_node -->
<g id="edge33" class="edge">
<title>cluster_panic_node&#45;&gt;cluster_business_node</title>
<path fill="none" stroke="red" d="M390.5,-304.2C391.41,-304.64 392.47,-305.05 393.66,-305.44"/>
<polygon fill="red" stroke="red" points="392.98,-308.87 403.5,-307.65 394.51,-302.04 392.98,-308.87"/>
</g>
<!-- pan -->
<g id="node20" class="node">
<title>pan</title>
<ellipse fill="black" stroke="black" cx="323.5" cy="-266" rx="7.2" ry="7.2"/>
</g>
<!-- pan_flight -->
<g id="node21" class="node">
<title>pan_flight</title>
<ellipse fill="none" stroke="black" cx="323.5" cy="-194" rx="57.39" ry="18"/>
<text text-anchor="middle" x="323.5" y="-190.3" font-family="Times,serif" font-size="14.00">pan_flight</text>
</g>
<!-- pan&#45;&gt;pan_flight -->
<g id="edge24" class="edge">
<title>pan&#45;&gt;pan_flight</title>
<path fill="none" stroke="black" d="M323.5,-258.54C323.5,-250.31 323.5,-235.58 323.5,-222.37"/>
<polygon fill="black" stroke="black" points="327,-222.26 323.5,-212.26 320,-222.26 327,-222.26"/>
</g>
<!-- pan_hide -->
<g id="node22" class="node">
<title>pan_hide</title>
<ellipse fill="none" stroke="black" cx="323.5" cy="-122" rx="51.99" ry="18"/>
<text text-anchor="middle" x="323.5" y="-118.3" font-family="Times,serif" font-size="14.00">pan_hide</text>
</g>
<!-- pan_flight&#45;&gt;pan_hide -->
<g id="edge25" class="edge">
<title>pan_flight&#45;&gt;pan_hide</title>
<path fill="none" stroke="black" d="M323.5,-175.7C323.5,-167.98 323.5,-158.71 323.5,-150.11"/>
<polygon fill="black" stroke="black" points="327,-150.1 323.5,-140.1 320,-150.1 327,-150.1"/>
</g>
<!-- pan_hidden -->
<g id="node23" class="node">
<title>pan_hidden</title>
<ellipse fill="none" stroke="black" cx="323.5" cy="-50" rx="63.89" ry="18"/>
<text text-anchor="middle" x="323.5" y="-46.3" font-family="Times,serif" font-size="14.00">pan_hidden</text>
</g>
<!-- pan_hide&#45;&gt;pan_hidden -->
<g id="edge26" class="edge">
<title>pan_hide&#45;&gt;pan_hidden</title>
<path fill="none" stroke="black" d="M323.5,-103.7C323.5,-95.98 323.5,-86.71 323.5,-78.11"/>
<polygon fill="black" stroke="black" points="327,-78.1 323.5,-68.1 320,-78.1 327,-78.1"/>
</g>
<!-- act -->
<g id="node24" class="node">
<title>act</title>
<ellipse fill="black" stroke="black" cx="817.5" cy="-533" rx="7.2" ry="7.2"/>
</g>
<!-- act&#45;&gt;cluster_business_node -->
<g id="edge27" class="edge">
<title>act&#45;&gt;cluster_business_node</title>
<path fill="none" stroke="black" d="M817.5,-525.69C817.5,-508.65 817.5,-460.49 817.5,-423.35"/>
<polygon fill="black" stroke="black" points="821,-423.2 817.5,-413.2 814,-423.2 821,-423.2"/>
</g>
<!-- act_asOrdered&#45;&gt;cluster_business_node -->
<g id="edge31" class="edge">
<title>act_asOrdered&#45;&gt;cluster_business_node</title>
<path fill="none" stroke="blue" d="M1200.54,-284.18C1189.87,-291.29 1175.94,-299.05 1162.5,-304.2 1161.43,-304.61 1160.35,-305.02 1159.27,-305.43"/>
<polygon fill="blue" stroke="blue" points="1157.68,-302.28 1149.5,-309.02 1160.09,-308.85 1157.68,-302.28"/>
</g>
<!-- act_surrendered&#45;&gt;cluster_business_node -->
<g id="edge29" class="edge">
<title>act_surrendered&#45;&gt;cluster_business_node</title>
<path fill="none" stroke="black" d="M341.71,-393.18C355.91,-411.01 380.28,-437.06 408.5,-448 448.8,-463.62 760.73,-470.72 797.5,-448 806.5,-442.44 811.81,-433.16 814.87,-423.05"/>
<polygon fill="black" stroke="black" points="818.31,-423.73 817.16,-413.2 811.49,-422.15 818.31,-423.73"/>
</g>
<!-- act_surrendered&#45;&gt;cluster_panic_node -->
<g id="edge28" class="edge">
<title>act_surrendered&#45;&gt;cluster_panic_node</title>
<path fill="none" stroke="black" d="M334.77,-356.81C339.04,-345.09 344.91,-328.97 350.51,-313.61"/>
<polygon fill="black" stroke="black" points="353.81,-314.79 353.94,-304.2 347.23,-312.4 353.81,-314.79"/>
</g>
<!-- cyc_spawn -->
<g id="node27" class="node">
<title>cyc_spawn</title>
<polygon fill="none" stroke="black" points="279.5,-728 187.5,-728 187.5,-636 279.5,-636 279.5,-728"/>
<polyline fill="none" stroke="black" points="199.5,-728 187.5,-716 "/>
<polyline fill="none" stroke="black" points="187.5,-648 199.5,-636 "/>
<polyline fill="none" stroke="black" points="267.5,-636 279.5,-648 "/>
<polyline fill="none" stroke="black" points="279.5,-716 267.5,-728 "/>
<text text-anchor="middle" x="233.5" y="-678.3" font-family="Times,serif" font-size="14.00">cyc_spawn</text>
</g>
<!-- cyc_spawn&#45;&gt;cluster_life_node -->
<g id="edge38" class="edge">
<title>cyc_spawn&#45;&gt;cluster_life_node</title>
<path fill="none" stroke="black" d="M233.5,-635.7C233.5,-628.24 233.5,-620.32 233.5,-612.33"/>
<polygon fill="black" stroke="black" points="237,-612.2 233.5,-602.2 230,-612.2 237,-612.2"/>
</g>
<!-- cyc_1 -->
<g id="node32" class="node">
<title>cyc_1</title>
<ellipse fill="black" stroke="black" cx="101.5" cy="-266" rx="7.2" ry="7.2"/>
<ellipse fill="none" stroke="black" cx="101.5" cy="-266" rx="11.2" ry="11.2"/>
</g>
<!-- cyc_despawn&#45;&gt;cyc_1 -->
<g id="edge37" class="edge">
<title>cyc_despawn&#45;&gt;cyc_1</title>
<path fill="none" stroke="black" d="M130.65,-319.87C123.78,-307.41 116.93,-294.99 111.6,-285.32"/>
<polygon fill="black" stroke="black" points="114.55,-283.42 106.66,-276.36 108.42,-286.8 114.55,-283.42"/>
</g>
<!-- cyc_death&#45;&gt;cyc_1 -->
<g id="edge36" class="edge">
<title>cyc_death&#45;&gt;cyc_1</title>
<path fill="none" stroke="black" d="M66.59,-331.4C75.26,-315.4 84.68,-298.04 91.54,-285.38"/>
<polygon fill="black" stroke="black" points="94.74,-286.81 96.43,-276.35 88.59,-283.47 94.74,-286.81"/>
</g>
<!-- cyc_unconscious&#45;&gt;cluster_life_node -->
<g id="edge42" class="edge">
<title>cyc_unconscious&#45;&gt;cluster_life_node</title>
<path fill="none" stroke="blue" d="M161.56,-533C181.51,-533 201.46,-533 221.42,-533"/>
<polygon fill="blue" stroke="blue" points="221.53,-536.5 231.53,-533 221.53,-529.5 221.53,-536.5"/>
</g>
<!-- cyc_unconscious&#45;&gt;cyc_death -->
<g id="edge43" class="edge">
<title>cyc_unconscious&#45;&gt;cyc_death</title>
<path fill="none" stroke="blue" d="M72.87,-465.84C68.8,-453.39 64.59,-440.52 60.68,-428.55"/>
<polygon fill="blue" stroke="blue" points="63.9,-427.15 57.47,-418.73 57.25,-429.32 63.9,-427.15"/>
</g>
<!-- cyc_0 -->
<g id="node31" class="node">
<title>cyc_0</title>
<ellipse fill="black" stroke="black" cx="233.5" cy="-771.2" rx="7.2" ry="7.2"/>
</g>
<!-- cyc_0&#45;&gt;cyc_spawn -->
<g id="edge35" class="edge">
<title>cyc_0&#45;&gt;cyc_spawn</title>
<path fill="none" stroke="black" d="M233.5,-763.93C233.5,-758.07 233.5,-748.69 233.5,-738.37"/>
<polygon fill="black" stroke="black" points="237,-738.26 233.5,-728.26 230,-738.26 237,-738.26"/>
</g>
</g>
</svg>
