<?xml version="1.0" encoding="UTF-8" standalone="no"?>
<!DOCTYPE svg PUBLIC "-//W3C//DTD SVG 1.1//EN"
 "http://www.w3.org/Graphics/SVG/1.1/DTD/svg11.dtd">
<!-- Generated by graphviz version 2.43.0 (0)
 -->
<!-- Title: lifecycle Pages: 1 -->
<svg width="1212pt" height="725pt"
 viewBox="0.00 0.00 1211.50 725.40" xmlns="http://www.w3.org/2000/svg" xmlns:xlink="http://www.w3.org/1999/xlink">
<g id="graph0" class="graph" transform="scale(1 1) rotate(0) translate(4 721.4)">
<title>lifecycle</title>
<polygon fill="gray" stroke="transparent" points="-4,4 -4,-721.4 1207.5,-721.4 1207.5,4 -4,4"/>
<g id="clust1" class="cluster">
<title>cluster_life</title>
<polygon fill="white" stroke="black" points="185.5,-8 185.5,-568.7 1195.5,-568.7 1195.5,-8 185.5,-8"/>
<text text-anchor="middle" x="690.5" y="-553.5" font-family="Times,serif" font-size="14.00">cyc_life</text>
</g>
<g id="clust2" class="cluster">
<title>cluster_emotions</title>
<polygon fill="lightyellow" stroke="black" points="1051.5,-168 1051.5,-537.7 1187.5,-537.7 1187.5,-168 1051.5,-168"/>
<text text-anchor="middle" x="1119.5" y="-522.5" font-family="Times,serif" font-size="14.00">emo</text>
</g>
<g id="clust4" class="cluster">
<title>cluster_activities</title>
<polygon fill="lightblue" stroke="black" points="205.5,-16 205.5,-537.7 1043.5,-537.7 1043.5,-16 205.5,-16"/>
<text text-anchor="middle" x="624.5" y="-522.5" font-family="Times,serif" font-size="14.00">act</text>
</g>
<g id="clust5" class="cluster">
<title>cluster_business</title>
<polygon fill="lightgreen" stroke="black" points="341.5,-24 341.5,-402.7 931.5,-402.7 931.5,-24 341.5,-24"/>
<text text-anchor="middle" x="636.5" y="-387.5" font-family="Times,serif" font-size="14.00">bus</text>
</g>
<g id="clust6" class="cluster">
<title>cluster_panic</title>
<polygon fill="pink" stroke="black" points="213.5,-24 213.5,-304.2 333.5,-304.2 333.5,-24 213.5,-24"/>
<text text-anchor="middle" x="273.5" y="-289" font-family="Times,serif" font-size="14.00">panic</text>
</g>
<!-- cluster_life_node -->
<!-- cyc_despawn -->
<g id="node27" class="node">
<title>cyc_despawn</title>
<polygon fill="none" stroke="black" points="178,-409 89,-409 89,-320 178,-320 178,-409"/>
<polyline fill="none" stroke="black" points="101,-409 89,-397 "/>
<polyline fill="none" stroke="black" points="89,-332 101,-320 "/>
<polyline fill="none" stroke="black" points="166,-320 178,-332 "/>
<polyline fill="none" stroke="black" points="178,-397 166,-409 "/>
<text text-anchor="middle" x="133.5" y="-360.8" font-family="Times,serif" font-size="14.00">cyc_despawn</text>
</g>
<!-- cluster_life_node&#45;&gt;cyc_despawn -->
<g id="edge37" class="edge">
<title>cluster_life_node&#45;&gt;cyc_despawn</title>
<path fill="none" stroke="black" d="M185.5,-477.06C178.14,-461.26 167.79,-439.05 158.25,-418.6"/>
<polygon fill="black" stroke="black" points="161.26,-416.76 153.86,-409.18 154.91,-419.72 161.26,-416.76"/>
</g>
<!-- cyc_death -->
<g id="node28" class="node">
<title>cyc_death</title>
<polygon fill="none" stroke="black" points="71,-400 0,-400 0,-329 71,-329 71,-400"/>
<polyline fill="none" stroke="black" points="12,-400 0,-388 "/>
<polyline fill="none" stroke="black" points="0,-341 12,-329 "/>
<polyline fill="none" stroke="black" points="59,-329 71,-341 "/>
<polyline fill="none" stroke="black" points="71,-388 59,-400 "/>
<text text-anchor="middle" x="35.5" y="-360.8" font-family="Times,serif" font-size="14.00">cyc_death</text>
</g>
<!-- cluster_life_node&#45;&gt;cyc_death -->
<g id="edge38" class="edge">
<title>cluster_life_node&#45;&gt;cyc_death</title>
<path fill="none" stroke="blue" d="M185.5,-487C175.18,-475.54 158.27,-457.84 141.5,-445 116.2,-425.63 104.81,-428.36 79.5,-409 78.49,-408.23 77.48,-407.44 76.48,-406.63"/>
<polygon fill="blue" stroke="blue" points="78.71,-403.93 68.82,-400.13 74.18,-409.27 78.71,-403.93"/>
</g>
<!-- cyc_unconscious -->
<g id="node29" class="node">
<title>cyc_unconscious</title>
<polygon fill="none" stroke="black" points="133,-554 24,-554 24,-445 133,-445 133,-554"/>
<polyline fill="none" stroke="black" points="36,-554 24,-542 "/>
<polyline fill="none" stroke="black" points="24,-457 36,-445 "/>
<polyline fill="none" stroke="black" points="121,-445 133,-457 "/>
<polyline fill="none" stroke="black" points="133,-542 121,-554 "/>
<text text-anchor="middle" x="78.5" y="-495.8" font-family="Times,serif" font-size="14.00">cyc_unconscious</text>
</g>
<!-- cluster_life_node&#45;&gt;cyc_unconscious -->
<g id="edge39" class="edge">
<title>cluster_life_node&#45;&gt;cyc_unconscious</title>
<path fill="none" stroke="blue" d="M185.5,-499.5C171.57,-499.5 157.63,-499.5 143.69,-499.5"/>
<polygon fill="blue" stroke="blue" points="143.34,-496 133.34,-499.5 143.34,-503 143.34,-496"/>
</g>
<!-- emo -->
<g id="node2" class="node">
<title>emo</title>
<ellipse fill="black" stroke="black" cx="1119.5" cy="-499.5" rx="7.2" ry="7.2"/>
</g>
<!-- emo_relaxed -->
<g id="node3" class="node">
<title>emo_relaxed</title>
<ellipse fill="none" stroke="black" cx="1119.5" cy="-364.5" rx="56.59" ry="18"/>
<text text-anchor="middle" x="1119.5" y="-360.8" font-family="Times,serif" font-size="14.00">emo_relaxed</text>
</g>
<!-- emo&#45;&gt;emo_relaxed -->
<g id="edge1" class="edge">
<title>emo&#45;&gt;emo_relaxed</title>
<path fill="none" stroke="black" d="M1119.5,-492.09C1119.5,-474.54 1119.5,-424.96 1119.5,-393.31"/>
<polygon fill="black" stroke="black" points="1123,-392.94 1119.5,-382.94 1116,-392.94 1123,-392.94"/>
</g>
<!-- emo_panic -->
<g id="node5" class="node">
<title>emo_panic</title>
<ellipse fill="none" stroke="black" cx="1109.5" cy="-266" rx="50.09" ry="18"/>
<text text-anchor="middle" x="1109.5" y="-262.3" font-family="Times,serif" font-size="14.00">emo_panic</text>
</g>
<!-- emo_relaxed&#45;&gt;emo_panic -->
<g id="edge2" class="edge">
<title>emo_relaxed&#45;&gt;emo_panic</title>
<path fill="none" stroke="red" d="M1117.71,-346.25C1116.22,-331.84 1114.06,-311.03 1112.33,-294.36"/>
<polygon fill="red" stroke="red" points="1115.78,-293.69 1111.27,-284.1 1108.82,-294.41 1115.78,-293.69"/>
</g>
<!-- emo_wary -->
<g id="node4" class="node">
<title>emo_wary</title>
<ellipse fill="none" stroke="black" cx="1109.5" cy="-194" rx="48.19" ry="18"/>
<text text-anchor="middle" x="1109.5" y="-190.3" font-family="Times,serif" font-size="14.00">emo_wary</text>
</g>
<!-- emo_wary&#45;&gt;emo_relaxed -->
<g id="edge5" class="edge">
<title>emo_wary&#45;&gt;emo_relaxed</title>
<path fill="none" stroke="black" d="M1133.92,-209.64C1146.8,-218.86 1161.38,-232.03 1168.5,-248 1178.67,-270.81 1176.95,-280.7 1168.5,-304.2 1163.67,-317.62 1154.35,-330.16 1145.12,-340.22"/>
<polygon fill="black" stroke="black" points="1142.6,-337.79 1138.15,-347.41 1147.63,-342.66 1142.6,-337.79"/>
</g>
<!-- emo_wary&#45;&gt;emo_panic -->
<g id="edge3" class="edge">
<title>emo_wary&#45;&gt;emo_panic</title>
<path fill="none" stroke="red" d="M1115.41,-212.28C1116.21,-220.03 1116.44,-229.36 1116.09,-238.01"/>
<polygon fill="red" stroke="red" points="1112.59,-237.83 1115.38,-248.05 1119.58,-238.33 1112.59,-237.83"/>
</g>
<!-- emo_panic&#45;&gt;emo_wary -->
<g id="edge4" class="edge">
<title>emo_panic&#45;&gt;emo_wary</title>
<path fill="none" stroke="black" d="M1103.62,-248.05C1102.8,-240.35 1102.56,-231.03 1102.89,-222.36"/>
<polygon fill="black" stroke="black" points="1106.39,-222.49 1103.59,-212.28 1099.41,-222.01 1106.39,-222.49"/>
</g>
<!-- cluster_business_node -->
<!-- cluster_panic_node -->
<!-- cluster_business_node&#45;&gt;cluster_panic_node -->
<g id="edge32" class="edge">
<title>cluster_business_node&#45;&gt;cluster_panic_node</title>
<path fill="none" stroke="red" d="M341.5,-300.74C341.25,-300.54 341.01,-300.33 340.76,-300.12"/>
<polygon fill="red" stroke="red" points="342.94,-297.33 333.5,-292.52 337.88,-302.17 342.94,-297.33"/>
</g>
<!-- act_asOrdered -->
<g id="node24" class="node">
<title>act_asOrdered</title>
<polygon fill="none" stroke="black" points="1035,-284 940,-284 940,-248 1035,-248 1035,-284"/>
<text text-anchor="middle" x="987.5" y="-262.3" font-family="Times,serif" font-size="14.00">act_asOrdered</text>
</g>
<!-- cluster_business_node&#45;&gt;act_asOrdered -->
<g id="edge30" class="edge">
<title>cluster_business_node&#45;&gt;act_asOrdered</title>
<path fill="none" stroke="blue" d="M931.5,-301.96C938.38,-298.63 945.16,-294.4 951.53,-290.05"/>
<polygon fill="blue" stroke="blue" points="953.69,-292.81 959.84,-284.19 949.66,-287.09 953.69,-292.81"/>
</g>
<!-- act_surrendered -->
<g id="node25" class="node">
<title>act_surrendered</title>
<polygon fill="none" stroke="black" points="333,-382.5 230,-382.5 230,-346.5 333,-346.5 333,-382.5"/>
<text text-anchor="middle" x="281.5" y="-360.8" font-family="Times,serif" font-size="14.00">act_surrendered</text>
</g>
<!-- cluster_business_node&#45;&gt;act_surrendered -->
<g id="edge28" class="edge">
<title>cluster_business_node&#45;&gt;act_surrendered</title>
<path fill="none" stroke="black" d="M568.11,-402.7C565.2,-412.44 560.15,-421.65 551.5,-427 512.75,-450.95 388.76,-444.02 346.5,-427 328.22,-419.64 312.2,-404.4 300.64,-390.82"/>
<polygon fill="black" stroke="black" points="303.05,-388.23 294.04,-382.66 297.61,-392.64 303.05,-388.23"/>
</g>
<!-- bus -->
<g id="node7" class="node">
<title>bus</title>
<ellipse fill="black" stroke="black" cx="544.5" cy="-364.5" rx="7.2" ry="7.2"/>
</g>
<!-- bus_rally -->
<g id="node8" class="node">
<title>bus_rally</title>
<ellipse fill="none" stroke="black" cx="544.5" cy="-266" rx="43.59" ry="18"/>
<text text-anchor="middle" x="544.5" y="-262.3" font-family="Times,serif" font-size="14.00">bus_rally</text>
</g>
<!-- bus&#45;&gt;bus_rally -->
<g id="edge6" class="edge">
<title>bus&#45;&gt;bus_rally</title>
<path fill="none" stroke="black" d="M544.5,-357.17C544.5,-344.69 544.5,-316.23 544.5,-294.6"/>
<polygon fill="black" stroke="black" points="548,-294.34 544.5,-284.34 541,-294.34 548,-294.34"/>
</g>
<!-- bus_patrol -->
<g id="node9" class="node">
<title>bus_patrol</title>
<ellipse fill="none" stroke="black" cx="417.5" cy="-194" rx="48.19" ry="18"/>
<text text-anchor="middle" x="417.5" y="-190.3" font-family="Times,serif" font-size="14.00">bus_patrol</text>
</g>
<!-- bus_rally&#45;&gt;bus_patrol -->
<g id="edge7" class="edge">
<title>bus_rally&#45;&gt;bus_patrol</title>
<path fill="none" stroke="black" d="M519.41,-251.17C500.27,-240.62 473.66,-225.96 452.44,-214.26"/>
<polygon fill="black" stroke="black" points="453.86,-211.04 443.41,-209.28 450.48,-217.17 453.86,-211.04"/>
</g>
<!-- bus_mountUp -->
<g id="node10" class="node">
<title>bus_mountUp</title>
<ellipse fill="none" stroke="black" cx="544.5" cy="-194" rx="61.19" ry="18"/>
<text text-anchor="middle" x="544.5" y="-190.3" font-family="Times,serif" font-size="14.00">bus_mountUp</text>
</g>
<!-- bus_rally&#45;&gt;bus_mountUp -->
<g id="edge8" class="edge">
<title>bus_rally&#45;&gt;bus_mountUp</title>
<path fill="none" stroke="black" d="M544.5,-247.7C544.5,-239.98 544.5,-230.71 544.5,-222.11"/>
<polygon fill="black" stroke="black" points="548,-222.1 544.5,-212.1 541,-222.1 548,-222.1"/>
</g>
<!-- bus_rideInBack -->
<g id="node11" class="node">
<title>bus_rideInBack</title>
<ellipse fill="none" stroke="black" cx="689.5" cy="-194" rx="66.09" ry="18"/>
<text text-anchor="middle" x="689.5" y="-190.3" font-family="Times,serif" font-size="14.00">bus_rideInBack</text>
</g>
<!-- bus_rally&#45;&gt;bus_rideInBack -->
<g id="edge9" class="edge">
<title>bus_rally&#45;&gt;bus_rideInBack</title>
<path fill="none" stroke="black" d="M568.29,-250.83C589.04,-240.14 619.49,-225.36 644.74,-213.69"/>
<polygon fill="black" stroke="black" points="646.49,-216.73 654.13,-209.38 643.58,-210.37 646.49,-216.73"/>
</g>
<!-- bus_housework -->
<g id="node15" class="node">
<title>bus_housework</title>
<ellipse fill="none" stroke="black" cx="839.5" cy="-194" rx="65.79" ry="18"/>
<text text-anchor="middle" x="839.5" y="-190.3" font-family="Times,serif" font-size="14.00">bus_housework</text>
</g>
<!-- bus_rally&#45;&gt;bus_housework -->
<g id="edge16" class="edge">
<title>bus_rally&#45;&gt;bus_housework</title>
<path fill="none" stroke="black" d="M575.55,-253.32C581.15,-251.41 586.97,-249.55 592.5,-248 667.7,-226.92 688.19,-228.63 764.5,-212 769.8,-210.84 775.31,-209.63 780.82,-208.4"/>
<polygon fill="black" stroke="black" points="781.72,-211.78 790.71,-206.18 780.19,-204.95 781.72,-211.78"/>
</g>
<!-- bus_transit -->
<g id="node12" class="node">
<title>bus_transit</title>
<ellipse fill="none" stroke="black" cx="421.5" cy="-122" rx="49.29" ry="18"/>
<text text-anchor="middle" x="421.5" y="-118.3" font-family="Times,serif" font-size="14.00">bus_transit</text>
</g>
<!-- bus_mountUp&#45;&gt;bus_transit -->
<g id="edge10" class="edge">
<title>bus_mountUp&#45;&gt;bus_transit</title>
<path fill="none" stroke="black" d="M517.51,-177.64C499.44,-167.35 475.49,-153.73 456.03,-142.65"/>
<polygon fill="black" stroke="black" points="457.59,-139.51 447.17,-137.61 454.13,-145.6 457.59,-139.51"/>
</g>
<!-- bus_voyage -->
<g id="node13" class="node">
<title>bus_voyage</title>
<ellipse fill="none" stroke="black" cx="541.5" cy="-122" rx="52.79" ry="18"/>
<text text-anchor="middle" x="541.5" y="-118.3" font-family="Times,serif" font-size="14.00">bus_voyage</text>
</g>
<!-- bus_mountUp&#45;&gt;bus_voyage -->
<g id="edge11" class="edge">
<title>bus_mountUp&#45;&gt;bus_voyage</title>
<path fill="none" stroke="black" d="M543.76,-175.7C543.43,-167.98 543.03,-158.71 542.66,-150.11"/>
<polygon fill="black" stroke="black" points="546.16,-149.95 542.23,-140.1 539.16,-150.25 546.16,-149.95"/>
</g>
<!-- bus_dismount -->
<g id="node14" class="node">
<title>bus_dismount</title>
<ellipse fill="none" stroke="black" cx="481.5" cy="-50" rx="60.39" ry="18"/>
<text text-anchor="middle" x="481.5" y="-46.3" font-family="Times,serif" font-size="14.00">bus_dismount</text>
</g>
<!-- bus_mountUp&#45;&gt;bus_dismount -->
<g id="edge12" class="edge">
<title>bus_mountUp&#45;&gt;bus_dismount</title>
<path fill="none" stroke="black" d="M570.14,-177.47C582.71,-168.31 596.6,-155.47 603.5,-140 610.02,-125.39 612.27,-117.38 603.5,-104 589.76,-83.05 565.75,-70.34 542.65,-62.64"/>
<polygon fill="black" stroke="black" points="543.42,-59.22 532.83,-59.64 541.37,-65.91 543.42,-59.22"/>
</g>
<!-- bus_rideInBack&#45;&gt;bus_rally -->
<g id="edge17" class="edge">
<title>bus_rideInBack&#45;&gt;bus_rally</title>
<path fill="none" stroke="black" d="M663.01,-210.55C640.84,-221.9 609.07,-237.25 583.94,-248.76"/>
<polygon fill="black" stroke="black" points="582.33,-245.65 574.67,-252.97 585.22,-252.02 582.33,-245.65"/>
</g>
<!-- bus_transit&#45;&gt;bus_dismount -->
<g id="edge13" class="edge">
<title>bus_transit&#45;&gt;bus_dismount</title>
<path fill="none" stroke="red" d="M435.72,-104.41C443.08,-95.82 452.22,-85.16 460.39,-75.63"/>
<polygon fill="red" stroke="red" points="463.12,-77.83 466.97,-67.96 457.8,-73.27 463.12,-77.83"/>
</g>
<!-- bus_voyage&#45;&gt;bus_dismount -->
<g id="edge14" class="edge">
<title>bus_voyage&#45;&gt;bus_dismount</title>
<path fill="none" stroke="red" d="M527.28,-104.41C519.92,-95.82 510.78,-85.16 502.61,-75.63"/>
<polygon fill="red" stroke="red" points="505.2,-73.27 496.03,-67.96 499.88,-77.83 505.2,-73.27"/>
</g>
<!-- bus_dismount&#45;&gt;bus_rally -->
<g id="edge15" class="edge">
<title>bus_dismount&#45;&gt;bus_rally</title>
<path fill="none" stroke="black" d="M431.93,-60.47C407.12,-67.93 379.11,-81.07 363.5,-104 357.96,-112.13 353.32,-202.46 360.5,-212 376.6,-233.39 445.26,-248.84 493.98,-257.36"/>
<polygon fill="black" stroke="black" points="493.6,-260.85 504.05,-259.07 494.78,-253.95 493.6,-260.85"/>
</g>
<!-- bus_housework&#45;&gt;bus_housework -->
<g id="edge21" class="edge">
<title>bus_housework&#45;&gt;bus_housework</title>
<path fill="none" stroke="black" d="M884.25,-207.23C905.01,-208.68 923.14,-204.27 923.14,-194 923.14,-185.5 910.71,-181.01 894.64,-180.54"/>
<polygon fill="black" stroke="black" points="894.17,-177.05 884.25,-180.77 894.32,-184.05 894.17,-177.05"/>
</g>
<!-- bus_meetNeighbor -->
<g id="node16" class="node">
<title>bus_meetNeighbor</title>
<ellipse fill="none" stroke="black" cx="783.5" cy="-122" rx="77.99" ry="18"/>
<text text-anchor="middle" x="783.5" y="-118.3" font-family="Times,serif" font-size="14.00">bus_meetNeighbor</text>
</g>
<!-- bus_housework&#45;&gt;bus_meetNeighbor -->
<g id="edge18" class="edge">
<title>bus_housework&#45;&gt;bus_meetNeighbor</title>
<path fill="none" stroke="black" d="M825.94,-176.05C819.13,-167.54 810.75,-157.07 803.25,-147.68"/>
<polygon fill="black" stroke="black" points="805.91,-145.41 796.93,-139.79 800.45,-149.78 805.91,-145.41"/>
</g>
<!-- bus_chat -->
<g id="node17" class="node">
<title>bus_chat</title>
<ellipse fill="none" stroke="black" cx="831.5" cy="-50" rx="42.49" ry="18"/>
<text text-anchor="middle" x="831.5" y="-46.3" font-family="Times,serif" font-size="14.00">bus_chat</text>
</g>
<!-- bus_meetNeighbor&#45;&gt;bus_chat -->
<g id="edge19" class="edge">
<title>bus_meetNeighbor&#45;&gt;bus_chat</title>
<path fill="none" stroke="black" d="M795.12,-104.05C800.84,-95.71 807.85,-85.49 814.18,-76.25"/>
<polygon fill="black" stroke="black" points="817.22,-78.02 819.99,-67.79 811.45,-74.06 817.22,-78.02"/>
</g>
<!-- bus_chat&#45;&gt;bus_housework -->
<g id="edge20" class="edge">
<title>bus_chat&#45;&gt;bus_housework</title>
<path fill="none" stroke="black" d="M847.58,-67.08C856.19,-76.86 865.94,-90.11 870.5,-104 875.49,-119.2 874.68,-124.56 870.5,-140 867.92,-149.52 863.16,-159.08 858.12,-167.41"/>
<polygon fill="black" stroke="black" points="855.12,-165.61 852.65,-175.91 861.01,-169.4 855.12,-165.61"/>
</g>
<!-- cluster_panic_node&#45;&gt;cluster_business_node -->
<g id="edge31" class="edge">
<title>cluster_panic_node&#45;&gt;cluster_business_node</title>
<path fill="none" stroke="red" d="M328.5,-304.2C329.53,-304.78 330.62,-305.33 331.76,-305.84"/>
<polygon fill="red" stroke="red" points="330.91,-309.25 341.5,-309.11 333.14,-302.61 330.91,-309.25"/>
</g>
<!-- pan -->
<g id="node19" class="node">
<title>pan</title>
<ellipse fill="black" stroke="black" cx="273.5" cy="-266" rx="7.2" ry="7.2"/>
</g>
<!-- pan_flight -->
<g id="node20" class="node">
<title>pan_flight</title>
<ellipse fill="none" stroke="black" cx="273.5" cy="-194" rx="46.59" ry="18"/>
<text text-anchor="middle" x="273.5" y="-190.3" font-family="Times,serif" font-size="14.00">pan_flight</text>
</g>
<!-- pan&#45;&gt;pan_flight -->
<g id="edge22" class="edge">
<title>pan&#45;&gt;pan_flight</title>
<path fill="none" stroke="black" d="M273.5,-258.54C273.5,-250.31 273.5,-235.58 273.5,-222.37"/>
<polygon fill="black" stroke="black" points="277,-222.26 273.5,-212.26 270,-222.26 277,-222.26"/>
</g>
<!-- pan_hide -->
<g id="node21" class="node">
<title>pan_hide</title>
<ellipse fill="none" stroke="black" cx="273.5" cy="-122" rx="42.79" ry="18"/>
<text text-anchor="middle" x="273.5" y="-118.3" font-family="Times,serif" font-size="14.00">pan_hide</text>
</g>
<!-- pan_flight&#45;&gt;pan_hide -->
<g id="edge23" class="edge">
<title>pan_flight&#45;&gt;pan_hide</title>
<path fill="none" stroke="black" d="M273.5,-175.7C273.5,-167.98 273.5,-158.71 273.5,-150.11"/>
<polygon fill="black" stroke="black" points="277,-150.1 273.5,-140.1 270,-150.1 277,-150.1"/>
</g>
<!-- pan_hidden -->
<g id="node22" class="node">
<title>pan_hidden</title>
<ellipse fill="none" stroke="black" cx="273.5" cy="-50" rx="51.99" ry="18"/>
<text text-anchor="middle" x="273.5" y="-46.3" font-family="Times,serif" font-size="14.00">pan_hidden</text>
</g>
<!-- pan_hide&#45;&gt;pan_hidden -->
<g id="edge24" class="edge">
<title>pan_hide&#45;&gt;pan_hidden</title>
<path fill="none" stroke="black" d="M273.5,-103.7C273.5,-95.98 273.5,-86.71 273.5,-78.11"/>
<polygon fill="black" stroke="black" points="277,-78.1 273.5,-68.1 270,-78.1 277,-78.1"/>
</g>
<!-- act -->
<g id="node23" class="node">
<title>act</title>
<ellipse fill="black" stroke="black" cx="571.5" cy="-499.5" rx="7.2" ry="7.2"/>
</g>
<!-- act&#45;&gt;cluster_business_node -->
<g id="edge25" class="edge">
<title>act&#45;&gt;cluster_business_node</title>
<path fill="none" stroke="black" d="M571.5,-492.09C571.5,-477.87 571.5,-442.63 571.5,-412.93"/>
<polygon fill="black" stroke="black" points="575,-412.7 571.5,-402.7 568,-412.7 575,-412.7"/>
</g>
<!-- act_asOrdered&#45;&gt;cluster_business_node -->
<g id="edge29" class="edge">
<title>act_asOrdered&#45;&gt;cluster_business_node</title>
<path fill="none" stroke="blue" d="M976.25,-284.19C967.79,-291.47 956.2,-299.37 944.5,-304.2 943.29,-304.7 942.08,-305.19 940.87,-305.68"/>
<polygon fill="blue" stroke="blue" points="939.53,-302.45 931.5,-309.35 942.08,-308.96 939.53,-302.45"/>
</g>
<!-- act_surrendered&#45;&gt;cluster_business_node -->
<g id="edge27" class="edge">
<title>act_surrendered&#45;&gt;cluster_business_node</title>
<path fill="none" stroke="black" d="M294.04,-382.66C305.65,-397.74 324.43,-418.11 346.5,-427 388.76,-444.02 512.75,-450.95 551.5,-427 557.18,-423.49 561.3,-418.32 564.29,-412.42"/>
<polygon fill="black" stroke="black" points="567.71,-413.28 568.11,-402.7 561.2,-410.73 567.71,-413.28"/>
</g>
<!-- act_surrendered&#45;&gt;cluster_panic_node -->
<g id="edge26" class="edge">
<title>act_surrendered&#45;&gt;cluster_panic_node</title>
<path fill="none" stroke="black" d="M286.86,-346.25C289.7,-337.12 293.34,-325.43 296.94,-313.85"/>
<polygon fill="black" stroke="black" points="300.31,-314.79 299.94,-304.2 293.62,-312.71 300.31,-314.79"/>
</g>
<!-- cyc_spawn -->
<g id="node26" class="node">
<title>cyc_spawn</title>
<polygon fill="none" stroke="black" points="234,-667 157,-667 157,-590 234,-590 234,-667"/>
<polyline fill="none" stroke="black" points="169,-667 157,-655 "/>
<polyline fill="none" stroke="black" points="157,-602 169,-590 "/>
<polyline fill="none" stroke="black" points="222,-590 234,-602 "/>
<polyline fill="none" stroke="black" points="234,-655 222,-667 "/>
<text text-anchor="middle" x="195.5" y="-624.8" font-family="Times,serif" font-size="14.00">cyc_spawn</text>
</g>
<!-- cyc_spawn&#45;&gt;cluster_life_node -->
<g id="edge36" class="edge">
<title>cyc_spawn&#45;&gt;cluster_life_node</title>
<path fill="none" stroke="black" d="M195.5,-589.74C195.5,-586.19 195.5,-582.51 195.5,-578.76"/>
<polygon fill="black" stroke="black" points="199,-578.7 195.5,-568.7 192,-578.7 199,-578.7"/>
</g>
<!-- cyc_1 -->
<g id="node31" class="node">
<title>cyc_1</title>
<ellipse fill="black" stroke="black" cx="84.5" cy="-266" rx="7.2" ry="7.2"/>
<ellipse fill="none" stroke="black" cx="84.5" cy="-266" rx="11.2" ry="11.2"/>
</g>
<!-- cyc_despawn&#45;&gt;cyc_1 -->
<g id="edge35" class="edge">
<title>cyc_despawn&#45;&gt;cyc_1</title>
<path fill="none" stroke="black" d="M111.29,-319.77C105.13,-307.63 98.77,-295.1 93.79,-285.3"/>
<polygon fill="black" stroke="black" points="96.82,-283.54 89.18,-276.21 90.58,-286.71 96.82,-283.54"/>
</g>
<!-- cyc_death&#45;&gt;cyc_1 -->
<g id="edge34" class="edge">
<title>cyc_death&#45;&gt;cyc_1</title>
<path fill="none" stroke="black" d="M53.05,-328.93C60.52,-314.23 68.92,-297.68 75.16,-285.39"/>
<polygon fill="black" stroke="black" points="78.42,-286.7 79.83,-276.2 72.18,-283.53 78.42,-286.7"/>
</g>
<!-- cyc_unconscious&#45;&gt;cluster_life_node -->
<g id="edge40" class="edge">
<title>cyc_unconscious&#45;&gt;cluster_life_node</title>
<path fill="none" stroke="blue" d="M133.34,-499.5C149.97,-499.5 166.59,-499.5 183.21,-499.5"/>
<polygon fill="blue" stroke="blue" points="183.56,-503 193.56,-499.5 183.56,-496 183.56,-503"/>
</g>
<!-- cyc_unconscious&#45;&gt;cyc_death -->
<g id="edge41" class="edge">
<title>cyc_unconscious&#45;&gt;cyc_death</title>
<path fill="none" stroke="blue" d="M61.13,-444.79C57.38,-433.19 53.46,-421.05 49.84,-409.86"/>
<polygon fill="blue" stroke="blue" points="53.16,-408.74 46.75,-400.3 46.5,-410.89 53.16,-408.74"/>
</g>
<!-- cyc_0 -->
<g id="node30" class="node">
<title>cyc_0</title>
<ellipse fill="black" stroke="black" cx="195.5" cy="-710.2" rx="7.2" ry="7.2"/>
</g>
<!-- cyc_0&#45;&gt;cyc_spawn -->
<g id="edge33" class="edge">
<title>cyc_0&#45;&gt;cyc_spawn</title>
<path fill="none" stroke="black" d="M195.5,-702.95C195.5,-697.06 195.5,-687.64 195.5,-677.49"/>
<polygon fill="black" stroke="black" points="199,-677.2 195.5,-667.2 192,-677.2 199,-677.2"/>
</g>
</g>
</svg>
